<svg width="277" height="299" viewBox="0 0 277 299" fill="none" xmlns="http://www.w3.org/2000/svg">
<path opacity="0.1" d="M142.923 299C171.274 299 194.257 292.108 194.257 283.606C194.257 275.105 171.274 268.213 142.923 268.213C114.572 268.213 91.5894 275.105 91.5894 283.606C91.5894 292.108 114.572 299 142.923 299Z" fill="#C1B7FF"/>
<path d="M274.723 145.895H2.09927C0.994704 145.895 0.0992737 146.791 0.0992737 147.895V150.018C0.0992737 151.122 0.994704 152.018 2.09927 152.018H274.723C275.827 152.018 276.723 151.122 276.723 150.018V147.895C276.723 146.791 275.827 145.895 274.723 145.895Z" fill="#1A1D88"/>
<path d="M231.776 1.05327H49.0098C47.5268 1.05327 46.3245 2.25554 46.3245 3.73862V126.625C46.3245 128.108 47.5268 129.31 49.0098 129.31H231.776C233.259 129.31 234.461 128.108 234.461 126.625V3.73862C234.461 2.25554 233.259 1.05327 231.776 1.05327Z" fill="#C6E6FF"/>
<path d="M229.189 0.882568H51.5979C50.1999 0.882709 48.8593 1.43811 47.8707 2.42664C46.8822 3.41516 46.3268 4.75585 46.3267 6.15383V116.01H234.461V6.14958C234.459 4.75233 233.903 3.41274 232.915 2.42513C231.927 1.43753 230.587 0.882709 229.189 0.882568V0.882568Z" fill="#53AAEE"/>
<path d="M227.149 9.09549H53.6361V111.795H227.149V9.09549Z" fill="#191622"/>
<path d="M176.321 22.1298H76.9901C76.6489 22.1298 76.3723 22.4064 76.3723 22.7477V23.9388C76.3723 24.2801 76.6489 24.5567 76.9901 24.5567H176.321C176.662 24.5567 176.939 24.2801 176.939 23.9388V22.7477C176.939 22.4064 176.662 22.1298 176.321 22.1298Z" fill="#80FFFF"/>
<path d="M124.159 14.0227H60.1325C59.6943 14.0227 59.3391 14.3779 59.3391 14.8161V16.3449C59.3391 16.783 59.6943 17.1382 60.1325 17.1382H124.159C124.597 17.1382 124.953 16.783 124.953 16.3449V14.8161C124.953 14.3779 124.597 14.0227 124.159 14.0227Z" fill="#C1B7FF"/>
<path d="M67.4494 22.1298H59.957C59.6158 22.1298 59.3391 22.4064 59.3391 22.7477V23.9388C59.3391 24.2801 59.6158 24.5567 59.957 24.5567H67.4494C67.7907 24.5567 68.0673 24.2801 68.0673 23.9388V22.7477C68.0673 22.4064 67.7907 22.1298 67.4494 22.1298Z" fill="#C1B7FF"/>
<path d="M112.013 29.7009H60.7414C60.5291 29.7009 60.3569 29.873 60.3569 30.0854V30.825C60.3569 31.0374 60.5291 31.2095 60.7414 31.2095H112.013C112.226 31.2095 112.398 31.0374 112.398 30.825V30.0854C112.398 29.873 112.226 29.7009 112.013 29.7009Z" fill="#DBFF0E"/>
<path d="M112.013 35.8453H60.7414C60.5291 35.8453 60.3569 36.0174 60.3569 36.2297V36.9694C60.3569 37.1817 60.5291 37.3539 60.7414 37.3539H112.013C112.226 37.3539 112.398 37.1817 112.398 36.9694V36.2297C112.398 36.0174 112.226 35.8453 112.013 35.8453Z" fill="#DBFF0E"/>
<path d="M112.013 41.9902H60.7414C60.5291 41.9902 60.3569 42.1623 60.3569 42.3747V43.1143C60.3569 43.3267 60.5291 43.4988 60.7414 43.4988H112.013C112.226 43.4988 112.398 43.3267 112.398 43.1143V42.3747C112.398 42.1623 112.226 41.9902 112.013 41.9902Z" fill="#DBFF0E"/>
<path d="M112.013 48.1346H60.7414C60.5291 48.1346 60.3569 48.3067 60.3569 48.5191V49.2587C60.3569 49.4711 60.5291 49.6432 60.7414 49.6432H112.013C112.226 49.6432 112.398 49.4711 112.398 49.2587V48.5191C112.398 48.3067 112.226 48.1346 112.013 48.1346Z" fill="#DBFF0E"/>
<path d="M69.1904 54.279H60.7414C60.5291 54.279 60.3569 54.4511 60.3569 54.6634V55.4031C60.3569 55.6154 60.5291 55.7876 60.7414 55.7876H69.1904C69.4027 55.7876 69.5749 55.6154 69.5749 55.4031V54.6634C69.5749 54.4511 69.4027 54.279 69.1904 54.279Z" fill="#DBFF0E"/>
<path d="M82.648 54.279H74.199C73.9866 54.279 73.8145 54.4511 73.8145 54.6634V55.4031C73.8145 55.6154 73.9866 55.7876 74.199 55.7876H82.648C82.8603 55.7876 83.0324 55.6154 83.0324 55.4031V54.6634C83.0324 54.4511 82.8603 54.279 82.648 54.279Z" fill="#DBFF0E"/>
<path d="M96.105 54.279H87.656C87.4437 54.279 87.2716 54.4511 87.2716 54.6634V55.4031C87.2716 55.6154 87.4437 55.7876 87.656 55.7876H96.105C96.3174 55.7876 96.4895 55.6154 96.4895 55.4031V54.6634C96.4895 54.4511 96.3174 54.279 96.105 54.279Z" fill="#DBFF0E"/>
<path d="M109.563 54.279H101.114C100.901 54.279 100.729 54.4511 100.729 54.6634V55.4031C100.729 55.6154 100.901 55.7876 101.114 55.7876H109.563C109.775 55.7876 109.947 55.6154 109.947 55.4031V54.6634C109.947 54.4511 109.775 54.279 109.563 54.279Z" fill="#DBFF0E"/>
<path d="M123.02 54.279H114.571C114.359 54.279 114.187 54.4511 114.187 54.6634V55.4031C114.187 55.6154 114.359 55.7876 114.571 55.7876H123.02C123.233 55.7876 123.405 55.6154 123.405 55.4031V54.6634C123.405 54.4511 123.233 54.279 123.02 54.279Z" fill="#DBFF0E"/>
<path d="M136.478 54.279H128.029C127.817 54.279 127.644 54.4511 127.644 54.6634V55.4031C127.644 55.6154 127.817 55.7876 128.029 55.7876H136.478C136.69 55.7876 136.862 55.6154 136.862 55.4031V54.6634C136.862 54.4511 136.69 54.279 136.478 54.279Z" fill="#DBFF0E"/>
<path d="M112.013 60.424H60.7414C60.5291 60.424 60.3569 60.5961 60.3569 60.8084V61.5481C60.3569 61.7604 60.5291 61.9325 60.7414 61.9325H112.013C112.226 61.9325 112.398 61.7604 112.398 61.5481V60.8084C112.398 60.5961 112.226 60.424 112.013 60.424Z" fill="#DBFF0E"/>
<path d="M216.077 39.3979H153.066C152.77 39.3979 152.53 39.6377 152.53 39.9334V40.9655C152.53 41.2613 152.77 41.501 153.066 41.501H216.077C216.373 41.501 216.613 41.2613 216.613 40.9655V39.9334C216.613 39.6377 216.373 39.3979 216.077 39.3979Z" fill="#FF551F"/>
<path d="M216.077 48.5919H153.066C152.77 48.5919 152.53 48.8317 152.53 49.1274V50.1595C152.53 50.4553 152.77 50.695 153.066 50.695H216.077C216.373 50.695 216.613 50.4553 216.613 50.1595V49.1274C216.613 48.8317 216.373 48.5919 216.077 48.5919Z" fill="#FF2995"/>
<path d="M216.077 57.2015H153.066C152.77 57.2015 152.53 57.4412 152.53 57.737V58.7691C152.53 59.0648 152.77 59.3046 153.066 59.3046H216.077C216.373 59.3046 216.613 59.0648 216.613 58.7691V57.737C216.613 57.4412 216.373 57.2015 216.077 57.2015Z" fill="#FF2995"/>
<path d="M216.077 65.8112H153.066C152.77 65.8112 152.53 66.0509 152.53 66.3466V67.3788C152.53 67.6745 152.77 67.9142 153.066 67.9142H216.077C216.373 67.9142 216.613 67.6745 216.613 67.3788V66.3466C216.613 66.0509 216.373 65.8112 216.077 65.8112Z" fill="#FF2995"/>
<path d="M216.077 74.4208H153.066C152.77 74.4208 152.53 74.6605 152.53 74.9563V75.9884C152.53 76.2841 152.77 76.5239 153.066 76.5239H216.077C216.373 76.5239 216.613 76.2841 216.613 75.9884V74.9563C216.613 74.6605 216.373 74.4208 216.077 74.4208Z" fill="#FF2995"/>
<path d="M185.944 83.0303H153.066C152.77 83.0303 152.53 83.27 152.53 83.5658V84.5979C152.53 84.8936 152.77 85.1334 153.066 85.1334H185.944C186.24 85.1334 186.48 84.8936 186.48 84.5979V83.5658C186.48 83.27 186.24 83.0303 185.944 83.0303Z" fill="#FF2995"/>
<path d="M206.766 88.8903H173.888C173.592 88.8903 173.353 89.13 173.353 89.4257V90.4579C173.353 90.7536 173.592 90.9933 173.888 90.9933H206.766C207.062 90.9933 207.302 90.7536 207.302 90.4579V89.4257C207.302 89.13 207.062 88.8903 206.766 88.8903Z" fill="#FF2995"/>
<path d="M206.766 94.9602H173.888C173.592 94.9602 173.353 95.1999 173.353 95.4957V96.5278C173.353 96.8235 173.592 97.0633 173.888 97.0633H206.766C207.062 97.0633 207.302 96.8235 207.302 96.5278V95.4957C207.302 95.1999 207.062 94.9602 206.766 94.9602Z" fill="#FF2995"/>
<path d="M84.3108 94.9602H68.4342C68.1385 94.9602 67.8988 95.1999 67.8988 95.4957V96.5278C67.8988 96.8235 68.1385 97.0633 68.4342 97.0633H84.3108C84.6065 97.0633 84.8463 96.8235 84.8463 96.5278V95.4957C84.8463 95.1999 84.6065 94.9602 84.3108 94.9602Z" fill="#FF2995"/>
<path d="M84.3108 89.942H68.4342C68.1385 89.942 67.8988 90.1818 67.8988 90.4775V91.5097C67.8988 91.8054 68.1385 92.0451 68.4342 92.0451H84.3108C84.6065 92.0451 84.8463 91.8054 84.8463 91.5097V90.4775C84.8463 90.1818 84.6065 89.942 84.3108 89.942Z" fill="#FF2995"/>
<path d="M84.3108 84.9239H68.4342C68.1385 84.9239 67.8988 85.1637 67.8988 85.4594V86.4915C67.8988 86.7873 68.1385 87.027 68.4342 87.027H84.3108C84.6065 87.027 84.8463 86.7873 84.8463 86.4915V85.4594C84.8463 85.1637 84.6065 84.9239 84.3108 84.9239Z" fill="#FF2995"/>
<path d="M84.3108 79.9058H68.4342C68.1385 79.9058 67.8988 80.1456 67.8988 80.4413V81.4734C67.8988 81.7692 68.1385 82.0089 68.4342 82.0089H84.3108C84.6065 82.0089 84.8463 81.7692 84.8463 81.4734V80.4413C84.8463 80.1456 84.6065 79.9058 84.3108 79.9058Z" fill="#FF2995"/>
<path d="M98.331 79.9058H92.7912C92.4954 79.9058 92.2557 80.1456 92.2557 80.4413V81.4734C92.2557 81.7692 92.4954 82.0089 92.7912 82.0089H98.331C98.6267 82.0089 98.8665 81.7692 98.8665 81.4734V80.4413C98.8665 80.1456 98.6267 79.9058 98.331 79.9058Z" fill="#FF2995"/>
<path d="M98.331 91.0018H92.7912C92.4954 91.0018 92.2557 91.2416 92.2557 91.5373V92.5694C92.2557 92.8652 92.4954 93.1049 92.7912 93.1049H98.331C98.6267 93.1049 98.8665 92.8652 98.8665 92.5694V91.5373C98.8665 91.2416 98.6267 91.0018 98.331 91.0018Z" fill="#FF2995"/>
<g opacity="0.17">
<path opacity="0.17" d="M227.149 74.2282V55.8025L171.156 111.796H189.581L227.149 74.2282Z" fill="#479EE8"/>
<path opacity="0.17" d="M130.747 111.795L227.149 15.3925V9.09547H184.276L81.5765 111.795H130.747Z" fill="#479EE8"/>
<path opacity="0.17" d="M53.6361 53.759V95.2617L139.802 9.09549H98.2996L53.6361 53.759Z" fill="#479EE8"/>
</g>
<path d="M150.613 85.6093H131.334V100.121H150.613V85.6093Z" fill="#FEB187"/>
<path d="M131.335 96.9857C131.335 96.9857 139.892 100.82 150.614 96.9857V101.205L145.313 102.174L140.974 103.056L131.335 99.8715L131.335 96.9857Z" fill="#F88B65"/>
<path d="M168.354 173.524H113.463C110.923 173.524 108.864 175.584 108.864 178.124V195.891C108.864 198.431 110.923 200.49 113.463 200.49H168.354C170.894 200.49 172.953 198.431 172.953 195.891V178.124C172.953 175.584 170.894 173.524 168.354 173.524Z" fill="#7362FF"/>
<path d="M172.676 190.047C139.605 199.801 109.141 189.974 109.126 189.969C109.733 192.932 111.342 195.596 113.683 197.512C116.024 199.429 118.953 200.48 121.979 200.49H159.839C162.851 200.48 165.768 199.438 168.104 197.538C170.44 195.637 172.053 192.994 172.676 190.047V190.047Z" fill="#4A3FFB"/>
<path d="M144.096 42.6347L157.557 29.175C158.536 31.2991 159.004 33.6236 158.921 35.9614C158.839 38.2992 158.208 40.585 157.081 42.6347L162.634 37.0821C162.634 37.0821 165.133 44.5708 160.065 48.6701L164.65 44.0864C164.65 44.0864 167.535 52.5992 156.899 59.1286L144.096 42.6347Z" fill="#3E211D"/>
<path d="M155.109 56.8218L159.35 57.3781L159.382 57.352C159.415 57.0202 160.502 45.2812 147.019 39.7106L144.094 42.6352L155.109 56.8218Z" fill="#291311"/>
<path d="M157.123 77.2629C160.427 77.2629 163.106 74.5844 163.106 71.2802C163.106 67.976 160.427 65.2974 157.123 65.2974C153.819 65.2974 151.14 67.976 151.14 71.2802C151.14 74.5844 153.819 77.2629 157.123 77.2629Z" fill="#FEB187"/>
<path d="M124.953 77.2629C128.257 77.2629 130.935 74.5844 130.935 71.2802C130.935 67.976 128.257 65.2974 124.953 65.2974C121.648 65.2974 118.97 67.976 118.97 71.2802C118.97 74.5844 121.648 77.2629 124.953 77.2629Z" fill="#FEB187"/>
<path d="M150.094 42.3848H131.854C126.624 42.3848 122.384 46.6244 122.384 51.8542V84.7404C122.384 89.9703 126.624 94.2099 131.854 94.2099H150.094C155.324 94.2099 159.563 89.9703 159.563 84.7404V51.8542C159.563 46.6244 155.324 42.3848 150.094 42.3848Z" fill="#3E211D"/>
<path d="M126.179 72.7345V77.2629L128.465 74.9764L130.354 76.8652L132.152 75.0673L133.819 76.7344V71.5269L133.234 74.7105L132.171 73.5545L130.363 75.632L128.426 73.5157L127.035 75.0333L126.179 72.7345Z" fill="#291311"/>
<path d="M134.926 64.4818V70.2885L137.857 67.3569L140.279 69.7791L142.584 67.4734L144.722 69.611V62.9333L143.97 67.0156L142.604 65.533L140.287 68.1971L137.809 65.4852L136.025 67.4309L134.926 64.4818Z" fill="#291311"/>
<path d="M149.476 78.2286V81.8504L151.304 80.0222L152.815 81.5324L154.251 80.0967L155.584 81.4298V77.2651L155.115 79.8111L154.264 78.8864L152.819 80.5476L151.273 78.8571L150.161 80.0706L149.476 78.2286Z" fill="#291311"/>
<path d="M137.056 91.9701V96.8202L138.412 95.4637L139.892 96.9436L141.288 95.5478L142.726 96.9861V91.9701H137.056Z" fill="#291311"/>
<path d="M142.018 91.6101L142.727 95.7137L143.85 94.588L145.076 95.8142L146.232 94.6576L147.424 95.8498V91.6936L142.018 91.6101Z" fill="#291311"/>
<path d="M132.358 91.6936V95.7121L133.481 94.5885L134.708 95.8147L135.864 94.6582L137.056 95.8504L137.491 91.6091L132.358 91.6936Z" fill="#291311"/>
<path d="M128.99 47.8017L124.832 43.6445V47.8017H120.916L123.85 50.7359H120.916L124.092 53.9121H128.99L128.99 47.8017Z" fill="#291311"/>
<path d="M97.6615 137.282L95.5754 150.242H107.82V135.663L99.152 133.852" fill="#FEB187"/>
<path d="M105.6 139.921H97.2366L97.662 137.282L105.6 139.921Z" fill="#DC9266"/>
<path d="M119.342 103.98C110.574 108.27 102.773 109.581 92.9289 135.708L107.834 140.664C107.834 140.664 117.648 116.24 119.342 103.98Z" fill="#1A1D88"/>
<path d="M183.269 137.282L185.355 150.242H173.111V135.663L181.779 133.852" fill="#FEB187"/>
<path d="M175.331 139.921H183.696L183.271 137.282L175.331 139.921Z" fill="#DC9266"/>
<path d="M161.587 103.98C170.354 108.27 178.155 109.581 187.999 135.708L173.094 140.664C173.094 140.664 163.282 116.24 161.587 103.98Z" fill="#1A1D88"/>
<path d="M145.256 189.969H135.636C119.236 189.969 109.056 182.203 109.056 164.16L105.82 128.914C105.843 121.013 108.991 113.443 114.578 107.856C120.164 102.269 127.735 99.1205 135.636 99.0972H145.257C153.158 99.1204 160.728 102.269 166.315 107.856C171.902 113.443 175.051 121.013 175.074 128.914L169.973 162.033C169.973 182.854 161.656 189.969 145.256 189.969Z" fill="#1A1D88"/>
<path d="M164.818 106.494C145.719 109.481 120.281 106.929 116.098 106.474C111.755 110.252 108.594 115.203 106.995 120.733L109.961 121.042L122.032 122.743L137.493 125.17L151.756 126.074L168.148 124.266L173.419 119.235C171.708 114.312 168.744 109.921 164.818 106.494Z" fill="#1A1D88"/>
<path d="M118.087 280.182C118.087 282.832 121.814 282.43 126.412 282.43C131.01 282.43 134.738 282.832 134.738 280.182C134.738 277.532 131.01 275.382 126.412 275.382C121.814 275.382 118.087 277.532 118.087 280.182Z" fill="#1A1D88"/>
<path d="M112.777 200.488L126.249 278.916C129.003 279.774 131.954 279.774 134.709 278.916V219.373L112.777 200.488Z" fill="#7362FF"/>
<path d="M134.709 220.688L133.992 219.373L133.2 219.258L115.439 217.424L118.057 231.239C120.237 231.349 130.091 226.805 134.555 238.205L134.708 237.415L134.709 220.688Z" fill="#4A3FFB"/>
<path d="M163.762 280.182C163.762 282.832 160.036 282.43 155.437 282.43C150.839 282.43 147.112 282.832 147.112 280.182C147.112 277.532 150.839 275.382 155.437 275.382C160.036 275.382 163.762 277.532 163.762 280.182Z" fill="#1A1D88"/>
<path d="M169.073 200.488L155.601 278.918C152.846 279.776 149.895 279.776 147.139 278.918V219.373L169.073 200.488Z" fill="#7362FF"/>
<path d="M147.139 220.688L147.858 219.373L148.65 219.258L166.411 217.424L163.794 231.239C161.614 231.349 151.759 226.805 147.296 238.205L147.142 237.415L147.139 220.688Z" fill="#4A3FFB"/>
<path d="M138.773 216.772V268.854C138.773 269.268 139.108 269.604 139.522 269.604H142.295C142.709 269.604 143.044 269.268 143.044 268.854V216.772C143.044 216.359 142.709 216.023 142.295 216.023H139.522C139.108 216.023 138.773 216.359 138.773 216.772Z" fill="#2273DB"/>
<path d="M137.472 214.55H145.052C145.811 214.55 146.539 214.851 147.076 215.388C147.612 215.924 147.914 216.652 147.914 217.411V236.97C147.914 237.917 147.538 238.825 146.868 239.494C146.199 240.163 145.292 240.539 144.345 240.539H137.472C136.526 240.539 135.618 240.163 134.949 239.494C134.28 238.825 133.904 237.917 133.904 236.97V218.118C133.904 217.172 134.28 216.264 134.949 215.595C135.618 214.926 136.526 214.55 137.472 214.55V214.55Z" fill="#22A4FD"/>
<g style="mix-blend-mode:multiply" opacity="0.65">
<path d="M147.914 221.752C145.713 220.778 143.332 220.274 140.925 220.274C138.518 220.274 136.137 220.778 133.936 221.752V216.767C136.137 215.791 138.518 215.288 140.925 215.288C143.332 215.288 145.713 215.791 147.914 216.767V221.752Z" fill="#1A1D88"/>
</g>
<path d="M108.839 201.478H99.9454C94.3389 201.476 88.9541 199.288 84.9367 195.377C80.9193 191.466 78.5864 186.143 78.4344 180.538C78.2823 174.934 80.323 169.491 84.1224 165.368C87.9219 161.246 93.18 158.768 98.7782 158.463C98.9065 158.443 99.0363 158.432 99.1663 158.432H99.9448C100.581 158.432 101.192 158.685 101.642 159.135C102.092 159.585 102.345 160.195 102.345 160.832C102.345 161.469 102.092 162.079 101.642 162.529C101.192 162.979 100.581 163.232 99.9448 163.232C95.5098 163.232 91.2564 164.994 88.1204 168.13C84.9843 171.266 83.2225 175.52 83.2225 179.955C83.2225 184.39 84.9843 188.643 88.1204 191.779C91.2564 194.915 95.5098 196.677 99.9448 196.677H108.838C109.475 196.677 110.086 196.93 110.536 197.38C110.986 197.83 111.239 198.441 111.239 199.077C111.239 199.714 110.986 200.324 110.536 200.775C110.086 201.225 109.475 201.478 108.838 201.478H108.839Z" fill="#1A1D88"/>
<path d="M104.18 156.041H92.5018C91.3732 156.041 90.4583 156.956 90.4583 158.085V162.02C90.4583 163.149 91.3732 164.064 92.5018 164.064H104.18C105.309 164.064 106.224 163.149 106.224 162.02V158.085C106.224 156.956 105.309 156.041 104.18 156.041Z" fill="#C1B7FF"/>
<path d="M94.4694 156.502H102.212C103.233 156.507 104.213 156.901 104.954 157.603C105.695 158.306 106.141 159.264 106.2 160.283C106.204 160.206 106.223 160.132 106.223 160.052C106.219 158.99 105.796 157.971 105.044 157.22C104.292 156.468 103.274 156.045 102.211 156.042H94.4688C93.406 156.045 92.3875 156.468 91.6359 157.22C90.8842 157.971 90.4605 158.99 90.4573 160.052C90.4573 160.132 90.4759 160.206 90.4812 160.283C90.5401 159.264 90.9854 158.305 91.7264 157.603C92.4674 156.9 93.4483 156.507 94.4694 156.502V156.502Z" fill="#E6E2FF"/>
<path d="M171.946 201.478H180.839C186.446 201.476 191.83 199.288 195.848 195.377C199.865 191.466 202.198 186.143 202.35 180.538C202.502 174.934 200.462 169.491 196.662 165.368C192.863 161.246 187.605 158.768 182.006 158.463C181.878 158.443 181.748 158.432 181.618 158.432H180.84C180.203 158.432 179.593 158.685 179.142 159.135C178.692 159.585 178.439 160.195 178.439 160.832C178.439 161.469 178.692 162.079 179.142 162.529C179.593 162.979 180.203 163.232 180.84 163.232C185.275 163.232 189.528 164.994 192.664 168.13C195.8 171.266 197.562 175.52 197.562 179.955C197.562 184.39 195.8 188.643 192.664 191.779C189.528 194.915 185.275 196.677 180.84 196.677H171.946C171.309 196.677 170.699 196.93 170.248 197.38C169.798 197.83 169.545 198.441 169.545 199.077C169.545 199.714 169.798 200.324 170.248 200.775C170.699 201.225 171.309 201.478 171.946 201.478Z" fill="#1A1D88"/>
<path d="M176.605 164.064H188.283C189.412 164.064 190.327 163.149 190.327 162.02V158.085C190.327 156.956 189.412 156.041 188.283 156.041H176.605C175.476 156.041 174.561 156.956 174.561 158.085V162.02C174.561 163.149 175.476 164.064 176.605 164.064Z" fill="#C1B7FF"/>
<path d="M186.316 156.502H178.573C177.552 156.507 176.572 156.901 175.831 157.603C175.09 158.306 174.645 159.264 174.585 160.283C174.581 160.206 174.562 160.132 174.562 160.052C174.566 158.99 174.989 157.971 175.741 157.22C176.493 156.468 177.511 156.045 178.574 156.042H186.316C187.379 156.045 188.397 156.469 189.149 157.22C189.901 157.971 190.324 158.99 190.328 160.052C190.328 160.132 190.309 160.206 190.304 160.283C190.245 159.264 189.8 158.305 189.059 157.603C188.318 156.9 187.337 156.507 186.316 156.502Z" fill="#E6E2FF"/>
<path d="M180.372 194.703H101.445C98.7313 194.703 96.531 196.903 96.531 199.618V209.083C96.531 211.797 98.7313 213.998 101.445 213.998H180.372C183.086 213.998 185.286 211.797 185.286 209.083V199.618C185.286 196.903 183.086 194.703 180.372 194.703Z" fill="#C1B7FF"/>
<path d="M106.179 195.607H175.639C178.116 195.615 180.495 196.574 182.286 198.285C184.076 199.996 185.142 202.328 185.264 204.802C185.271 204.652 185.287 204.503 185.287 204.35C185.279 201.794 184.26 199.345 182.452 197.537C180.645 195.73 178.195 194.711 175.639 194.703H106.179C103.623 194.711 101.174 195.729 99.3661 197.537C97.5586 199.344 96.5394 201.793 96.531 204.349C96.531 204.501 96.5464 204.65 96.5538 204.801C96.6755 202.327 97.7416 199.994 99.5323 198.284C101.323 196.573 103.702 195.615 106.179 195.607V195.607Z" fill="#70FFE7"/>
<path d="M152.679 186.066H127.621C122.8 186.052 118.181 184.13 114.772 180.721C111.363 177.312 109.441 172.692 109.427 167.871L104.879 128.498C104.893 123.677 106.815 119.057 110.224 115.648C113.633 112.239 118.252 110.318 123.073 110.303H158.744C163.566 110.318 168.185 112.239 171.594 115.648C175.003 119.057 176.925 123.677 176.939 128.498L170.874 167.871C170.86 172.693 168.939 177.313 165.53 180.722C162.12 184.131 157.501 186.052 152.679 186.066V186.066Z" fill="#C1B7FF"/>
<path d="M123.073 111.069H158.744C163.471 111.085 168.006 112.935 171.395 116.229C174.784 119.524 176.762 124.005 176.912 128.729L176.939 128.498C176.925 123.677 175.003 119.057 171.594 115.648C168.185 112.239 163.565 110.318 158.744 110.303H123.073C118.252 110.317 113.632 112.239 110.223 115.648C106.814 119.057 104.892 123.677 104.878 128.498L104.903 128.777C105.04 124.044 107.013 119.551 110.404 116.246C113.795 112.941 118.338 111.084 123.073 111.069V111.069Z" fill="#E6E2FF"/>
<path d="M108.173 209.099H173.645C174.222 209.099 174.774 209.328 175.182 209.736C175.589 210.143 175.818 210.696 175.818 211.272V215.46C175.818 216.036 175.589 216.589 175.181 216.997C174.774 217.404 174.221 217.633 173.644 217.633H108.173C107.596 217.633 107.043 217.404 106.636 216.997C106.228 216.589 105.999 216.036 105.999 215.46V211.272C105.999 210.696 106.228 210.143 106.636 209.735C107.043 209.328 107.596 209.099 108.173 209.099V209.099Z" fill="#1A1D88"/>
<path d="M157.991 217.485H123.825C122.999 217.485 122.329 218.155 122.329 218.982V224.524C122.329 225.35 122.999 226.02 123.825 226.02H157.991C158.818 226.02 159.488 225.35 159.488 224.524V218.982C159.488 218.155 158.818 217.485 157.991 217.485Z" fill="#1A1D88"/>
<path d="M110.266 209.371H171.551C172.657 209.375 173.718 209.808 174.512 210.579C175.305 211.349 175.769 212.397 175.805 213.503C175.805 213.456 175.819 213.413 175.819 213.366C175.815 212.235 175.365 211.152 174.565 210.352C173.766 209.553 172.682 209.102 171.552 209.099H110.266C109.135 209.102 108.052 209.553 107.252 210.352C106.453 211.152 106.002 212.235 105.999 213.366C105.999 213.413 106.012 213.456 106.013 213.503C106.049 212.397 106.513 211.349 107.306 210.579C108.099 209.808 109.16 209.375 110.266 209.371V209.371Z" fill="#2293F0"/>
<path d="M168.885 215.675H112.932C112.331 215.675 111.844 216.162 111.844 216.763V218.859C111.844 219.459 112.331 219.946 112.932 219.946H168.885C169.486 219.946 169.973 219.459 169.973 218.859V216.763C169.973 216.162 169.486 215.675 168.885 215.675Z" fill="#2273DB"/>
<path d="M113.98 215.813H167.837C168.39 215.815 168.921 216.032 169.318 216.417C169.714 216.803 169.946 217.327 169.964 217.88C169.964 217.857 169.972 217.835 169.972 217.81C169.97 217.245 169.744 216.702 169.344 216.302C168.944 215.902 168.402 215.677 167.836 215.675H113.98C113.414 215.677 112.872 215.902 112.472 216.302C112.072 216.702 111.846 217.245 111.844 217.81C111.844 217.834 111.851 217.856 111.851 217.88C111.869 217.327 112.102 216.802 112.499 216.417C112.896 216.032 113.427 215.815 113.98 215.813Z" fill="#22B2FF"/>
<path d="M137.023 272.923V266.287C137.026 265.257 137.437 264.271 138.165 263.543C138.893 262.815 139.879 262.405 140.909 262.402V262.402C141.938 262.405 142.925 262.815 143.653 263.543C144.38 264.271 144.791 265.257 144.794 266.287V272.923" fill="#22A4FD"/>
<path d="M111.854 280.119C111.507 280.119 111.171 280.001 110.901 279.783C110.631 279.565 110.444 279.262 110.371 278.923C110.298 278.584 110.343 278.23 110.499 277.921C110.655 277.611 110.913 277.364 111.229 277.222C120.802 272.9 131.185 270.665 141.688 270.665C152.191 270.665 162.574 272.9 172.147 277.222C172.514 277.387 172.8 277.691 172.942 278.068C173.084 278.444 173.071 278.861 172.906 279.228C172.741 279.595 172.436 279.88 172.06 280.023C171.684 280.165 171.266 280.152 170.9 279.987C161.719 275.843 151.761 273.701 141.688 273.701C131.615 273.701 121.658 275.843 112.477 279.987C112.281 280.075 112.069 280.12 111.854 280.119V280.119Z" fill="#2273DB"/>
<path d="M147.034 269.604H135.391C134.905 269.604 134.511 269.998 134.511 270.484V273.744C134.511 274.23 134.905 274.624 135.391 274.624H147.034C147.52 274.624 147.914 274.23 147.914 273.744V270.484C147.914 269.998 147.52 269.604 147.034 269.604Z" fill="#1A1D88"/>
<path d="M141.733 272.113H140.686C140.385 272.113 140.142 272.357 140.142 272.657V285.028C140.142 285.328 140.385 285.572 140.686 285.572H141.733C142.033 285.572 142.277 285.328 142.277 285.028V272.657C142.277 272.357 142.033 272.113 141.733 272.113Z" fill="#2273DB"/>
<path d="M142.632 281.189H139.793C138.979 281.189 138.319 281.849 138.319 282.663V290.972C138.319 291.786 138.979 292.446 139.793 292.446H142.632C143.446 292.446 144.106 291.786 144.106 290.972V282.663C144.106 281.849 143.446 281.189 142.632 281.189Z" fill="#C1B7FF"/>
<path d="M174.143 287.288C177.16 287.288 179.605 284.843 179.605 281.826C179.605 278.81 177.16 276.365 174.143 276.365C171.127 276.365 168.682 278.81 168.682 281.826C168.682 284.843 171.127 287.288 174.143 287.288Z" fill="#C1B7FF"/>
<path d="M174.142 276.503C175.578 276.504 176.956 277.07 177.977 278.079C178.998 279.089 179.58 280.46 179.597 281.896C179.597 281.872 179.604 281.85 179.604 281.825C179.604 281.108 179.463 280.398 179.188 279.735C178.914 279.073 178.511 278.471 178.004 277.963C177.497 277.456 176.895 277.054 176.232 276.78C175.57 276.505 174.86 276.364 174.142 276.364C173.425 276.364 172.715 276.505 172.052 276.78C171.39 277.054 170.788 277.456 170.28 277.963C169.773 278.471 169.371 279.073 169.096 279.735C168.822 280.398 168.681 281.108 168.681 281.825C168.681 281.849 168.688 281.871 168.688 281.896C168.705 280.46 169.287 279.089 170.308 278.08C171.329 277.07 172.707 276.504 174.142 276.503V276.503Z" fill="#77FFFF"/>
<path d="M174.142 285.083C175.941 285.083 177.399 283.625 177.399 281.826C177.399 280.027 175.941 278.569 174.142 278.569C172.344 278.569 170.885 280.027 170.885 281.826C170.885 283.625 172.344 285.083 174.142 285.083Z" fill="#27B0D7"/>
<path d="M174.142 283.134C174.864 283.134 175.45 282.548 175.45 281.826C175.45 281.104 174.864 280.518 174.142 280.518C173.42 280.518 172.835 281.104 172.835 281.826C172.835 282.548 173.42 283.134 174.142 283.134Z" fill="#2273DB"/>
<path d="M174.142 280.588C174.482 280.589 174.808 280.722 175.051 280.96C175.294 281.198 175.435 281.521 175.443 281.86C175.443 281.849 175.45 281.839 175.45 281.826C175.444 281.484 175.303 281.158 175.058 280.918C174.814 280.679 174.485 280.545 174.143 280.545C173.801 280.545 173.472 280.679 173.228 280.918C172.983 281.158 172.843 281.484 172.836 281.826C172.836 281.839 172.842 281.849 172.842 281.86C172.85 281.521 172.991 281.198 173.234 280.96C173.476 280.722 173.803 280.589 174.142 280.588Z" fill="#5FFFFF"/>
<path d="M110.336 287.289C113.353 287.289 115.798 284.843 115.798 281.827C115.798 278.811 113.353 276.365 110.336 276.365C107.32 276.365 104.875 278.811 104.875 281.827C104.875 284.843 107.32 287.289 110.336 287.289Z" fill="#C1B7FF"/>
<path d="M110.336 276.503C111.772 276.504 113.149 277.07 114.17 278.08C115.191 279.089 115.773 280.46 115.79 281.896C115.79 281.872 115.797 281.85 115.797 281.825C115.805 281.104 115.669 280.388 115.397 279.719C115.126 279.05 114.725 278.442 114.217 277.929C113.709 277.416 113.105 277.009 112.439 276.731C111.772 276.453 111.058 276.31 110.336 276.31C109.614 276.31 108.9 276.453 108.234 276.731C107.567 277.009 106.963 277.416 106.455 277.929C105.947 278.442 105.546 279.05 105.275 279.719C105.004 280.388 104.868 281.104 104.875 281.825C104.875 281.849 104.882 281.871 104.882 281.896C104.899 280.46 105.481 279.089 106.502 278.08C107.523 277.07 108.901 276.504 110.336 276.503V276.503Z" fill="#77FFFF"/>
<path d="M110.336 285.083C112.135 285.083 113.593 283.625 113.593 281.826C113.593 280.027 112.135 278.569 110.336 278.569C108.538 278.569 107.079 280.027 107.079 281.826C107.079 283.625 108.538 285.083 110.336 285.083Z" fill="#27B0D7"/>
<path d="M110.336 283.134C111.058 283.134 111.644 282.548 111.644 281.826C111.644 281.104 111.058 280.518 110.336 280.518C109.614 280.518 109.029 281.104 109.029 281.826C109.029 282.548 109.614 283.134 110.336 283.134Z" fill="#2273DB"/>
<path d="M110.336 280.588C110.676 280.589 111.002 280.722 111.245 280.96C111.488 281.198 111.629 281.521 111.637 281.861C111.637 281.849 111.644 281.839 111.644 281.826C111.638 281.484 111.497 281.158 111.252 280.918C111.008 280.679 110.679 280.545 110.337 280.545C109.995 280.545 109.666 280.679 109.422 280.918C109.177 281.158 109.037 281.484 109.03 281.826C109.03 281.839 109.036 281.849 109.036 281.861C109.044 281.521 109.185 281.198 109.428 280.96C109.67 280.722 109.997 280.589 110.336 280.588V280.588Z" fill="#5FFFFF"/>
<path d="M154.949 135.324H126.867C124.361 135.324 122.329 137.356 122.329 139.862V148.604C122.329 151.111 124.361 153.143 126.867 153.143H154.949C157.456 153.143 159.488 151.111 159.488 148.604V139.862C159.488 137.356 157.456 135.324 154.949 135.324Z" fill="#1A1D88"/>
<path d="M150.579 135.324H131.238C128.877 135.33 126.615 136.271 124.945 137.94C123.276 139.61 122.335 141.872 122.329 144.233V144.233C122.329 144.283 122.335 144.331 122.336 144.381C122.381 142.047 123.338 139.823 125.001 138.185C126.665 136.548 128.904 135.626 131.238 135.618H150.579C152.913 135.626 155.152 136.548 156.816 138.185C158.48 139.823 159.436 142.047 159.481 144.381C159.481 144.332 159.488 144.283 159.488 144.233C159.482 141.872 158.541 139.61 156.872 137.94C155.202 136.271 152.94 135.33 150.579 135.324Z" fill="#226EE5"/>
<path d="M143.655 142.06H138.162C137.343 142.06 136.679 142.724 136.679 143.543V211.883C136.679 212.702 137.343 213.366 138.162 213.366H143.655C144.474 213.366 145.138 212.702 145.138 211.883V143.543C145.138 142.724 144.474 142.06 143.655 142.06Z" fill="#1A1D88"/>
<path d="M143.925 146.506H137.892C137.723 146.506 137.587 146.643 137.587 146.811V148.036C137.587 148.205 137.723 148.342 137.892 148.342H143.925C144.094 148.342 144.231 148.205 144.231 148.036V146.811C144.231 146.643 144.094 146.506 143.925 146.506Z" fill="#1159C9"/>
<path d="M143.925 146.506H137.892C137.723 146.506 137.587 146.643 137.587 146.811V147.942C137.587 148.111 137.723 148.248 137.892 148.248H143.925C144.094 148.248 144.231 148.111 144.231 147.942V146.811C144.231 146.643 144.094 146.506 143.925 146.506Z" fill="#111B54"/>
<path d="M143.925 151.559H137.892C137.723 151.559 137.587 151.696 137.587 151.865V153.09C137.587 153.259 137.723 153.395 137.892 153.395H143.925C144.094 153.395 144.231 153.259 144.231 153.09V151.865C144.231 151.696 144.094 151.559 143.925 151.559Z" fill="#1159C9"/>
<path d="M143.925 151.559H137.892C137.723 151.559 137.587 151.696 137.587 151.865V152.996C137.587 153.165 137.723 153.302 137.892 153.302H143.925C144.094 153.302 144.231 153.165 144.231 152.996V151.865C144.231 151.696 144.094 151.559 143.925 151.559Z" fill="#111B54"/>
<path d="M143.925 156.361H137.892C137.723 156.361 137.587 156.497 137.587 156.666V157.891C137.587 158.06 137.723 158.197 137.892 158.197H143.925C144.094 158.197 144.231 158.06 144.231 157.891V156.666C144.231 156.497 144.094 156.361 143.925 156.361Z" fill="#1159C9"/>
<path d="M143.925 156.361H137.892C137.723 156.361 137.587 156.497 137.587 156.666V157.797C137.587 157.966 137.723 158.103 137.892 158.103H143.925C144.094 158.103 144.231 157.966 144.231 157.797V156.666C144.231 156.497 144.094 156.361 143.925 156.361Z" fill="#111B54"/>
<path d="M143.925 161.162H137.892C137.723 161.162 137.587 161.299 137.587 161.468V162.692C137.587 162.861 137.723 162.998 137.892 162.998H143.925C144.094 162.998 144.231 162.861 144.231 162.692V161.468C144.231 161.299 144.094 161.162 143.925 161.162Z" fill="#1159C9"/>
<path d="M143.925 161.162H137.892C137.723 161.162 137.587 161.299 137.587 161.468V162.599C137.587 162.767 137.723 162.904 137.892 162.904H143.925C144.094 162.904 144.231 162.767 144.231 162.599V161.468C144.231 161.299 144.094 161.162 143.925 161.162Z" fill="#111B54"/>
<path d="M143.925 165.963H137.892C137.723 165.963 137.587 166.1 137.587 166.269V167.493C137.587 167.662 137.723 167.799 137.892 167.799H143.925C144.094 167.799 144.231 167.662 144.231 167.493V166.269C144.231 166.1 144.094 165.963 143.925 165.963Z" fill="#1159C9"/>
<path d="M143.925 165.963H137.892C137.723 165.963 137.587 166.1 137.587 166.269V167.4C137.587 167.569 137.723 167.706 137.892 167.706H143.925C144.094 167.706 144.231 167.569 144.231 167.4V166.269C144.231 166.1 144.094 165.963 143.925 165.963Z" fill="#111B54"/>
<path d="M143.925 170.764H137.892C137.723 170.764 137.587 170.901 137.587 171.07V172.295C137.587 172.463 137.723 172.6 137.892 172.6H143.925C144.094 172.6 144.231 172.463 144.231 172.295V171.07C144.231 170.901 144.094 170.764 143.925 170.764Z" fill="#1159C9"/>
<path d="M143.925 170.764H137.892C137.723 170.764 137.587 170.901 137.587 171.07V172.201C137.587 172.37 137.723 172.507 137.892 172.507H143.925C144.094 172.507 144.231 172.37 144.231 172.201V171.07C144.231 170.901 144.094 170.764 143.925 170.764Z" fill="#111B54"/>
<path d="M143.925 175.565H137.892C137.723 175.565 137.587 175.702 137.587 175.871V177.096C137.587 177.265 137.723 177.401 137.892 177.401H143.925C144.094 177.401 144.231 177.265 144.231 177.096V175.871C144.231 175.702 144.094 175.565 143.925 175.565Z" fill="#1159C9"/>
<path d="M143.925 175.565H137.892C137.723 175.565 137.587 175.702 137.587 175.871V177.002C137.587 177.171 137.723 177.308 137.892 177.308H143.925C144.094 177.308 144.231 177.171 144.231 177.002V175.871C144.231 175.702 144.094 175.565 143.925 175.565Z" fill="#111B54"/>
<path d="M143.925 180.367H137.892C137.723 180.367 137.587 180.503 137.587 180.672V181.897C137.587 182.066 137.723 182.203 137.892 182.203H143.925C144.094 182.203 144.231 182.066 144.231 181.897V180.672C144.231 180.503 144.094 180.367 143.925 180.367Z" fill="#1159C9"/>
<path d="M143.925 180.367H137.892C137.723 180.367 137.587 180.503 137.587 180.672V181.803C137.587 181.972 137.723 182.109 137.892 182.109H143.925C144.094 182.109 144.231 181.972 144.231 181.803V180.672C144.231 180.503 144.094 180.367 143.925 180.367Z" fill="#111B54"/>
<path d="M143.925 185.168H137.892C137.723 185.168 137.587 185.305 137.587 185.473V186.698C137.587 186.867 137.723 187.004 137.892 187.004H143.925C144.094 187.004 144.231 186.867 144.231 186.698V185.473C144.231 185.305 144.094 185.168 143.925 185.168Z" fill="#1159C9"/>
<path d="M143.925 185.168H137.892C137.723 185.168 137.587 185.305 137.587 185.473V186.605C137.587 186.773 137.723 186.91 137.892 186.91H143.925C144.094 186.91 144.231 186.773 144.231 186.605V185.473C144.231 185.305 144.094 185.168 143.925 185.168Z" fill="#111B54"/>
<path d="M143.925 189.969H137.892C137.723 189.969 137.587 190.106 137.587 190.275V191.499C137.587 191.668 137.723 191.805 137.892 191.805H143.925C144.094 191.805 144.231 191.668 144.231 191.499V190.275C144.231 190.106 144.094 189.969 143.925 189.969Z" fill="#1159C9"/>
<path d="M143.925 189.969H137.892C137.723 189.969 137.587 190.106 137.587 190.275V191.406C137.587 191.575 137.723 191.711 137.892 191.711H143.925C144.094 191.711 144.231 191.575 144.231 191.406V190.275C144.231 190.106 144.094 189.969 143.925 189.969Z" fill="#111B54"/>
<path d="M143.925 194.77H137.892C137.723 194.77 137.587 194.907 137.587 195.076V196.3C137.587 196.469 137.723 196.606 137.892 196.606H143.925C144.094 196.606 144.231 196.469 144.231 196.3V195.076C144.231 194.907 144.094 194.77 143.925 194.77Z" fill="#1159C9"/>
<path d="M143.925 194.77H137.892C137.723 194.77 137.587 194.907 137.587 195.076V196.207C137.587 196.376 137.723 196.513 137.892 196.513H143.925C144.094 196.513 144.231 196.376 144.231 196.207V195.076C144.231 194.907 144.094 194.77 143.925 194.77Z" fill="#111B54"/>
<path d="M143.925 199.571H137.892C137.723 199.571 137.587 199.708 137.587 199.877V201.102C137.587 201.271 137.723 201.407 137.892 201.407H143.925C144.094 201.407 144.231 201.271 144.231 201.102V199.877C144.231 199.708 144.094 199.571 143.925 199.571Z" fill="#1159C9"/>
<path d="M143.925 199.571H137.892C137.723 199.571 137.587 199.708 137.587 199.877V201.008C137.587 201.177 137.723 201.314 137.892 201.314H143.925C144.094 201.314 144.231 201.177 144.231 201.008V199.877C144.231 199.708 144.094 199.571 143.925 199.571Z" fill="#111B54"/>
<path d="M143.925 204.372H137.892C137.723 204.372 137.587 204.509 137.587 204.678V205.903C137.587 206.072 137.723 206.209 137.892 206.209H143.925C144.094 206.209 144.231 206.072 144.231 205.903V204.678C144.231 204.509 144.094 204.372 143.925 204.372Z" fill="#1159C9"/>
<path d="M143.925 204.372H137.892C137.723 204.372 137.587 204.509 137.587 204.678V205.809C137.587 205.978 137.723 206.115 137.892 206.115H143.925C144.094 206.115 144.231 205.978 144.231 205.809V204.678C144.231 204.509 144.094 204.372 143.925 204.372Z" fill="#111B54"/>
<path d="M228.852 138.07C227.822 138.07 226.814 137.764 225.957 137.192C225.1 136.619 224.432 135.805 224.038 134.853C223.643 133.901 223.54 132.853 223.741 131.842C223.942 130.831 224.439 129.903 225.167 129.174C225.896 128.445 226.825 127.949 227.836 127.748C228.846 127.547 229.894 127.65 230.846 128.044C231.799 128.439 232.613 129.107 233.185 129.964C233.758 130.821 234.063 131.828 234.063 132.859C234.062 134.241 233.513 135.565 232.536 136.543C231.559 137.52 230.234 138.069 228.852 138.07V138.07ZM228.852 129.195C228.127 129.195 227.419 129.41 226.816 129.812C226.213 130.215 225.743 130.788 225.465 131.457C225.188 132.127 225.115 132.864 225.257 133.575C225.398 134.286 225.747 134.94 226.26 135.452C226.773 135.965 227.426 136.314 228.137 136.455C228.848 136.597 229.585 136.524 230.255 136.247C230.924 135.969 231.497 135.499 231.9 134.896C232.302 134.294 232.517 133.585 232.517 132.86C232.515 131.889 232.129 130.958 231.442 130.271C230.755 129.584 229.823 129.198 228.852 129.197V129.195Z" fill="#938BC9"/>
<path d="M228.739 125.516V135.983C228.732 138.221 227.84 140.366 226.257 141.949C224.674 143.531 222.529 144.423 220.291 144.43V144.43C218.052 144.423 215.907 143.531 214.325 141.949C212.742 140.366 211.849 138.221 211.843 135.983V125.516H228.739Z" fill="#C1B7FF"/>
<path d="M228.373 143.279H212.206C211.941 143.279 211.727 143.494 211.727 143.759V145.102C211.727 145.366 211.941 145.581 212.206 145.581H228.373C228.637 145.581 228.852 145.366 228.852 145.102V143.759C228.852 143.494 228.637 143.279 228.373 143.279Z" fill="#938BC9"/>
</svg>
