<svg width="344" height="371" viewBox="0 0 344 371" fill="none" xmlns="http://www.w3.org/2000/svg">
<path opacity="0.1" d="M177.689 370.414C212.845 370.414 241.345 361.868 241.345 351.326C241.345 340.783 212.845 332.237 177.689 332.237C142.534 332.237 114.034 340.783 114.034 351.326C114.034 361.868 142.534 370.414 177.689 370.414Z" fill="#C1B7FF"/>
<path d="M341.605 180.56H2.58363C1.47906 180.56 0.583633 181.455 0.583633 182.56V186.152C0.583633 187.256 1.47906 188.152 2.58363 188.152H341.605C342.709 188.152 343.605 187.256 343.605 186.152V182.56C343.605 181.455 342.709 180.56 341.605 180.56Z" fill="#1A1D88"/>
<path d="M287.869 0.951508H61.2342C59.3951 0.951508 57.9043 2.44236 57.9043 4.28142V156.664C57.9043 158.503 59.3951 159.994 61.2342 159.994H287.869C289.708 159.994 291.199 158.503 291.199 156.664V4.28142C291.199 2.44236 289.708 0.951508 287.869 0.951508Z" fill="#C6E6FF"/>
<path d="M284.662 0.739838H64.4434C62.7099 0.740012 61.0474 1.42873 59.8216 2.65453C58.5958 3.88032 57.9071 5.54281 57.9069 7.27635V143.501H291.199V7.27108C291.197 5.53846 290.508 3.87732 289.282 2.65266C288.056 1.42801 286.395 0.740012 284.662 0.739838Z" fill="#53AAEE"/>
<path d="M282.132 10.9241H66.9709V138.274H282.132V10.9241Z" fill="#191622"/>
<path d="M219.104 27.087H95.9306C95.5074 27.087 95.1644 27.4301 95.1644 27.8532V29.3303C95.1644 29.7534 95.5074 30.0965 95.9306 30.0965H219.104C219.527 30.0965 219.87 29.7534 219.87 29.3303V27.8532C219.87 27.4301 219.527 27.087 219.104 27.087Z" fill="#80FFFF"/>
<path d="M154.422 17.034H75.0266C74.4833 17.034 74.0428 17.4745 74.0428 18.0178V19.9135C74.0428 20.4569 74.4833 20.8974 75.0266 20.8974H154.422C154.965 20.8974 155.405 20.4569 155.405 19.9135V18.0178C155.405 17.4745 154.965 17.034 154.422 17.034Z" fill="#C1B7FF"/>
<path d="M84.0998 27.087H74.809C74.3859 27.087 74.0428 27.4301 74.0428 27.8532V29.3303C74.0428 29.7534 74.3859 30.0965 74.809 30.0965H84.0998C84.523 30.0965 84.866 29.7534 84.866 29.3303V27.8532C84.866 27.4301 84.523 27.087 84.0998 27.087Z" fill="#C1B7FF"/>
<path d="M139.361 36.4754H75.7816C75.5183 36.4754 75.3049 36.6888 75.3049 36.9521V37.8694C75.3049 38.1326 75.5183 38.3461 75.7816 38.3461H139.361C139.624 38.3461 139.837 38.1326 139.837 37.8694V36.9521C139.837 36.6888 139.624 36.4754 139.361 36.4754Z" fill="#DBFF0E"/>
<path d="M139.361 44.0947H75.7816C75.5183 44.0947 75.3049 44.3081 75.3049 44.5714V45.4886C75.3049 45.7519 75.5183 45.9654 75.7816 45.9654H139.361C139.624 45.9654 139.837 45.7519 139.837 45.4886V44.5714C139.837 44.3081 139.624 44.0947 139.361 44.0947Z" fill="#DBFF0E"/>
<path d="M139.361 51.7145H75.7816C75.5183 51.7145 75.3049 51.928 75.3049 52.1913V53.1085C75.3049 53.3718 75.5183 53.5852 75.7816 53.5852H139.361C139.624 53.5852 139.837 53.3718 139.837 53.1085V52.1913C139.837 51.928 139.624 51.7145 139.361 51.7145Z" fill="#DBFF0E"/>
<path d="M139.361 59.3338H75.7816C75.5183 59.3338 75.3049 59.5472 75.3049 59.8105V60.7277C75.3049 60.991 75.5183 61.2045 75.7816 61.2045H139.361C139.624 61.2045 139.837 60.991 139.837 60.7277V59.8105C139.837 59.5472 139.624 59.3338 139.361 59.3338Z" fill="#DBFF0E"/>
<path d="M86.2586 66.953H75.7816C75.5183 66.953 75.3049 67.1664 75.3049 67.4297V68.347C75.3049 68.6102 75.5183 68.8237 75.7816 68.8237H86.2586C86.5219 68.8237 86.7354 68.6102 86.7354 68.347V67.4297C86.7354 67.1664 86.5219 66.953 86.2586 66.953Z" fill="#DBFF0E"/>
<path d="M102.946 66.953H92.4694C92.2061 66.953 91.9927 67.1664 91.9927 67.4297V68.347C91.9927 68.6102 92.2061 68.8237 92.4694 68.8237H102.946C103.21 68.8237 103.423 68.6102 103.423 68.347V67.4297C103.423 67.1664 103.21 66.953 102.946 66.953Z" fill="#DBFF0E"/>
<path d="M119.634 66.953H109.157C108.893 66.953 108.68 67.1664 108.68 67.4297V68.347C108.68 68.6102 108.893 68.8237 109.157 68.8237H119.634C119.897 68.8237 120.11 68.6102 120.11 68.347V67.4297C120.11 67.1664 119.897 66.953 119.634 66.953Z" fill="#DBFF0E"/>
<path d="M136.321 66.953H125.844C125.581 66.953 125.368 67.1664 125.368 67.4297V68.347C125.368 68.6102 125.581 68.8237 125.844 68.8237H136.321C136.585 68.8237 136.798 68.6102 136.798 68.347V67.4297C136.798 67.1664 136.585 66.953 136.321 66.953Z" fill="#DBFF0E"/>
<path d="M153.009 66.953H142.532C142.269 66.953 142.055 67.1664 142.055 67.4297V68.347C142.055 68.6102 142.269 68.8237 142.532 68.8237H153.009C153.272 68.8237 153.486 68.6102 153.486 68.347V67.4297C153.486 67.1664 153.272 66.953 153.009 66.953Z" fill="#DBFF0E"/>
<path d="M169.697 66.953H159.22C158.957 66.953 158.743 67.1664 158.743 67.4297V68.347C158.743 68.6102 158.957 68.8237 159.22 68.8237H169.697C169.96 68.8237 170.174 68.6102 170.174 68.347V67.4297C170.174 67.1664 169.96 66.953 169.697 66.953Z" fill="#DBFF0E"/>
<path d="M139.361 74.5729H75.7816C75.5183 74.5729 75.3049 74.7863 75.3049 75.0496V75.9669C75.3049 76.2301 75.5183 76.4436 75.7816 76.4436H139.361C139.624 76.4436 139.837 76.2301 139.837 75.9669V75.0496C139.837 74.7863 139.624 74.5729 139.361 74.5729Z" fill="#DBFF0E"/>
<path d="M268.403 48.5H190.267C189.9 48.5 189.603 48.7973 189.603 49.164V50.4439C189.603 50.8106 189.9 51.1079 190.267 51.1079H268.403C268.77 51.1079 269.067 50.8106 269.067 50.4439V49.164C269.067 48.7973 268.77 48.5 268.403 48.5Z" fill="#FF551F"/>
<path d="M268.403 59.9008H190.267C189.9 59.9008 189.603 60.1981 189.603 60.5649V61.8447C189.603 62.2114 189.9 62.5087 190.267 62.5087H268.403C268.77 62.5087 269.067 62.2114 269.067 61.8447V60.5649C269.067 60.1981 268.77 59.9008 268.403 59.9008Z" fill="#FF2995"/>
<path d="M268.403 70.577H190.267C189.9 70.577 189.603 70.8743 189.603 71.241V72.5209C189.603 72.8876 189.9 73.1849 190.267 73.1849H268.403C268.77 73.1849 269.067 72.8876 269.067 72.5209V71.241C269.067 70.8743 268.77 70.577 268.403 70.577Z" fill="#FF2995"/>
<path d="M268.403 81.2532H190.267C189.9 81.2532 189.603 81.5505 189.603 81.9172V83.1971C189.603 83.5638 189.9 83.8611 190.267 83.8611H268.403C268.77 83.8611 269.067 83.5638 269.067 83.1971V81.9172C269.067 81.5505 268.77 81.2532 268.403 81.2532Z" fill="#FF2995"/>
<path d="M268.403 91.9294H190.267C189.9 91.9294 189.603 92.2266 189.603 92.5934V93.8732C189.603 94.2399 189.9 94.5372 190.267 94.5372H268.403C268.77 94.5372 269.067 94.2399 269.067 93.8732V92.5934C269.067 92.2266 268.77 91.9294 268.403 91.9294Z" fill="#FF2995"/>
<path d="M231.037 102.605H190.267C189.9 102.605 189.603 102.903 189.603 103.269V104.549C189.603 104.916 189.9 105.213 190.267 105.213H231.037C231.403 105.213 231.701 104.916 231.701 104.549V103.269C231.701 102.903 231.403 102.605 231.037 102.605Z" fill="#FF2995"/>
<path d="M256.857 109.872H216.087C215.72 109.872 215.423 110.169 215.423 110.536V111.816C215.423 112.183 215.72 112.48 216.087 112.48H256.857C257.224 112.48 257.521 112.183 257.521 111.816V110.536C257.521 110.169 257.224 109.872 256.857 109.872Z" fill="#FF2995"/>
<path d="M256.857 117.399H216.087C215.72 117.399 215.423 117.696 215.423 118.063V119.343C215.423 119.709 215.72 120.007 216.087 120.007H256.857C257.224 120.007 257.521 119.709 257.521 119.343V118.063C257.521 117.696 257.224 117.399 256.857 117.399Z" fill="#FF2995"/>
<path d="M105.008 117.399H85.321C84.9543 117.399 84.657 117.696 84.657 118.063V119.343C84.657 119.709 84.9543 120.007 85.321 120.007H105.008C105.375 120.007 105.672 119.709 105.672 119.343V118.063C105.672 117.696 105.375 117.399 105.008 117.399Z" fill="#FF2995"/>
<path d="M105.008 111.176H85.321C84.9543 111.176 84.657 111.473 84.657 111.84V113.12C84.657 113.487 84.9543 113.784 85.321 113.784H105.008C105.375 113.784 105.672 113.487 105.672 113.12V111.84C105.672 111.473 105.375 111.176 105.008 111.176Z" fill="#FF2995"/>
<path d="M105.008 104.954H85.321C84.9543 104.954 84.657 105.251 84.657 105.618V106.897C84.657 107.264 84.9543 107.561 85.321 107.561H105.008C105.375 107.561 105.672 107.264 105.672 106.897V105.618C105.672 105.251 105.375 104.954 105.008 104.954Z" fill="#FF2995"/>
<path d="M105.008 98.731H85.321C84.9543 98.731 84.657 99.0282 84.657 99.395V100.675C84.657 101.042 84.9543 101.339 85.321 101.339H105.008C105.375 101.339 105.672 101.042 105.672 100.675V99.395C105.672 99.0282 105.375 98.731 105.008 98.731Z" fill="#FF2995"/>
<path d="M122.394 98.731H115.524C115.158 98.731 114.86 99.0282 114.86 99.395V100.675C114.86 101.042 115.158 101.339 115.524 101.339H122.394C122.761 101.339 123.058 101.042 123.058 100.675V99.395C123.058 99.0282 122.761 98.731 122.394 98.731Z" fill="#FF2995"/>
<path d="M122.394 112.49H115.524C115.158 112.49 114.86 112.788 114.86 113.154V114.434C114.86 114.801 115.158 115.098 115.524 115.098H122.394C122.761 115.098 123.058 114.801 123.058 114.434V113.154C123.058 112.788 122.761 112.49 122.394 112.49Z" fill="#FF2995"/>
<g opacity="0.17">
<path opacity="0.17" d="M282.132 91.6906V68.8422L212.698 138.276H235.547L282.132 91.6906Z" fill="#479EE8"/>
<path opacity="0.17" d="M162.59 138.274L282.132 18.7326V10.9241H228.968L101.618 138.274H162.59Z" fill="#479EE8"/>
<path opacity="0.17" d="M66.9709 66.3081V117.773L173.82 10.9241H122.355L66.9709 66.3081Z" fill="#479EE8"/>
</g>
<path d="M187.226 105.804H163.319V123.799H187.226V105.804Z" fill="#FEB187"/>
<path d="M163.319 119.91C163.319 119.91 173.931 124.665 187.226 119.91V125.143L180.653 126.344L175.273 127.438L163.32 123.489L163.319 119.91Z" fill="#F88B65"/>
<path d="M209.224 214.821H141.158C138.008 214.821 135.455 217.374 135.455 220.524V242.555C135.455 245.705 138.008 248.258 141.158 248.258H209.224C212.374 248.258 214.927 245.705 214.927 242.555V220.524C214.927 217.374 212.374 214.821 209.224 214.821Z" fill="#7362FF"/>
<path d="M214.584 235.309C173.575 247.405 135.799 235.219 135.779 235.212C136.533 238.887 138.528 242.191 141.431 244.567C144.334 246.943 147.966 248.247 151.717 248.259H198.666C202.4 248.247 206.017 246.955 208.914 244.598C211.811 242.242 213.812 238.963 214.584 235.309Z" fill="#4A3FFB"/>
<path d="M179.143 52.5137L195.835 35.8233C197.05 38.4573 197.63 41.3397 197.528 44.2387C197.425 47.1376 196.644 49.972 195.246 52.5137L202.131 45.6284C202.131 45.6284 205.23 54.9146 198.946 59.9978L204.631 54.3138C204.631 54.3138 208.209 64.87 195.02 72.9666L179.143 52.5137Z" fill="#3E211D"/>
<path d="M192.801 70.1062L198.059 70.7959L198.099 70.7636C198.14 70.3521 199.488 55.7955 182.768 48.8877L179.141 52.5144L192.801 70.1062Z" fill="#291311"/>
<path d="M195.298 95.4537C199.395 95.4537 202.717 92.1322 202.717 88.035C202.717 83.9377 199.395 80.6162 195.298 80.6162C191.2 80.6162 187.879 83.9377 187.879 88.035C187.879 92.1322 191.2 95.4537 195.298 95.4537Z" fill="#FEB187"/>
<path d="M155.405 95.4537C159.503 95.4537 162.824 92.1322 162.824 88.035C162.824 83.9377 159.503 80.6162 155.405 80.6162C151.308 80.6162 147.987 83.9377 147.987 88.035C147.987 92.1322 151.308 95.4537 155.405 95.4537Z" fill="#FEB187"/>
<path d="M186.581 52.2038H163.963C157.478 52.2038 152.221 57.461 152.221 63.9462V104.726C152.221 111.211 157.478 116.468 163.963 116.468H186.581C193.066 116.468 198.324 111.211 198.324 104.726V63.9462C198.324 57.461 193.066 52.2038 186.581 52.2038Z" fill="#3E211D"/>
<path d="M156.926 89.8384V95.4537L159.761 92.6184L162.104 94.9605L164.333 92.7311L166.4 94.7983V88.3409L165.675 92.2887L164.356 90.8552L162.114 93.4314L159.713 90.807L157.988 92.6889L156.926 89.8384Z" fill="#291311"/>
<path d="M167.772 79.6047V86.8052L171.407 83.17L174.41 86.1735L177.269 83.3144L179.92 85.9651V77.6845L178.988 82.7467L177.293 80.9083L174.421 84.2118L171.347 80.849L169.136 83.2617L167.772 79.6047Z" fill="#291311"/>
<path d="M185.815 96.6512V101.142L188.082 98.8753L189.955 100.748L191.736 98.9676L193.389 100.621V95.4564L192.807 98.6135L191.752 97.4669L189.961 99.5268L188.044 97.4306L186.664 98.9353L185.815 96.6512Z" fill="#291311"/>
<path d="M170.414 113.691V119.705L172.096 118.023L173.931 119.858L175.662 118.127L177.446 119.911V113.691H170.414Z" fill="#291311"/>
<path d="M176.567 113.245L177.446 118.333L178.838 116.937L180.359 118.458L181.793 117.024L183.271 118.502V113.348L176.567 113.245Z" fill="#291311"/>
<path d="M164.588 113.348V118.331L165.981 116.938L167.502 118.458L168.936 117.024L170.414 118.503L170.953 113.243L164.588 113.348Z" fill="#291311"/>
<path d="M160.412 58.921L155.256 53.7659V58.921H150.4L154.039 62.5595H150.4L154.339 66.498H160.412L160.412 58.921Z" fill="#291311"/>
<path d="M121.564 169.879L118.977 185.95H134.16V167.872L123.412 165.626" fill="#FEB187"/>
<path d="M131.407 173.152H121.037L121.564 169.879L131.407 173.152Z" fill="#DC9266"/>
<path d="M148.448 128.583C137.576 133.903 127.902 135.529 115.695 167.927L134.178 174.073C134.178 174.073 146.348 143.786 148.448 128.583Z" fill="#1A1D88"/>
<path d="M227.72 169.879L230.307 185.95H215.124V167.872L225.872 165.626" fill="#FEB187"/>
<path d="M217.877 173.152H228.249L227.722 169.879L217.877 173.152Z" fill="#DC9266"/>
<path d="M200.833 128.583C211.705 133.903 221.378 135.529 233.585 167.927L215.102 174.073C215.102 174.073 202.935 143.786 200.833 128.583Z" fill="#1A1D88"/>
<path d="M180.583 235.212H168.653C148.317 235.212 135.693 225.582 135.693 203.209L131.68 159.503C131.708 149.706 135.613 140.318 142.54 133.39C149.468 126.463 158.855 122.558 168.653 122.529H180.584C190.381 122.558 199.769 126.462 206.696 133.39C213.624 140.318 217.529 149.706 217.557 159.503L211.233 200.571C211.233 226.39 200.918 235.212 180.583 235.212Z" fill="#1A1D88"/>
<path d="M204.839 131.702C181.157 135.405 149.613 132.24 144.426 131.676C139.04 136.361 135.121 142.5 133.137 149.357L136.816 149.741L151.784 151.851L170.956 154.86L188.643 155.981L208.969 153.739L215.505 147.5C213.384 141.396 209.708 135.951 204.839 131.702Z" fill="#1A1D88"/>
<path d="M146.891 347.079C146.891 350.365 151.514 349.867 157.215 349.867C162.917 349.867 167.54 350.365 167.54 347.079C167.54 343.793 162.917 341.127 157.215 341.127C151.514 341.127 146.891 343.793 146.891 347.079Z" fill="#1A1D88"/>
<path d="M140.307 248.257L157.012 345.509C160.429 346.573 164.088 346.573 167.504 345.509V271.674L140.307 248.257Z" fill="#7362FF"/>
<path d="M167.504 273.305L166.614 271.674L165.632 271.532L143.608 269.257L146.854 286.389C149.558 286.525 161.778 280.89 167.313 295.027L167.502 294.047L167.504 273.305Z" fill="#4A3FFB"/>
<path d="M203.53 347.079C203.53 350.365 198.909 349.867 193.208 349.867C187.506 349.867 182.883 350.365 182.883 347.079C182.883 343.793 187.506 341.127 193.208 341.127C198.909 341.127 203.53 343.793 203.53 347.079Z" fill="#1A1D88"/>
<path d="M210.116 248.256L193.411 345.512C189.994 346.576 186.334 346.576 182.918 345.512V271.674L210.116 248.256Z" fill="#7362FF"/>
<path d="M182.918 273.305L183.809 271.674L184.791 271.532L206.815 269.257L203.57 286.389C200.866 286.525 188.647 280.89 183.112 295.027L182.921 294.047L182.918 273.305Z" fill="#4A3FFB"/>
<path d="M172.543 268.45V333.033C172.543 333.546 172.959 333.962 173.472 333.962H176.911C177.424 333.962 177.84 333.546 177.84 333.033V268.45C177.84 267.936 177.424 267.52 176.911 267.52H173.472C172.959 267.52 172.543 267.936 172.543 268.45Z" fill="#2273DB"/>
<path d="M170.93 265.693H180.33C181.271 265.693 182.173 266.067 182.839 266.733C183.504 267.398 183.878 268.3 183.878 269.241V293.496C183.878 294.669 183.412 295.795 182.582 296.625C181.752 297.455 180.626 297.921 179.453 297.921H170.93C169.756 297.921 168.631 297.455 167.801 296.625C166.971 295.795 166.505 294.669 166.505 293.496V270.118C166.505 268.945 166.971 267.819 167.801 266.989C168.631 266.16 169.756 265.693 170.93 265.693V265.693Z" fill="#22A4FD"/>
<g style="mix-blend-mode:multiply" opacity="0.65">
<path d="M183.878 274.625C181.149 273.416 178.197 272.792 175.212 272.792C172.227 272.792 169.275 273.416 166.545 274.625V268.442C169.274 267.233 172.227 266.608 175.212 266.608C178.197 266.608 181.149 267.233 183.878 268.442V274.625Z" fill="#1A1D88"/>
</g>
<path d="M135.425 249.484H124.396C117.444 249.482 110.766 246.768 105.785 241.919C100.803 237.069 97.91 230.468 97.7214 223.518C97.5328 216.568 100.063 209.82 104.775 204.707C109.486 199.595 116.006 196.523 122.948 196.144C123.108 196.119 123.268 196.106 123.43 196.105H124.395C125.184 196.105 125.942 196.419 126.5 196.977C127.058 197.535 127.372 198.292 127.372 199.082C127.372 199.871 127.058 200.628 126.5 201.187C125.942 201.745 125.184 202.058 124.395 202.058C118.895 202.058 113.621 204.243 109.732 208.132C105.844 212.021 103.659 217.295 103.659 222.794C103.659 228.294 105.844 233.568 109.732 237.457C113.621 241.346 118.895 243.531 124.395 243.531H135.423C136.213 243.531 136.97 243.844 137.528 244.402C138.086 244.961 138.4 245.718 138.4 246.507C138.4 247.297 138.086 248.054 137.528 248.612C136.97 249.17 136.213 249.484 135.423 249.484H135.425Z" fill="#1A1D88"/>
<path d="M129.647 193.141H115.165C113.766 193.141 112.631 194.275 112.631 195.675V200.555C112.631 201.954 113.766 203.089 115.165 203.089H129.647C131.046 203.089 132.181 201.954 132.181 200.555V195.675C132.181 194.275 131.046 193.141 129.647 193.141Z" fill="#C1B7FF"/>
<path d="M117.605 193.713H127.206C128.472 193.719 129.688 194.207 130.607 195.078C131.526 195.949 132.078 197.137 132.151 198.401C132.157 198.305 132.18 198.213 132.18 198.115C132.176 196.797 131.65 195.534 130.718 194.602C129.786 193.671 128.523 193.145 127.205 193.142H117.605C116.287 193.145 115.024 193.671 114.092 194.602C113.16 195.534 112.634 196.797 112.63 198.115C112.63 198.213 112.653 198.305 112.66 198.401C112.733 197.137 113.285 195.948 114.204 195.077C115.123 194.206 116.339 193.718 117.605 193.713Z" fill="#E6E2FF"/>
<path d="M213.678 249.484H224.706C231.659 249.482 238.336 246.768 243.318 241.919C248.299 237.069 251.192 230.468 251.381 223.518C251.569 216.568 249.039 209.82 244.327 204.707C239.616 199.595 233.096 196.523 226.154 196.144C225.995 196.119 225.834 196.106 225.672 196.105H224.707C223.918 196.105 223.161 196.419 222.602 196.977C222.044 197.535 221.731 198.292 221.731 199.082C221.731 199.871 222.044 200.628 222.602 201.187C223.161 201.745 223.918 202.058 224.707 202.058C230.207 202.058 235.481 204.243 239.37 208.132C243.259 212.021 245.443 217.295 245.443 222.794C245.443 228.294 243.259 233.568 239.37 237.457C235.481 241.346 230.207 243.531 224.707 243.531H213.678C212.889 243.531 212.132 243.844 211.574 244.402C211.015 244.961 210.702 245.718 210.702 246.507C210.702 247.297 211.015 248.054 211.574 248.612C212.132 249.17 212.889 249.484 213.678 249.484Z" fill="#1A1D88"/>
<path d="M219.456 203.089H233.937C235.337 203.089 236.471 201.954 236.471 200.555V195.675C236.471 194.275 235.337 193.141 233.937 193.141H219.456C218.056 193.141 216.922 194.275 216.922 195.675V200.555C216.922 201.954 218.056 203.089 219.456 203.089Z" fill="#C1B7FF"/>
<path d="M231.497 193.713H221.897C220.631 193.719 219.414 194.207 218.496 195.078C217.577 195.949 217.025 197.137 216.951 198.401C216.946 198.305 216.923 198.213 216.923 198.115C216.927 196.797 217.452 195.534 218.384 194.602C219.316 193.671 220.579 193.145 221.897 193.142H231.498C232.816 193.146 234.079 193.671 235.011 194.603C235.943 195.534 236.468 196.797 236.472 198.115C236.472 198.213 236.449 198.305 236.443 198.401C236.37 197.137 235.817 195.948 234.899 195.077C233.98 194.206 232.763 193.718 231.497 193.713Z" fill="#E6E2FF"/>
<path d="M224.127 241.083H126.256C122.89 241.083 120.162 243.811 120.162 247.177V258.915C120.162 262.28 122.89 265.009 126.256 265.009H224.127C227.493 265.009 230.221 262.28 230.221 258.915V247.177C230.221 243.811 227.493 241.083 224.127 241.083Z" fill="#C1B7FF"/>
<path d="M132.125 242.203H218.258C221.329 242.214 224.28 243.403 226.5 245.524C228.721 247.646 230.043 250.539 230.193 253.606C230.202 253.419 230.222 253.235 230.222 253.046C230.212 249.876 228.948 246.839 226.707 244.597C224.465 242.356 221.428 241.092 218.258 241.082H132.125C128.956 241.092 125.919 242.356 123.677 244.597C121.436 246.838 120.172 249.874 120.162 253.044C120.162 253.233 120.181 253.418 120.19 253.604C120.341 250.537 121.663 247.644 123.884 245.523C126.104 243.402 129.054 242.214 132.125 242.203Z" fill="#70FFE7"/>
<path d="M189.787 230.373H158.715C152.737 230.355 147.008 227.972 142.781 223.745C138.553 219.518 136.171 213.789 136.153 207.811L130.513 158.986C130.531 153.008 132.914 147.28 137.141 143.052C141.368 138.825 147.097 136.442 153.075 136.425H197.308C203.287 136.442 209.015 138.825 213.242 143.052C217.47 147.28 219.852 153.008 219.87 158.986L212.35 207.811C212.332 213.789 209.95 219.518 205.722 223.746C201.495 227.973 195.766 230.355 189.787 230.373Z" fill="#C1B7FF"/>
<path d="M153.075 137.374H197.308C203.169 137.394 208.793 139.688 212.995 143.773C217.198 147.858 219.65 153.415 219.836 159.273L219.87 158.986C219.852 153.008 217.47 147.28 213.242 143.052C209.015 138.825 203.287 136.442 197.308 136.425H153.075C147.097 136.442 141.368 138.825 137.14 143.052C132.913 147.279 130.53 153.008 130.512 158.986L130.543 159.333C130.714 153.464 133.16 147.892 137.365 143.794C141.57 139.696 147.204 137.393 153.075 137.374Z" fill="#E6E2FF"/>
<path d="M134.598 258.934H215.786C216.5 258.934 217.186 259.218 217.691 259.724C218.196 260.229 218.48 260.915 218.48 261.629V266.822C218.48 267.536 218.196 268.222 217.69 268.728C217.185 269.233 216.499 269.517 215.784 269.517H134.598C133.883 269.517 133.197 269.233 132.692 268.728C132.186 268.222 131.902 267.536 131.902 266.822V261.629C131.902 260.915 132.186 260.229 132.692 259.723C133.197 259.218 133.883 258.934 134.598 258.934Z" fill="#1A1D88"/>
<path d="M196.375 269.334H154.008C152.983 269.334 152.152 270.165 152.152 271.189V278.061C152.152 279.086 152.983 279.917 154.008 279.917H196.375C197.399 279.917 198.23 279.086 198.23 278.061V271.189C198.23 270.165 197.399 269.334 196.375 269.334Z" fill="#1A1D88"/>
<path d="M137.194 259.272H213.189C214.56 259.277 215.876 259.814 216.86 260.769C217.844 261.725 218.419 263.024 218.464 264.395C218.464 264.337 218.481 264.284 218.481 264.225C218.477 262.823 217.918 261.48 216.927 260.489C215.935 259.497 214.592 258.938 213.19 258.934H137.194C135.792 258.938 134.448 259.497 133.456 260.488C132.465 261.48 131.906 262.823 131.902 264.225C131.902 264.284 131.918 264.337 131.919 264.395C131.965 263.024 132.539 261.725 133.523 260.769C134.507 259.814 135.822 259.277 137.194 259.272Z" fill="#2293F0"/>
<path d="M209.883 267.089H140.5C139.755 267.089 139.151 267.693 139.151 268.438V271.036C139.151 271.781 139.755 272.385 140.5 272.385H209.883C210.629 272.385 211.233 271.781 211.233 271.036V268.438C211.233 267.693 210.629 267.089 209.883 267.089Z" fill="#2273DB"/>
<path d="M141.799 267.259H208.584C209.27 267.263 209.927 267.531 210.419 268.009C210.911 268.487 211.199 269.137 211.221 269.822C211.221 269.794 211.231 269.767 211.231 269.737C211.228 269.035 210.949 268.363 210.452 267.867C209.956 267.371 209.284 267.091 208.582 267.089H141.799C141.097 267.091 140.425 267.37 139.929 267.867C139.433 268.363 139.153 269.035 139.151 269.737C139.151 269.766 139.159 269.793 139.159 269.822C139.182 269.137 139.47 268.487 139.962 268.009C140.455 267.531 141.113 267.262 141.799 267.259Z" fill="#22B2FF"/>
<path d="M170.374 338.078V329.849C170.377 328.572 170.886 327.349 171.789 326.446C172.692 325.543 173.915 325.035 175.192 325.031C176.468 325.035 177.691 325.544 178.594 326.446C179.497 327.349 180.005 328.572 180.009 329.849V338.078" fill="#22A4FD"/>
<path d="M139.163 347.001C138.733 347.002 138.316 346.854 137.981 346.585C137.647 346.315 137.415 345.938 137.324 345.518C137.233 345.098 137.289 344.659 137.483 344.275C137.676 343.891 137.996 343.585 138.387 343.408C150.258 338.049 163.133 335.278 176.158 335.278C189.182 335.278 202.057 338.049 213.928 343.408C214.383 343.613 214.737 343.991 214.914 344.457C215.09 344.924 215.074 345.441 214.869 345.896C214.664 346.351 214.287 346.705 213.82 346.882C213.353 347.058 212.836 347.042 212.381 346.837C200.996 341.699 188.649 339.042 176.158 339.042C163.667 339.042 151.32 341.699 139.935 346.837C139.692 346.946 139.429 347.002 139.163 347.001Z" fill="#2273DB"/>
<path d="M182.787 333.962H168.349C167.747 333.962 167.258 334.45 167.258 335.053V339.096C167.258 339.698 167.747 340.187 168.349 340.187H182.787C183.389 340.187 183.878 339.698 183.878 339.096V335.053C183.878 334.45 183.389 333.962 182.787 333.962Z" fill="#1A1D88"/>
<path d="M176.214 337.074H174.915C174.543 337.074 174.241 337.376 174.241 337.748V353.089C174.241 353.461 174.543 353.763 174.915 353.763H176.214C176.586 353.763 176.888 353.461 176.888 353.089V337.748C176.888 337.376 176.586 337.074 176.214 337.074Z" fill="#2273DB"/>
<path d="M177.328 348.329H173.808C172.799 348.329 171.98 349.147 171.98 350.156V360.459C171.98 361.469 172.799 362.287 173.808 362.287H177.328C178.338 362.287 179.156 361.469 179.156 360.459V350.156C179.156 349.147 178.338 348.329 177.328 348.329Z" fill="#C1B7FF"/>
<path d="M216.403 355.891C220.144 355.891 223.176 352.859 223.176 349.118C223.176 345.378 220.144 342.346 216.403 342.346C212.663 342.346 209.631 345.378 209.631 349.118C209.631 352.859 212.663 355.891 216.403 355.891Z" fill="#C1B7FF"/>
<path d="M216.402 342.517C218.182 342.518 219.891 343.22 221.157 344.472C222.423 345.724 223.145 347.424 223.166 349.204C223.166 349.175 223.175 349.148 223.175 349.117C223.175 348.228 223 347.347 222.659 346.525C222.319 345.704 221.82 344.957 221.191 344.328C220.562 343.699 219.816 343.201 218.994 342.86C218.172 342.52 217.292 342.345 216.402 342.345C215.513 342.345 214.632 342.52 213.81 342.86C212.989 343.201 212.242 343.699 211.613 344.328C210.984 344.957 210.485 345.704 210.145 346.525C209.805 347.347 209.63 348.228 209.63 349.117C209.63 349.147 209.639 349.174 209.639 349.204C209.66 347.424 210.382 345.724 211.648 344.473C212.914 343.221 214.622 342.519 216.402 342.517Z" fill="#77FFFF"/>
<path d="M216.402 353.157C218.633 353.157 220.441 351.348 220.441 349.118C220.441 346.887 218.633 345.079 216.402 345.079C214.172 345.079 212.363 346.887 212.363 349.118C212.363 351.348 214.172 353.157 216.402 353.157Z" fill="#27B0D7"/>
<path d="M216.402 350.739C217.298 350.739 218.024 350.013 218.024 349.118C218.024 348.222 217.298 347.496 216.402 347.496C215.507 347.496 214.781 348.222 214.781 349.118C214.781 350.013 215.507 350.739 216.402 350.739Z" fill="#2273DB"/>
<path d="M216.402 347.583C216.824 347.584 217.228 347.749 217.529 348.044C217.831 348.339 218.005 348.739 218.015 349.161C218.015 349.146 218.024 349.134 218.024 349.118C218.016 348.694 217.841 348.29 217.538 347.993C217.235 347.695 216.827 347.529 216.403 347.529C215.979 347.529 215.571 347.695 215.268 347.993C214.965 348.29 214.791 348.694 214.782 349.118C214.782 349.134 214.79 349.146 214.79 349.161C214.8 348.739 214.974 348.339 215.275 348.044C215.576 347.749 215.981 347.584 216.402 347.583Z" fill="#5FFFFF"/>
<path d="M137.281 355.89C141.021 355.89 144.053 352.858 144.053 349.118C144.053 345.378 141.021 342.345 137.281 342.345C133.54 342.345 130.508 345.378 130.508 349.118C130.508 352.858 133.54 355.89 137.281 355.89Z" fill="#C1B7FF"/>
<path d="M137.281 342.517C139.061 342.518 140.769 343.221 142.035 344.472C143.301 345.724 144.022 347.424 144.043 349.204C144.043 349.175 144.053 349.148 144.053 349.117C144.062 348.222 143.893 347.334 143.557 346.505C143.22 345.676 142.723 344.921 142.093 344.285C141.463 343.649 140.714 343.144 139.888 342.8C139.062 342.455 138.175 342.278 137.28 342.278C136.385 342.278 135.499 342.455 134.673 342.8C133.847 343.144 133.098 343.649 132.468 344.285C131.838 344.921 131.341 345.676 131.004 346.505C130.668 347.334 130.499 348.222 130.508 349.117C130.508 349.147 130.517 349.174 130.517 349.204C130.539 347.424 131.261 345.724 132.527 344.473C133.792 343.221 135.501 342.519 137.281 342.517Z" fill="#77FFFF"/>
<path d="M137.281 353.157C139.511 353.157 141.32 351.348 141.32 349.118C141.32 346.887 139.511 345.079 137.281 345.079C135.05 345.079 133.242 346.887 133.242 349.118C133.242 351.348 135.05 353.157 137.281 353.157Z" fill="#27B0D7"/>
<path d="M137.281 350.739C138.176 350.739 138.902 350.013 138.902 349.118C138.902 348.222 138.176 347.496 137.281 347.496C136.385 347.496 135.659 348.222 135.659 349.118C135.659 350.013 136.385 350.739 137.281 350.739Z" fill="#2273DB"/>
<path d="M137.281 347.583C137.702 347.584 138.107 347.749 138.408 348.044C138.709 348.339 138.884 348.739 138.894 349.161C138.894 349.146 138.903 349.134 138.903 349.118C138.894 348.694 138.72 348.29 138.417 347.993C138.114 347.696 137.706 347.529 137.282 347.529C136.857 347.529 136.45 347.696 136.147 347.993C135.844 348.29 135.669 348.694 135.661 349.118C135.661 349.134 135.669 349.146 135.669 349.161C135.679 348.74 135.853 348.339 136.154 348.044C136.455 347.749 136.859 347.584 137.281 347.583Z" fill="#5FFFFF"/>
<path d="M192.602 167.451H157.78C154.672 167.451 152.152 169.971 152.152 173.079V183.919C152.152 187.027 154.672 189.547 157.78 189.547H192.602C195.71 189.547 198.23 187.027 198.23 183.919V173.079C198.23 169.971 195.71 167.451 192.602 167.451Z" fill="#1A1D88"/>
<path d="M187.183 167.451H163.2C160.272 167.459 157.467 168.625 155.397 170.696C153.326 172.766 152.16 175.571 152.152 178.499C152.152 178.561 152.16 178.62 152.161 178.682C152.217 175.787 153.403 173.03 155.466 170.999C157.529 168.968 160.305 167.826 163.2 167.816H187.183C190.077 167.826 192.854 168.968 194.917 170.999C196.98 173.03 198.166 175.787 198.221 178.682C198.221 178.621 198.231 178.561 198.231 178.499C198.223 175.571 197.056 172.766 194.986 170.696C192.916 168.625 190.11 167.459 187.183 167.451Z" fill="#226EE5"/>
<path d="M178.597 175.804H171.786C170.77 175.804 169.947 176.628 169.947 177.643V262.387C169.947 263.402 170.77 264.226 171.786 264.226H178.597C179.612 264.226 180.436 263.402 180.436 262.387V177.643C180.436 176.628 179.612 175.804 178.597 175.804Z" fill="#1A1D88"/>
<path d="M178.932 181.317H171.451C171.242 181.317 171.072 181.486 171.072 181.696V183.214C171.072 183.424 171.242 183.594 171.451 183.594H178.932C179.141 183.594 179.311 183.424 179.311 183.214V181.696C179.311 181.486 179.141 181.317 178.932 181.317Z" fill="#1159C9"/>
<path d="M178.932 181.317H171.451C171.242 181.317 171.072 181.486 171.072 181.696V183.098C171.072 183.308 171.242 183.477 171.451 183.477H178.932C179.141 183.477 179.311 183.308 179.311 183.098V181.696C179.311 181.486 179.141 181.317 178.932 181.317Z" fill="#111B54"/>
<path d="M178.932 187.583H171.451C171.242 187.583 171.072 187.753 171.072 187.963V189.481C171.072 189.691 171.242 189.86 171.451 189.86H178.932C179.141 189.86 179.311 189.691 179.311 189.481V187.963C179.311 187.753 179.141 187.583 178.932 187.583Z" fill="#1159C9"/>
<path d="M178.932 187.583H171.451C171.242 187.583 171.072 187.753 171.072 187.963V189.365C171.072 189.575 171.242 189.744 171.451 189.744H178.932C179.141 189.744 179.311 189.575 179.311 189.365V187.963C179.311 187.753 179.141 187.583 178.932 187.583Z" fill="#111B54"/>
<path d="M178.932 193.537H171.451C171.242 193.537 171.072 193.707 171.072 193.916V195.435C171.072 195.644 171.242 195.814 171.451 195.814H178.932C179.141 195.814 179.311 195.644 179.311 195.435V193.916C179.311 193.707 179.141 193.537 178.932 193.537Z" fill="#1159C9"/>
<path d="M178.932 193.537H171.451C171.242 193.537 171.072 193.707 171.072 193.916V195.319C171.072 195.528 171.242 195.698 171.451 195.698H178.932C179.141 195.698 179.311 195.528 179.311 195.319V193.916C179.311 193.707 179.141 193.537 178.932 193.537Z" fill="#111B54"/>
<path d="M178.932 199.491H171.451C171.242 199.491 171.072 199.66 171.072 199.87V201.388C171.072 201.598 171.242 201.768 171.451 201.768H178.932C179.141 201.768 179.311 201.598 179.311 201.388V199.87C179.311 199.66 179.141 199.491 178.932 199.491Z" fill="#1159C9"/>
<path d="M178.932 199.491H171.451C171.242 199.491 171.072 199.66 171.072 199.87V201.272C171.072 201.482 171.242 201.652 171.451 201.652H178.932C179.141 201.652 179.311 201.482 179.311 201.272V199.87C179.311 199.66 179.141 199.491 178.932 199.491Z" fill="#111B54"/>
<path d="M178.932 205.444H171.451C171.242 205.444 171.072 205.614 171.072 205.823V207.342C171.072 207.551 171.242 207.721 171.451 207.721H178.932C179.141 207.721 179.311 207.551 179.311 207.342V205.823C179.311 205.614 179.141 205.444 178.932 205.444Z" fill="#1159C9"/>
<path d="M178.932 205.444H171.451C171.242 205.444 171.072 205.614 171.072 205.823V207.226C171.072 207.435 171.242 207.605 171.451 207.605H178.932C179.141 207.605 179.311 207.435 179.311 207.226V205.823C179.311 205.614 179.141 205.444 178.932 205.444Z" fill="#111B54"/>
<path d="M178.932 211.398H171.451C171.242 211.398 171.072 211.568 171.072 211.777V213.296C171.072 213.505 171.242 213.675 171.451 213.675H178.932C179.141 213.675 179.311 213.505 179.311 213.296V211.777C179.311 211.568 179.141 211.398 178.932 211.398Z" fill="#1159C9"/>
<path d="M178.932 211.398H171.451C171.242 211.398 171.072 211.568 171.072 211.777V213.18C171.072 213.389 171.242 213.559 171.451 213.559H178.932C179.141 213.559 179.311 213.389 179.311 213.18V211.777C179.311 211.568 179.141 211.398 178.932 211.398Z" fill="#111B54"/>
<path d="M178.932 217.352H171.451C171.242 217.352 171.072 217.521 171.072 217.731V219.249C171.072 219.459 171.242 219.628 171.451 219.628H178.932C179.141 219.628 179.311 219.459 179.311 219.249V217.731C179.311 217.521 179.141 217.352 178.932 217.352Z" fill="#1159C9"/>
<path d="M178.932 217.352H171.451C171.242 217.352 171.072 217.521 171.072 217.731V219.133C171.072 219.343 171.242 219.512 171.451 219.512H178.932C179.141 219.512 179.311 219.343 179.311 219.133V217.731C179.311 217.521 179.141 217.352 178.932 217.352Z" fill="#111B54"/>
<path d="M178.932 223.305H171.451C171.242 223.305 171.072 223.475 171.072 223.684V225.203C171.072 225.412 171.242 225.582 171.451 225.582H178.932C179.141 225.582 179.311 225.412 179.311 225.203V223.684C179.311 223.475 179.141 223.305 178.932 223.305Z" fill="#1159C9"/>
<path d="M178.932 223.305H171.451C171.242 223.305 171.072 223.475 171.072 223.684V225.087C171.072 225.296 171.242 225.466 171.451 225.466H178.932C179.141 225.466 179.311 225.296 179.311 225.087V223.684C179.311 223.475 179.141 223.305 178.932 223.305Z" fill="#111B54"/>
<path d="M178.932 229.259H171.451C171.242 229.259 171.072 229.429 171.072 229.638V231.157C171.072 231.366 171.242 231.536 171.451 231.536H178.932C179.141 231.536 179.311 231.366 179.311 231.157V229.638C179.311 229.429 179.141 229.259 178.932 229.259Z" fill="#1159C9"/>
<path d="M178.932 229.259H171.451C171.242 229.259 171.072 229.429 171.072 229.638V231.04C171.072 231.25 171.242 231.42 171.451 231.42H178.932C179.141 231.42 179.311 231.25 179.311 231.04V229.638C179.311 229.429 179.141 229.259 178.932 229.259Z" fill="#111B54"/>
<path d="M178.932 235.212H171.451C171.242 235.212 171.072 235.382 171.072 235.592V237.11C171.072 237.32 171.242 237.489 171.451 237.489H178.932C179.141 237.489 179.311 237.32 179.311 237.11V235.592C179.311 235.382 179.141 235.212 178.932 235.212Z" fill="#1159C9"/>
<path d="M178.932 235.212H171.451C171.242 235.212 171.072 235.382 171.072 235.592V236.994C171.072 237.204 171.242 237.373 171.451 237.373H178.932C179.141 237.373 179.311 237.204 179.311 236.994V235.592C179.311 235.382 179.141 235.212 178.932 235.212Z" fill="#111B54"/>
<path d="M178.932 241.166H171.451C171.242 241.166 171.072 241.336 171.072 241.545V243.064C171.072 243.273 171.242 243.443 171.451 243.443H178.932C179.141 243.443 179.311 243.273 179.311 243.064V241.545C179.311 241.336 179.141 241.166 178.932 241.166Z" fill="#1159C9"/>
<path d="M178.932 241.166H171.451C171.242 241.166 171.072 241.336 171.072 241.545V242.948C171.072 243.157 171.242 243.327 171.451 243.327H178.932C179.141 243.327 179.311 243.157 179.311 242.948V241.545C179.311 241.336 179.141 241.166 178.932 241.166Z" fill="#111B54"/>
<path d="M178.932 247.12H171.451C171.242 247.12 171.072 247.289 171.072 247.499V249.017C171.072 249.227 171.242 249.397 171.451 249.397H178.932C179.141 249.397 179.311 249.227 179.311 249.017V247.499C179.311 247.289 179.141 247.12 178.932 247.12Z" fill="#1159C9"/>
<path d="M178.932 247.12H171.451C171.242 247.12 171.072 247.289 171.072 247.499V248.901C171.072 249.111 171.242 249.281 171.451 249.281H178.932C179.141 249.281 179.311 249.111 179.311 248.901V247.499C179.311 247.289 179.141 247.12 178.932 247.12Z" fill="#111B54"/>
<path d="M178.932 253.073H171.451C171.242 253.073 171.072 253.243 171.072 253.452V254.971C171.072 255.18 171.242 255.35 171.451 255.35H178.932C179.141 255.35 179.311 255.18 179.311 254.971V253.452C179.311 253.243 179.141 253.073 178.932 253.073Z" fill="#1159C9"/>
<path d="M178.932 253.073H171.451C171.242 253.073 171.072 253.243 171.072 253.452V254.855C171.072 255.064 171.242 255.234 171.451 255.234H178.932C179.141 255.234 179.311 255.064 179.311 254.855V253.452C179.311 253.243 179.141 253.073 178.932 253.073Z" fill="#111B54"/>
<path d="M284.244 170.856C282.966 170.856 281.717 170.477 280.654 169.767C279.591 169.057 278.763 168.048 278.274 166.867C277.785 165.686 277.657 164.387 277.906 163.133C278.156 161.88 278.771 160.729 279.675 159.825C280.578 158.921 281.73 158.306 282.983 158.056C284.237 157.807 285.536 157.935 286.717 158.424C287.898 158.913 288.907 159.741 289.617 160.804C290.327 161.867 290.706 163.116 290.706 164.394C290.705 166.108 290.024 167.751 288.812 168.962C287.6 170.174 285.957 170.855 284.244 170.856ZM284.244 159.851C283.345 159.851 282.466 160.117 281.719 160.617C280.971 161.116 280.388 161.826 280.044 162.656C279.7 163.487 279.61 164.401 279.786 165.283C279.961 166.164 280.394 166.974 281.029 167.61C281.665 168.246 282.475 168.679 283.357 168.854C284.239 169.029 285.152 168.939 285.983 168.595C286.814 168.251 287.523 167.668 288.023 166.921C288.522 166.173 288.789 165.294 288.789 164.395C288.786 163.191 288.307 162.037 287.455 161.185C286.603 160.334 285.448 159.855 284.244 159.854V159.851Z" fill="#938BC9"/>
<path d="M284.102 155.289V168.268C284.093 171.044 282.987 173.703 281.024 175.666C279.061 177.629 276.402 178.735 273.626 178.742C270.85 178.735 268.19 177.629 266.228 175.666C264.265 173.703 263.158 171.044 263.15 168.268V155.289H284.102Z" fill="#C1B7FF"/>
<path d="M283.649 177.316H263.602C263.274 177.316 263.008 177.582 263.008 177.91V179.576C263.008 179.904 263.274 180.17 263.602 180.17H283.649C283.977 180.17 284.243 179.904 284.243 179.576V177.91C284.243 177.582 283.977 177.316 283.649 177.316Z" fill="#938BC9"/>
</svg>
