<svg width="200" height="200" viewBox="0 0 200 200" fill="none" xmlns="http://www.w3.org/2000/svg">
<g clip-path="url(#clip0)">
<path d="M179.619 54.2059H19.6186C8.61859 54.2059 -0.281409 63.2059 -0.281409 74.2059L-0.381409 174.206C-0.381409 185.206 8.61859 194.206 19.6186 194.206H179.619C190.619 194.206 199.619 185.206 199.619 174.206V74.2059C199.619 63.2059 190.619 54.2059 179.619 54.2059ZM89.6186 84.2059H109.619V104.206H89.6186V84.2059ZM89.6186 114.206H109.619V134.206H89.6186V114.206ZM59.6186 84.2059H79.6186V104.206H59.6186V84.2059ZM59.6186 114.206H79.6186V134.206H59.6186V114.206ZM49.6186 134.206H29.6186V114.206H49.6186V134.206ZM49.6186 104.206H29.6186V84.2059H49.6186V104.206ZM139.619 174.206H59.6186V154.206H139.619V174.206ZM139.619 134.206H119.619V114.206H139.619V134.206ZM139.619 104.206H119.619V84.2059H139.619V104.206ZM169.619 134.206H149.619V114.206H169.619V134.206ZM169.619 104.206H149.619V84.2059H169.619V104.206Z" fill="#151C6E"/>
</g>
<defs>
<clipPath id="clip0">
<rect width="199.276" height="199.276" fill="white"/>
</clipPath>
</defs>
</svg>
