<svg width="366" height="304" viewBox="0 0 366 304" fill="none" xmlns="http://www.w3.org/2000/svg">
<path d="M245.711 35.3704C167.993 -24.0803 182.053 33.0179 198.798 68.9983C198.798 155.351 188.415 86.0244 162.679 171.958C138.185 253.744 198.798 198.943 309.645 237.138C398.323 267.693 361.54 183.997 332.064 138.33C349.223 129.75 359.464 91.3504 359.464 35.3704C359.464 -29.3389 275.602 9.63062 245.711 35.3704Z" fill="#C1B7FF"/>
<path d="M178.669 36.9491C178.669 48.4134 178.669 77.6347 149.608 57.7071C133.558 57.7071 120.547 43.0163 120.547 31.5521C120.547 20.0878 133.558 10.7941 149.608 10.7941C165.658 10.7941 178.669 25.4848 178.669 36.9491Z" fill="#C1B7FF"/>
<path d="M215.203 87.1833C229.152 111.761 191.124 165.51 170.366 189.312C179.499 230.967 181.492 311.95 116.395 302.651C35.024 291.026 21.7389 210.901 24.645 158.591C27.5511 106.281 -32.2318 55.2161 24.645 29.0611C65.9926 10.0472 138.398 36.1188 138.398 78.465C183.028 94.7014 206.838 72.446 215.203 87.1833Z" fill="#C6E6FF"/>
</svg>
