<svg width="358" height="324" viewBox="0 0 358 324" fill="none" xmlns="http://www.w3.org/2000/svg">
<path d="M115.128 62.4305H3.28852L3.18642 61.9264C2.67817 59.448 2.92982 56.874 3.90844 54.541C4.88706 52.208 6.54708 50.2247 8.67132 48.8506C10.7956 47.4765 13.2851 46.7756 15.8142 46.8395C18.3434 46.9035 20.7943 47.7293 22.8464 49.209C24.2167 42.4034 27.7646 36.2287 32.9543 31.6177C38.1439 27.0067 44.6932 24.2099 51.6127 23.6499C58.5323 23.0898 65.4461 24.797 71.3097 28.5135C77.1733 32.2299 81.668 37.7538 84.1149 44.2504C86.8103 41.7917 90.1623 40.1697 93.7629 39.5818C97.3636 38.9939 101.057 39.4654 104.395 40.939C107.732 42.4126 110.569 44.8247 112.561 47.8816C114.552 50.9386 115.612 54.5085 115.611 58.1568C115.61 59.4229 115.483 60.6858 115.23 61.9264L115.128 62.4305ZM4.33075 61.1718H114.092C114.53 58.6487 114.411 56.0604 113.744 53.5881C113.076 51.1157 111.876 48.8192 110.228 46.8592C108.58 44.8992 106.524 43.3232 104.202 42.2415C101.881 41.1599 99.3516 40.5987 96.7908 40.5973C94.4657 40.5909 92.1628 41.0498 90.0178 41.947C87.8728 42.8443 85.929 44.1617 84.301 45.8217L83.5858 46.5439L83.2561 45.5814C81.0443 39.113 76.7378 33.5674 71.0185 29.8227C65.2993 26.078 58.4943 24.3483 51.6811 24.9075C44.8679 25.4668 38.436 28.2829 33.404 32.9101C28.3719 37.5372 25.0273 43.7108 23.8998 50.4533L23.7169 51.5556L22.866 50.8282C21.2252 49.4171 19.2137 48.5067 17.0706 48.2052C14.9276 47.9038 12.743 48.2238 10.7765 49.1274C8.80997 50.031 7.14419 51.4802 5.97708 53.3026C4.80996 55.1251 4.19057 57.2444 4.1925 59.4085C4.19316 59.999 4.23938 60.5885 4.33075 61.1718V61.1718Z" fill="#FF7900"/>
<path d="M60.4189 56.4998H50.2779C49.6373 56.499 49.0232 56.2442 48.5703 55.7912C48.1173 55.3382 47.8625 54.7241 47.8616 54.0836V47.8785H45.1853C44.7464 47.8786 44.3173 47.7485 43.9523 47.5046C43.5874 47.2608 43.3029 46.9142 43.135 46.5087C42.967 46.1032 42.923 45.657 43.0087 45.2266C43.0943 44.7961 43.3057 44.4007 43.6161 44.0903L53.78 33.9275C54.2025 33.5239 54.7644 33.2987 55.3487 33.2987C55.933 33.2987 56.4948 33.5239 56.9173 33.9275L67.0813 44.0903C67.3914 44.4008 67.6026 44.7962 67.6881 45.2267C67.7735 45.6571 67.7295 46.1032 67.5615 46.5087C67.3935 46.9141 67.1091 47.2606 66.7442 47.5044C66.3793 47.7483 65.9504 47.8784 65.5115 47.8785H62.8352V54.083C62.8345 54.7237 62.5797 55.3379 62.1268 55.791C61.6738 56.2441 61.0596 56.499 60.4189 56.4998V56.4998ZM55.3487 34.5385C55.2225 34.5381 55.0976 34.5628 54.9811 34.6111C54.8646 34.6595 54.7589 34.7306 54.6702 34.8203L44.5063 44.9789C44.3706 45.1126 44.2779 45.2837 44.24 45.4704C44.2022 45.6571 44.2209 45.8508 44.2937 46.0268C44.3666 46.2027 44.4903 46.353 44.649 46.4583C44.8078 46.5635 44.9943 46.6191 45.1848 46.6178H49.1197V54.0814C49.1203 54.3882 49.2425 54.6822 49.4595 54.899C49.6765 55.1158 49.9706 55.2377 50.2774 55.238H60.4184C60.7252 55.2377 61.0193 55.1158 61.2363 54.899C61.4533 54.6822 61.5755 54.3882 61.576 54.0814V46.6193H65.511C65.7009 46.6193 65.8865 46.563 66.0444 46.4576C66.2023 46.3521 66.3253 46.2022 66.3981 46.0269C66.4708 45.8515 66.4899 45.6585 66.453 45.4722C66.416 45.286 66.3247 45.1149 66.1906 44.9805L56.0277 34.8176C55.9389 34.7281 55.8332 34.6572 55.7167 34.6088C55.6002 34.5604 55.4753 34.5356 55.3492 34.5358L55.3487 34.5385Z" fill="#FF7900"/>
<path d="M235.745 16.0351H189.901L189.858 15.8282C189.79 15.4886 189.755 15.1431 189.755 14.7966C189.754 13.848 190.016 12.9176 190.51 12.108C191.004 11.2985 191.713 10.6412 192.557 10.2087C193.402 9.77614 194.349 9.5852 195.295 9.65689C196.241 9.72858 197.148 10.0601 197.918 10.6149C198.48 7.82536 199.934 5.29439 202.061 3.40438C204.189 1.51437 206.873 0.368004 209.709 0.138476C212.546 -0.0910519 215.38 0.608726 217.783 2.13209C220.187 3.65545 222.029 5.91963 223.032 8.58258C224.137 7.57406 225.511 6.90857 226.987 6.66721C228.463 6.42584 229.977 6.61901 231.346 7.22319C232.714 7.82737 233.877 8.81647 234.693 10.07C235.509 11.3235 235.943 12.7873 235.941 14.283C235.941 14.8018 235.889 15.3193 235.786 15.8277L235.745 16.0351ZM190.328 15.5193H235.32C235.39 15.1111 235.426 14.6977 235.426 14.2835C235.426 12.8561 235.002 11.4609 234.207 10.2753C233.412 9.08978 232.282 8.16741 230.962 7.62553C229.641 7.08365 228.189 6.94674 226.791 7.2322C225.392 7.51767 224.11 8.21261 223.108 9.22866L222.814 9.52538L222.679 9.13082C221.773 6.47926 220.008 4.20591 217.664 2.6708C215.319 1.1357 212.53 0.426591 209.737 0.655792C206.944 0.884992 204.307 2.0394 202.245 3.93618C200.182 5.83295 198.811 8.36368 198.349 11.1275L198.274 11.5795L197.926 11.2812C197.206 10.6638 196.314 10.282 195.371 10.1874C194.427 10.0928 193.477 10.2898 192.649 10.752C191.821 11.2142 191.154 11.9192 190.739 12.7721C190.324 13.6249 190.181 14.5845 190.328 15.5214V15.5193Z" fill="#FF7900"/>
<path d="M213.318 13.605H209.161C208.899 13.6046 208.647 13.5 208.461 13.3144C208.276 13.1287 208.171 12.8769 208.171 12.6143V10.0731H207.074C206.894 10.073 206.718 10.0196 206.568 9.91957C206.419 9.81956 206.302 9.67744 206.233 9.5112C206.165 9.34495 206.147 9.16204 206.182 8.98558C206.217 8.80912 206.303 8.64704 206.431 8.51983L210.597 4.35354C210.77 4.18818 211.001 4.09592 211.24 4.09592C211.48 4.09592 211.71 4.18818 211.883 4.35354L216.051 8.51983C216.178 8.64704 216.265 8.80912 216.3 8.98558C216.335 9.16204 216.317 9.34495 216.248 9.5112C216.179 9.67744 216.063 9.81956 215.913 9.91957C215.764 10.0196 215.588 10.073 215.408 10.0731H214.311V12.6159C214.31 12.8786 214.205 13.1303 214.019 13.3157C213.833 13.5011 213.581 13.6051 213.318 13.605ZM211.241 4.60187C211.189 4.60185 211.138 4.61208 211.09 4.63198C211.042 4.65187 210.999 4.68104 210.962 4.7178L206.796 8.88408C206.741 8.939 206.704 9.00902 206.688 9.08526C206.673 9.1615 206.681 9.24054 206.711 9.31238C206.74 9.38422 206.791 9.44564 206.855 9.48885C206.92 9.53206 206.996 9.55514 207.074 9.55515H208.688V12.6149C208.688 12.7405 208.738 12.8609 208.826 12.9497C208.915 13.0385 209.036 13.0885 209.161 13.0886H213.318C213.38 13.0887 213.442 13.0765 213.5 13.0527C213.557 13.029 213.609 12.9941 213.654 12.9501C213.698 12.9061 213.733 12.8538 213.757 12.7963C213.78 12.7388 213.793 12.6771 213.793 12.6149V9.55515H215.407C215.484 9.55514 215.56 9.53206 215.625 9.48885C215.69 9.44564 215.74 9.38422 215.77 9.31238C215.8 9.24054 215.807 9.1615 215.792 9.08526C215.777 9.00902 215.739 8.939 215.684 8.88408L211.521 4.7178C211.484 4.68089 211.44 4.65164 211.392 4.63173C211.344 4.61183 211.293 4.60168 211.241 4.60187Z" fill="#FF7900"/>
<path d="M331.32 298.648H251.567L251.495 298.289C251.375 297.698 251.315 297.096 251.315 296.494C251.314 294.844 251.769 293.226 252.629 291.818C253.489 290.41 254.721 289.267 256.189 288.514C257.658 287.762 259.305 287.43 260.95 287.554C262.595 287.679 264.174 288.255 265.513 289.22C266.49 284.367 269.02 279.964 272.721 276.676C276.421 273.388 281.092 271.394 286.026 270.994C290.96 270.595 295.89 271.812 300.071 274.463C304.252 277.113 307.458 281.052 309.203 285.684C311.125 283.931 313.515 282.775 316.082 282.356C318.65 281.937 321.283 282.273 323.663 283.324C326.043 284.375 328.066 286.095 329.486 288.274C330.906 290.454 331.661 292.999 331.661 295.601C331.661 296.504 331.571 297.404 331.391 298.289L331.32 298.648ZM252.311 297.75H330.581C330.703 297.04 330.764 296.321 330.765 295.601C330.765 293.118 330.027 290.69 328.644 288.628C327.262 286.565 325.297 284.96 322.999 284.018C320.702 283.075 318.176 282.837 315.743 283.333C313.31 283.83 311.08 285.039 309.336 286.806L308.827 287.322L308.592 286.635C307.015 282.022 303.944 278.067 299.865 275.396C295.787 272.726 290.934 271.492 286.075 271.891C281.216 272.289 276.63 274.298 273.041 277.598C269.453 280.898 267.068 285.3 266.264 290.109L266.134 290.895L265.528 290.376C264.276 289.302 262.724 288.638 261.082 288.473C259.441 288.308 257.788 288.651 256.347 289.455C254.906 290.259 253.747 291.485 253.025 292.969C252.303 294.453 252.053 296.122 252.31 297.752L252.311 297.75Z" fill="#FF7900"/>
<path d="M292.307 294.418H285.075C284.618 294.418 284.18 294.236 283.856 293.913C283.533 293.59 283.352 293.152 283.351 292.695V288.271H281.441C281.129 288.271 280.823 288.177 280.563 288.003C280.303 287.829 280.101 287.582 279.981 287.293C279.862 287.004 279.831 286.686 279.892 286.379C279.953 286.073 280.104 285.791 280.325 285.57L287.572 278.323C287.874 278.035 288.274 277.874 288.691 277.874C289.108 277.874 289.508 278.035 289.809 278.323L297.058 285.57C297.279 285.791 297.43 286.073 297.491 286.379C297.551 286.686 297.52 287.004 297.401 287.293C297.281 287.582 297.079 287.829 296.819 288.003C296.56 288.177 296.254 288.27 295.942 288.271H294.033V292.695C294.033 292.921 293.988 293.146 293.901 293.355C293.814 293.564 293.687 293.754 293.527 293.914C293.366 294.074 293.176 294.201 292.967 294.287C292.757 294.374 292.533 294.418 292.307 294.418V294.418ZM288.691 278.756C288.601 278.756 288.511 278.774 288.428 278.808C288.345 278.843 288.27 278.894 288.206 278.957L280.959 286.205C280.863 286.3 280.797 286.422 280.77 286.555C280.743 286.688 280.756 286.826 280.808 286.952C280.86 287.077 280.948 287.185 281.061 287.26C281.174 287.335 281.307 287.375 281.442 287.375H284.249V292.696C284.25 292.915 284.337 293.125 284.492 293.28C284.646 293.435 284.856 293.522 285.075 293.522H292.307C292.526 293.522 292.736 293.435 292.891 293.28C293.046 293.125 293.133 292.915 293.133 292.696V287.372H295.94C296.076 287.373 296.209 287.333 296.322 287.258C296.434 287.182 296.523 287.075 296.574 286.95C296.626 286.825 296.64 286.686 296.613 286.553C296.586 286.42 296.521 286.298 296.424 286.203L289.176 278.955C289.113 278.892 289.037 278.841 288.954 278.807C288.87 278.772 288.781 278.755 288.691 278.755L288.691 278.756Z" fill="#FF7900"/>
<path d="M321.955 207.553C320.701 207.553 319.475 207.181 318.433 206.485C317.39 205.788 316.578 204.798 316.098 203.64C315.618 202.481 315.493 201.207 315.737 199.977C315.982 198.747 316.586 197.617 317.472 196.731C318.359 195.844 319.488 195.24 320.718 194.996C321.948 194.751 323.223 194.877 324.381 195.357C325.539 195.836 326.53 196.649 327.226 197.692C327.923 198.734 328.295 199.96 328.295 201.214C328.293 202.894 327.624 204.506 326.436 205.694C325.247 206.883 323.636 207.551 321.955 207.553ZM321.955 196.014C320.927 196.014 319.922 196.319 319.067 196.89C318.213 197.462 317.547 198.273 317.153 199.223C316.76 200.173 316.657 201.218 316.858 202.226C317.058 203.234 317.553 204.161 318.28 204.887C319.007 205.614 319.933 206.109 320.941 206.31C321.95 206.511 322.995 206.408 323.944 206.014C324.894 205.621 325.706 204.955 326.277 204.1C326.848 203.245 327.153 202.241 327.153 201.213C327.152 199.835 326.603 198.513 325.629 197.539C324.654 196.565 323.333 196.017 321.955 196.016V196.014Z" fill="#FF7900"/>
<path d="M11.6333 178.954C10.3795 178.954 9.15378 178.582 8.11125 177.886C7.06872 177.189 6.25616 176.199 5.77633 175.04C5.29651 173.882 5.17096 172.607 5.41558 171.378C5.66019 170.148 6.26397 169.018 7.15058 168.132C8.03718 167.245 9.16678 166.641 10.3965 166.397C11.6263 166.152 12.901 166.278 14.0594 166.757C15.2178 167.237 16.2079 168.05 16.9045 169.092C17.6011 170.135 17.9729 171.361 17.9729 172.614C17.9712 174.295 17.3027 175.907 16.1142 177.095C14.9257 178.284 13.3142 178.952 11.6333 178.954V178.954ZM11.6333 167.415C10.6051 167.415 9.59996 167.719 8.74495 168.29C7.88993 168.862 7.22347 169.673 6.82985 170.623C6.43623 171.573 6.33313 172.618 6.5336 173.627C6.73406 174.635 7.22908 175.562 7.95604 176.289C8.68301 177.016 9.60928 177.511 10.6177 177.712C11.6261 177.912 12.6714 177.81 13.6214 177.416C14.5713 177.023 15.3832 176.356 15.9545 175.502C16.5258 174.647 16.8307 173.642 16.8307 172.613C16.8291 171.235 16.2811 169.914 15.3068 168.94C14.3324 167.965 13.0114 167.417 11.6333 167.415V167.415Z" fill="#FF8200"/>
<path d="M138.921 37.1562L137.445 38.6324L150.674 51.8602L152.15 50.384L138.921 37.1562Z" fill="#FF7900"/>
<path d="M150.674 37.1564L137.445 50.3847L138.922 51.8609L152.15 38.6326L150.674 37.1564Z" fill="#FF7900"/>
<path d="M65.125 323.378L50.255 308.508L65.125 293.637L79.9975 308.508L65.125 323.378ZM53.2073 308.508L65.125 320.426L77.0426 308.508L65.125 296.589L53.2073 308.508Z" fill="#FF7900"/>
<path d="M15.287 259.967L0.417068 245.097L15.287 230.225L30.1569 245.097L15.287 259.967ZM3.36935 245.097L15.287 257.015L27.2052 245.097L15.287 233.18L3.36935 245.097Z" fill="#FF7900"/>
<path d="M319.717 239.671L312.282 232.235L319.717 224.8L327.152 232.235L319.717 239.671ZM313.759 232.235L319.717 238.194L325.676 232.235L319.717 226.276L313.759 232.235Z" fill="#FF7900"/>
<path d="M350.26 163.943L341.516 155.198L350.26 146.454L351.174 147.367L343.342 155.199L351.174 163.031L350.26 163.943Z" fill="#FF7900"/>
<path d="M356.992 163.943L348.247 155.198L356.992 146.454L357.905 147.367L350.074 155.199L357.905 163.03L356.992 163.943Z" fill="#FF7900"/>
<path d="M195.647 95.3077L186.902 86.563L195.647 77.8183L196.56 78.7319L188.729 86.5635L196.56 94.3952L195.647 95.3077Z" fill="#FF7900"/>
<path d="M202.378 95.3077L193.633 86.563L202.378 77.8183L203.291 78.7319L195.46 86.5635L203.291 94.3952L202.378 95.3077Z" fill="#FF7900"/>
<path d="M158.224 87.417H152.134C151.711 87.4163 151.306 87.248 151.007 86.949C150.708 86.65 150.539 86.2446 150.539 85.8217V82.2404H149.075C148.783 82.2404 148.497 82.1538 148.255 81.9916C148.012 81.8294 147.823 81.5989 147.711 81.3291C147.599 81.0594 147.57 80.7626 147.627 80.4762C147.684 80.1899 147.825 79.9269 148.031 79.7204L154.136 73.6159C154.413 73.3397 154.788 73.1846 155.179 73.1846C155.571 73.1846 155.946 73.3397 156.223 73.6159L162.327 79.722C162.533 79.9283 162.674 80.1914 162.731 80.4778C162.788 80.7643 162.759 81.0612 162.647 81.3311C162.536 81.6009 162.346 81.8315 162.103 81.9937C161.86 82.1558 161.575 82.2423 161.283 82.242H159.819V85.8233C159.819 86.2461 159.651 86.6515 159.352 86.9503C159.053 87.2491 158.647 87.417 158.224 87.417V87.417ZM155.179 74.2269C155.123 74.2267 155.066 74.2378 155.014 74.2595C154.961 74.2812 154.914 74.3131 154.874 74.3534L148.769 80.458C148.709 80.5184 148.667 80.5955 148.651 80.6793C148.634 80.7632 148.643 80.8502 148.675 80.9292C148.708 81.0082 148.763 81.0757 148.835 81.1232C148.906 81.1707 148.989 81.196 149.075 81.196H151.582V85.8223C151.582 85.9686 151.64 86.1089 151.744 86.2124C151.847 86.3159 151.988 86.3741 152.134 86.3742H158.224C158.37 86.374 158.51 86.3157 158.613 86.2122C158.717 86.1087 158.775 85.9685 158.775 85.8223V81.196H161.282C161.367 81.196 161.451 81.1707 161.522 81.1232C161.593 81.0757 161.649 81.0082 161.681 80.9292C161.714 80.8502 161.723 80.7632 161.706 80.6793C161.689 80.5955 161.648 80.5184 161.588 80.458L155.485 74.3513C155.445 74.3115 155.397 74.28 155.345 74.2586C155.292 74.2373 155.236 74.2265 155.179 74.2269V74.2269Z" fill="#FF7900"/>
<path d="M344.561 121.496H338.471C338.048 121.495 337.642 121.327 337.343 121.028C337.044 120.729 336.876 120.324 336.875 119.901V116.319H335.412C335.12 116.319 334.835 116.233 334.592 116.071C334.349 115.908 334.16 115.678 334.048 115.408C333.936 115.138 333.907 114.842 333.964 114.555C334.021 114.269 334.162 114.006 334.368 113.799L340.473 107.695C340.75 107.419 341.125 107.264 341.517 107.264C341.908 107.264 342.283 107.419 342.56 107.695L348.664 113.8C348.871 114.007 349.011 114.27 349.069 114.556C349.126 114.843 349.096 115.14 348.985 115.409C348.873 115.679 348.684 115.91 348.441 116.072C348.198 116.234 347.912 116.321 347.62 116.32H346.157V119.902C346.156 120.325 345.988 120.73 345.689 121.029C345.39 121.328 344.984 121.496 344.561 121.496V121.496ZM341.516 108.306C341.459 108.306 341.403 108.317 341.35 108.338C341.298 108.36 341.25 108.392 341.21 108.432L335.106 114.537C335.045 114.597 335.004 114.674 334.987 114.758C334.971 114.842 334.979 114.929 335.012 115.008C335.045 115.087 335.1 115.155 335.171 115.202C335.242 115.25 335.326 115.275 335.412 115.275H337.919V119.901C337.919 120.048 337.977 120.188 338.081 120.291C338.184 120.395 338.324 120.453 338.471 120.453H344.56C344.707 120.453 344.847 120.395 344.95 120.291C345.054 120.188 345.112 120.048 345.112 119.901V115.275H347.619C347.705 115.275 347.788 115.25 347.859 115.202C347.93 115.155 347.986 115.087 348.019 115.008C348.051 114.929 348.06 114.842 348.043 114.758C348.026 114.674 347.985 114.597 347.925 114.537L341.821 108.432C341.781 108.392 341.734 108.36 341.681 108.339C341.629 108.317 341.573 108.306 341.516 108.306V108.306Z" fill="#FF7900"/>
</svg>
