<svg width="444" height="401" viewBox="0 0 444 401" fill="none" xmlns="http://www.w3.org/2000/svg">
<path d="M142.262 77.3779H3.57757L3.45096 76.7528C2.82072 73.6796 3.13277 70.4877 4.34629 67.5947C5.55981 64.7017 7.61828 62.2424 10.2524 60.5385C12.8865 58.8345 15.9736 57.9654 19.1098 58.0447C22.246 58.124 25.2852 59.148 27.8299 60.9829C29.5291 52.5438 33.9287 44.8869 40.364 39.1691C46.7992 33.4513 54.9206 29.9832 63.501 29.2888C72.0814 28.5944 80.6548 30.7113 87.9258 35.3199C95.1968 39.9284 100.77 46.7781 103.805 54.8341C107.147 51.7853 111.304 49.7739 115.768 49.0449C120.233 48.3158 124.814 48.9006 128.952 50.7279C133.091 52.5552 136.609 55.5462 139.078 59.3369C141.548 63.1276 142.862 67.5544 142.86 72.0784C142.86 73.6484 142.702 75.2144 142.389 76.7528L142.262 77.3779ZM4.86997 75.8172H140.977C141.52 72.6884 141.373 69.4788 140.545 66.4131C139.718 63.3473 138.23 60.4995 136.186 58.069C134.142 55.6386 131.592 53.6843 128.714 52.343C125.835 51.0017 122.699 50.3059 119.523 50.3041C116.64 50.2961 113.784 50.8652 111.124 51.9779C108.465 53.0905 106.054 54.7241 104.035 56.7826L103.149 57.678L102.74 56.4845C99.997 48.4636 94.6568 41.5868 87.5648 36.9433C80.4728 32.2998 72.0343 30.1549 63.5858 30.8484C55.1373 31.5418 47.1615 35.034 40.9216 40.7717C34.6817 46.5095 30.5343 54.165 29.1361 62.5259L28.9093 63.8928L27.8543 62.9907C25.8195 61.241 23.3253 60.1121 20.6678 59.7382C18.0103 59.3644 15.3014 59.7612 12.8629 60.8817C10.4243 62.0022 8.35872 63.7992 6.91146 66.0591C5.4642 68.3191 4.69614 70.947 4.69853 73.6306C4.69935 74.3628 4.75666 75.0938 4.86997 75.8172Z" fill="#FF7900"/>
<path d="M74.4209 70.0238H61.8458C61.0514 70.0227 60.2899 69.7067 59.7282 69.145C59.1666 68.5833 58.8505 67.8218 58.8495 67.0275V59.3331H55.5308C54.9865 59.3332 54.4545 59.1718 54.0019 58.8695C53.5493 58.5671 53.1966 58.1374 52.9883 57.6345C52.78 57.1317 52.7255 56.5784 52.8317 56.0446C52.9379 55.5108 53.2 55.0204 53.5849 54.6356L66.1885 42.0334C66.7124 41.5329 67.4091 41.2537 68.1337 41.2537C68.8582 41.2537 69.5549 41.5329 70.0789 42.0334L82.6824 54.6356C83.067 55.0206 83.3289 55.511 83.4349 56.0447C83.5409 56.5785 83.4863 57.1317 83.2779 57.6344C83.0696 58.1371 82.7169 58.5668 82.2645 58.8692C81.812 59.1715 81.2801 59.333 80.7359 59.3331H77.4172V67.0268C77.4163 67.8213 77.1004 68.583 76.5387 69.1448C75.977 69.7066 75.2154 70.0227 74.4209 70.0238ZM68.1337 42.791C67.9773 42.7905 67.8223 42.8211 67.6779 42.8811C67.5334 42.9411 67.4023 43.0293 67.2923 43.1405L54.6888 55.7375C54.5205 55.9032 54.4056 56.1154 54.3586 56.3469C54.3117 56.5784 54.3349 56.8186 54.4252 57.0368C54.5156 57.2551 54.669 57.4414 54.8658 57.5719C55.0626 57.7025 55.294 57.7713 55.5301 57.7697H60.4096V67.0249C60.4103 67.4052 60.5618 67.7698 60.8309 68.0387C61.1 68.3075 61.4647 68.4587 61.8451 68.459H74.4203C74.8007 68.4587 75.1654 68.3075 75.4345 68.0387C75.7036 67.7698 75.8551 67.4052 75.8558 67.0249V57.7717H80.7353C80.9707 57.7717 81.2009 57.7019 81.3966 57.5711C81.5924 57.4403 81.7451 57.2544 81.8352 57.037C81.9254 56.8195 81.9491 56.5801 81.9033 56.3492C81.8575 56.1182 81.7443 55.906 81.578 55.7394L68.9757 43.1372C68.8655 43.0262 68.7344 42.9382 68.59 42.8782C68.4456 42.8182 68.2907 42.7875 68.1343 42.7877L68.1337 42.791Z" fill="#FF7900"/>
<path d="M291.83 19.8463H234.983L234.929 19.5898C234.845 19.1686 234.802 18.7401 234.801 18.3106C234.8 17.1342 235.124 15.9805 235.738 14.9766C236.351 13.9727 237.229 13.1577 238.276 12.6213C239.323 12.085 240.498 11.8482 241.671 11.9371C242.844 12.026 243.97 12.4371 244.924 13.1251C245.62 9.66599 247.424 6.5275 250.062 4.18383C252.699 1.84017 256.028 0.418641 259.545 0.13402C263.063 -0.150601 266.577 0.717144 269.557 2.60616C272.538 4.49517 274.822 7.30283 276.066 10.605C277.436 9.35436 279.139 8.52914 280.97 8.22984C282.8 7.93053 284.678 8.17008 286.375 8.91928C288.072 9.66848 289.514 10.895 290.526 12.4494C291.538 14.0037 292.075 15.8189 292.074 17.6736C292.074 18.3169 292.009 18.9587 291.881 19.5891L291.83 19.8463ZM235.512 19.2067H291.303C291.39 18.7005 291.434 18.1879 291.435 17.6743C291.435 15.9042 290.909 14.1742 289.923 12.704C288.937 11.2339 287.537 10.0901 285.899 9.41819C284.262 8.74624 282.461 8.57647 280.727 8.93045C278.993 9.28443 277.403 10.1462 276.16 11.4061L275.796 11.7741L275.629 11.2848C274.505 7.99678 272.316 5.17775 269.409 3.27418C266.502 1.3706 263.043 0.491291 259.58 0.775507C256.116 1.05972 252.847 2.49122 250.289 4.84328C247.731 7.19534 246.031 10.3335 245.458 13.7608L245.365 14.3213L244.934 13.9514C244.041 13.1857 242.935 12.7123 241.765 12.595C240.595 12.4776 239.417 12.722 238.39 13.2951C237.363 13.8682 236.536 14.7425 236.022 15.8001C235.507 16.8576 235.329 18.0475 235.512 19.2093V19.2067Z" fill="#FF7900"/>
<path d="M264.02 16.8329H258.866C258.54 16.8324 258.228 16.7028 257.998 16.4725C257.767 16.2422 257.638 15.9301 257.637 15.6044V12.4532H256.277C256.054 12.4531 255.836 12.3869 255.65 12.2629C255.465 12.1389 255.32 11.9626 255.235 11.7565C255.15 11.5503 255.127 11.3235 255.171 11.1047C255.215 10.8859 255.322 10.6849 255.48 10.5272L260.646 5.36085C260.861 5.15579 261.147 5.04139 261.444 5.04139C261.741 5.04139 262.026 5.15579 262.241 5.36085L267.409 10.5272C267.567 10.6849 267.674 10.8859 267.718 11.1047C267.761 11.3235 267.739 11.5503 267.654 11.7565C267.568 11.9626 267.424 12.1389 267.238 12.2629C267.053 12.3869 266.835 12.4531 266.612 12.4532H265.251V15.6064C265.25 15.9322 265.12 16.2442 264.889 16.4741C264.659 16.7041 264.346 16.8331 264.02 16.8329ZM261.445 5.66878C261.38 5.66875 261.317 5.68144 261.258 5.70611C261.198 5.73078 261.144 5.76695 261.099 5.81253L255.933 10.9788C255.865 11.0469 255.818 11.1338 255.799 11.2283C255.78 11.3228 255.79 11.4209 255.827 11.5099C255.864 11.599 255.926 11.6752 256.006 11.7288C256.086 11.7824 256.181 11.811 256.277 11.811H258.278V15.6051C258.278 15.7609 258.34 15.9102 258.451 16.0204C258.561 16.1305 258.71 16.1924 258.866 16.1926H264.02C264.097 16.1927 264.174 16.1776 264.245 16.1481C264.317 16.1186 264.382 16.0754 264.436 16.0208C264.491 15.9663 264.534 15.9015 264.564 15.8301C264.594 15.7588 264.609 15.6823 264.609 15.6051V11.811H266.61C266.707 11.811 266.801 11.7824 266.881 11.7288C266.961 11.6752 267.024 11.599 267.061 11.5099C267.097 11.4209 267.107 11.3228 267.088 11.2283C267.069 11.1338 267.023 11.0469 266.955 10.9788L261.792 5.81253C261.746 5.76676 261.692 5.73049 261.633 5.70581C261.573 5.68113 261.509 5.66854 261.445 5.66878Z" fill="#FF7900"/>
<path d="M410.346 370.294H311.451L311.36 369.849C311.213 369.116 311.138 368.371 311.137 367.623C311.136 365.577 311.7 363.571 312.767 361.825C313.833 360.079 315.361 358.661 317.182 357.729C319.003 356.796 321.046 356.384 323.086 356.538C325.126 356.692 327.083 357.407 328.743 358.603C329.955 352.586 333.092 347.126 337.681 343.049C342.27 338.971 348.061 336.498 354.18 336.003C360.299 335.508 366.412 337.018 371.597 340.304C376.782 343.59 380.756 348.474 382.92 354.219C385.303 352.045 388.267 350.612 391.451 350.092C394.635 349.573 397.901 349.99 400.851 351.293C403.802 352.596 406.311 354.728 408.072 357.431C409.832 360.134 410.77 363.29 410.769 366.516C410.769 367.635 410.657 368.752 410.434 369.849L410.346 370.294ZM312.373 369.181H409.429C409.581 368.301 409.657 367.409 409.657 366.516C409.658 363.437 408.743 360.427 407.028 357.869C405.314 355.312 402.877 353.322 400.028 352.153C397.18 350.983 394.048 350.688 391.031 351.304C388.014 351.919 385.248 353.418 383.085 355.61L382.454 356.25L382.162 355.398C380.207 349.678 376.399 344.773 371.341 341.462C366.284 338.15 360.266 336.62 354.241 337.115C348.216 337.609 342.528 340.1 338.079 344.192C333.629 348.284 330.672 353.743 329.675 359.706L329.513 360.68L328.762 360.037C327.209 358.705 325.285 357.881 323.249 357.677C321.214 357.473 319.164 357.898 317.378 358.895C315.591 359.892 314.153 361.413 313.258 363.252C312.363 365.092 312.053 367.162 312.371 369.183L312.373 369.181Z" fill="#FF7900"/>
<path d="M361.968 365.049H353.001C352.434 365.049 351.891 364.824 351.49 364.423C351.089 364.022 350.864 363.479 350.864 362.912V357.427H348.495C348.107 357.426 347.728 357.311 347.406 357.095C347.084 356.879 346.833 356.573 346.685 356.214C346.537 355.856 346.498 355.462 346.574 355.081C346.649 354.701 346.836 354.351 347.11 354.077L356.098 345.09C356.472 344.734 356.968 344.535 357.485 344.535C358.002 344.535 358.498 344.734 358.872 345.09L367.861 354.077C368.135 354.352 368.321 354.701 368.397 355.081C368.472 355.461 368.434 355.856 368.285 356.214C368.137 356.572 367.886 356.878 367.564 357.094C367.242 357.31 366.864 357.426 366.476 357.427H364.109V362.912C364.109 363.193 364.053 363.471 363.945 363.731C363.838 363.99 363.68 364.226 363.481 364.424C363.283 364.623 363.047 364.78 362.787 364.887C362.528 364.995 362.249 365.05 361.968 365.049ZM357.485 345.628C357.373 345.628 357.262 345.65 357.159 345.693C357.056 345.736 356.963 345.798 356.884 345.878L347.897 354.864C347.777 354.983 347.696 355.134 347.662 355.299C347.629 355.464 347.646 355.635 347.71 355.791C347.774 355.947 347.883 356.079 348.023 356.173C348.163 356.266 348.328 356.316 348.496 356.315H351.977V362.914C351.978 363.186 352.086 363.446 352.278 363.638C352.47 363.83 352.73 363.938 353.001 363.938H361.969C362.241 363.938 362.501 363.83 362.693 363.638C362.885 363.446 362.993 363.186 362.993 362.914V356.313H366.474C366.642 356.313 366.807 356.263 366.947 356.17C367.087 356.077 367.196 355.944 367.261 355.789C367.325 355.633 367.342 355.462 367.309 355.297C367.276 355.132 367.194 354.98 367.075 354.862L358.087 345.875C358.008 345.796 357.914 345.733 357.811 345.691C357.708 345.648 357.597 345.627 357.485 345.627L357.485 345.628Z" fill="#FF7900"/>
<path d="M398.733 257.334C397.178 257.334 395.659 256.873 394.366 256.009C393.073 255.146 392.065 253.918 391.47 252.481C390.875 251.045 390.72 249.464 391.023 247.939C391.326 246.414 392.075 245.014 393.175 243.914C394.274 242.815 395.675 242.066 397.2 241.763C398.725 241.46 400.305 241.615 401.742 242.21C403.178 242.805 404.406 243.813 405.27 245.106C406.133 246.398 406.595 247.918 406.595 249.473C406.592 251.557 405.763 253.555 404.289 255.029C402.816 256.503 400.817 257.332 398.733 257.334ZM398.733 243.026C397.459 243.026 396.212 243.404 395.153 244.112C394.093 244.82 393.267 245.827 392.779 247.005C392.291 248.183 392.164 249.478 392.412 250.729C392.661 251.979 393.275 253.127 394.176 254.029C395.078 254.93 396.226 255.544 397.476 255.793C398.727 256.041 400.023 255.914 401.2 255.426C402.378 254.938 403.385 254.112 404.093 253.052C404.801 251.993 405.179 250.747 405.179 249.472C405.177 247.763 404.498 246.125 403.289 244.917C402.081 243.709 400.442 243.029 398.733 243.028V243.026Z" fill="#FF7900"/>
<path d="M13.9254 221.87C12.3706 221.87 10.8507 221.409 9.55789 220.546C8.26512 219.682 7.25753 218.454 6.66253 217.018C6.06753 215.581 5.91185 214 6.21518 212.476C6.51851 210.951 7.26722 209.55 8.36663 208.45C9.46604 207.351 10.8668 206.602 12.3917 206.299C13.9166 205.996 15.4973 206.151 16.9337 206.746C18.3702 207.341 19.5979 208.349 20.4617 209.642C21.3255 210.934 21.7866 212.454 21.7866 214.009C21.7845 216.093 20.9556 218.092 19.4818 219.566C18.008 221.039 16.0096 221.868 13.9254 221.87ZM13.9254 207.562C12.6504 207.561 11.4039 207.939 10.3437 208.647C9.28345 209.356 8.45702 210.362 7.96892 211.54C7.48082 212.718 7.35298 214.014 7.60156 215.265C7.85013 216.515 8.46397 217.664 9.36543 218.566C10.2669 219.467 11.4155 220.081 12.666 220.33C13.9164 220.579 15.2126 220.451 16.3906 219.963C17.5685 219.476 18.5754 218.649 19.2838 217.589C19.9921 216.529 20.3702 215.283 20.3702 214.008C20.3683 212.299 19.6887 210.661 18.4805 209.452C17.2723 208.244 15.6342 207.564 13.9254 207.562Z" fill="#FF8200"/>
<path d="M171.766 46.0371L169.936 47.8677L186.34 64.2705L188.17 62.4399L171.766 46.0371Z" fill="#FF7900"/>
<path d="M186.339 46.0374L169.936 62.4408L171.767 64.2713L188.17 47.8679L186.339 46.0374Z" fill="#FF7900"/>
<path d="M80.2565 400.96L61.8174 382.521L80.2565 364.081L98.699 382.521L80.2565 400.96ZM65.4783 382.521L80.2565 397.299L95.0348 382.521L80.2565 367.742L65.4783 382.521Z" fill="#FF7900"/>
<path d="M18.456 322.329L0.0168686 303.89L18.456 285.448L36.8952 303.89L18.456 322.329ZM3.67779 303.89L18.456 318.668L33.2349 303.89L18.456 289.113L3.67779 303.89Z" fill="#FF7900"/>
<path d="M395.958 297.161L386.739 287.941L395.958 278.72L405.178 287.941L395.958 297.161ZM388.569 287.941L395.958 295.33L403.348 287.941L395.958 280.551L388.569 287.941Z" fill="#FF7900"/>
<path d="M433.833 203.257L422.989 192.413L433.833 181.569L434.965 182.702L425.254 192.414L434.965 202.125L433.833 203.257Z" fill="#FF7900"/>
<path d="M442.18 203.257L431.336 192.413L442.18 181.569L443.313 182.702L433.601 192.414L443.313 202.124L442.18 203.257Z" fill="#FF7900"/>
<path d="M242.107 118.147L231.264 107.303L242.107 96.4593L243.24 97.5922L233.529 107.304L243.24 117.015L242.107 118.147Z" fill="#FF7900"/>
<path d="M250.454 118.147L239.61 107.303L250.454 96.4593L251.587 97.5922L241.875 107.304L251.587 117.015L250.454 118.147Z" fill="#FF7900"/>
<path d="M195.702 108.362H188.15C187.626 108.361 187.123 108.152 186.753 107.782C186.382 107.411 186.173 106.908 186.172 106.384V101.943H184.357C183.995 101.943 183.641 101.835 183.34 101.634C183.039 101.433 182.804 101.147 182.666 100.813C182.527 100.478 182.491 100.11 182.561 99.7552C182.632 99.4001 182.806 99.074 183.062 98.818L190.632 91.2482C190.976 90.9057 191.441 90.7134 191.927 90.7134C192.412 90.7134 192.877 90.9057 193.221 91.2482L200.789 98.8199C201.046 99.0758 201.22 99.402 201.291 99.7572C201.362 100.112 201.326 100.481 201.187 100.815C201.049 101.15 200.814 101.436 200.513 101.637C200.211 101.838 199.857 101.945 199.495 101.945H197.68V106.386C197.68 106.91 197.471 107.413 197.1 107.783C196.729 108.154 196.227 108.362 195.702 108.362ZM191.927 92.0058C191.856 92.0056 191.786 92.0193 191.721 92.0463C191.656 92.0732 191.597 92.1128 191.547 92.1627L183.978 99.7325C183.903 99.8075 183.852 99.903 183.831 100.007C183.81 100.111 183.821 100.219 183.861 100.317C183.902 100.415 183.971 100.499 184.059 100.557C184.147 100.616 184.251 100.648 184.357 100.648H187.466V106.384C187.466 106.566 187.538 106.74 187.667 106.868C187.795 106.997 187.969 107.069 188.15 107.069H195.702C195.883 107.069 196.057 106.996 196.185 106.868C196.313 106.74 196.385 106.566 196.385 106.384V100.648H199.494C199.6 100.648 199.704 100.616 199.792 100.557C199.88 100.499 199.949 100.415 199.989 100.317C200.03 100.219 200.04 100.111 200.02 100.007C199.999 99.903 199.948 99.8075 199.873 99.7325L192.306 92.1601C192.256 92.1107 192.197 92.0717 192.132 92.0452C192.067 92.0187 191.997 92.0053 191.927 92.0058Z" fill="#FF7900"/>
<path d="M426.765 150.621H419.213C418.689 150.62 418.186 150.411 417.815 150.04C417.445 149.67 417.236 149.167 417.235 148.643V144.202H415.42C415.058 144.202 414.704 144.094 414.403 143.893C414.102 143.692 413.868 143.406 413.729 143.072C413.591 142.737 413.554 142.369 413.625 142.014C413.696 141.659 413.87 141.333 414.126 141.077L421.696 133.507C422.04 133.165 422.505 132.972 422.99 132.972C423.475 132.972 423.941 133.165 424.285 133.507L431.853 141.078C432.109 141.334 432.284 141.66 432.355 142.015C432.426 142.371 432.389 142.739 432.251 143.073C432.112 143.408 431.877 143.694 431.576 143.895C431.275 144.096 430.921 144.203 430.559 144.203H428.744V148.644C428.744 149.169 428.535 149.671 428.164 150.042C427.793 150.413 427.29 150.621 426.765 150.621ZM422.99 134.265C422.919 134.264 422.849 134.278 422.784 134.305C422.719 134.332 422.66 134.372 422.61 134.422L415.041 141.991C414.966 142.066 414.915 142.162 414.894 142.266C414.873 142.37 414.884 142.478 414.924 142.576C414.965 142.674 415.034 142.757 415.122 142.816C415.21 142.875 415.314 142.907 415.42 142.907H418.529V148.643C418.529 148.825 418.601 148.999 418.729 149.127C418.858 149.255 419.032 149.328 419.213 149.328H426.765C426.946 149.328 427.12 149.255 427.248 149.127C427.376 148.999 427.448 148.825 427.448 148.643V142.907H430.557C430.663 142.907 430.767 142.875 430.855 142.816C430.943 142.757 431.012 142.674 431.053 142.576C431.093 142.478 431.104 142.37 431.083 142.266C431.063 142.162 431.012 142.066 430.937 141.991L423.368 134.422C423.318 134.372 423.259 134.332 423.194 134.305C423.129 134.279 423.06 134.265 422.99 134.265Z" fill="#FF7900"/>
</svg>
