<svg width="428" height="254" viewBox="0 0 428 254" fill="none" xmlns="http://www.w3.org/2000/svg">
<path opacity="0.3" d="M0.00311279 30.9963H193.184V143.901C193.184 145.216 192.662 146.477 191.732 147.406C190.803 148.336 189.542 148.858 188.228 148.858H4.95974C3.64516 148.858 2.38442 148.336 1.45487 147.406C0.525327 146.477 0.00311279 145.216 0.00311279 143.901L0.00311279 30.9963Z" fill="#C1B7FF"/>
<path opacity="0.3" d="M70.3658 167.38H161.708V248.2C161.708 249.515 161.185 250.776 160.256 251.705C159.326 252.635 158.066 253.157 156.751 253.157H75.3224C74.0079 253.157 72.7471 252.635 71.8176 251.705C70.888 250.776 70.3658 249.515 70.3658 248.2V167.38Z" fill="#C1B7FF"/>
<path opacity="0.3" d="M157.798 185.407H82.9324V212.281H157.798V185.407Z" fill="#C1B7FF"/>
<path opacity="0.3" d="M109.257 217.29H82.9324V225.627H109.257V217.29Z" fill="#C1B7FF"/>
<path opacity="0.3" d="M157.797 217.29H113.208V225.627H157.797V217.29Z" fill="#C1B7FF"/>
<path opacity="0.3" d="M161.708 167.38H70.3658V181.405H161.708V167.38Z" fill="#C1B7FF"/>
<path opacity="0.3" d="M76.0135 176.947C77.6198 176.947 78.922 175.645 78.922 174.039C78.922 172.432 77.6198 171.13 76.0135 171.13C74.4071 171.13 73.1049 172.432 73.1049 174.039C73.1049 175.645 74.4071 176.947 76.0135 176.947Z" fill="#C1B7FF"/>
<path d="M76.0135 176.949C75.2474 176.948 74.5126 176.645 73.9685 176.106C73.4244 175.567 73.115 174.834 73.1075 174.068V174.098C73.0993 174.485 73.1684 174.87 73.3109 175.23C73.4534 175.59 73.6663 175.918 73.9372 176.195C74.2081 176.472 74.5315 176.692 74.8885 176.842C75.2455 176.992 75.6289 177.069 76.0161 177.069C76.4034 177.069 76.7867 176.992 77.1437 176.842C77.5007 176.692 77.8241 176.472 78.095 176.195C78.3659 175.918 78.5789 175.59 78.7213 175.23C78.8638 174.87 78.9329 174.485 78.9247 174.098V174.068C78.9175 174.836 78.6076 175.569 78.0623 176.108C77.517 176.648 76.7805 176.95 76.0135 176.949Z" fill="#C1B7FF"/>
<path opacity="0.3" d="M82.9324 176.947C84.5388 176.947 85.841 175.645 85.841 174.039C85.841 172.432 84.5388 171.13 82.9324 171.13C81.3261 171.13 80.0239 172.432 80.0239 174.039C80.0239 175.645 81.3261 176.947 82.9324 176.947Z" fill="#C1B7FF"/>
<path d="M82.9318 176.949C82.1657 176.948 81.4309 176.645 80.8868 176.106C80.3427 175.567 80.0333 174.834 80.0259 174.068V174.098C80.0176 174.485 80.0867 174.87 80.2292 175.23C80.3717 175.59 80.5846 175.918 80.8555 176.195C81.1264 176.472 81.4498 176.692 81.8068 176.842C82.1638 176.992 82.5472 177.069 82.9344 177.069C83.3217 177.069 83.705 176.992 84.062 176.842C84.419 176.692 84.7424 176.472 85.0133 176.195C85.2842 175.918 85.4972 175.59 85.6396 175.23C85.7821 174.87 85.8512 174.485 85.843 174.098V174.068C85.8358 174.836 85.5259 175.569 84.9806 176.108C84.4353 176.648 83.6989 176.95 82.9318 176.949Z" fill="#C1B7FF"/>
<path opacity="0.3" d="M89.7973 176.947C91.4037 176.947 92.7059 175.645 92.7059 174.039C92.7059 172.432 91.4037 171.13 89.7973 171.13C88.191 171.13 86.8888 172.432 86.8888 174.039C86.8888 175.645 88.191 176.947 89.7973 176.947Z" fill="#C1B7FF"/>
<path d="M89.7973 176.949C89.0312 176.948 88.2961 176.646 87.752 176.106C87.2078 175.567 86.8985 174.835 86.8914 174.068V174.098C86.8832 174.485 86.9523 174.87 87.0948 175.23C87.2372 175.59 87.4502 175.918 87.7211 176.195C87.992 176.472 88.3154 176.692 88.6724 176.842C89.0294 176.992 89.4127 177.069 89.8 177.069C90.1872 177.069 90.5706 176.992 90.9276 176.842C91.2846 176.692 91.608 176.472 91.8789 176.195C92.1498 175.918 92.3627 175.59 92.5052 175.23C92.6476 174.87 92.7168 174.485 92.7085 174.098V174.068C92.7011 174.835 92.391 175.568 91.8457 176.108C91.3005 176.647 90.5643 176.949 89.7973 176.949Z" fill="#C1B7FF"/>
<path opacity="0.66" d="M161.708 181.134H70.3658V181.405H161.708V181.134Z" fill="#C1B7FF"/>
<path d="M76.0141 176.346C77.288 176.346 78.3207 175.313 78.3207 174.039C78.3207 172.766 77.288 171.733 76.0141 171.733C74.7403 171.733 73.7076 172.766 73.7076 174.039C73.7076 175.313 74.7403 176.346 76.0141 176.346Z" fill="#C1B7FF"/>
<path d="M82.9324 176.346C84.2063 176.346 85.239 175.313 85.239 174.039C85.239 172.766 84.2063 171.733 82.9324 171.733C81.6586 171.733 80.6259 172.766 80.6259 174.039C80.6259 175.313 81.6586 176.346 82.9324 176.346Z" fill="#DBFF0E"/>
<path d="M89.7973 176.346C91.0712 176.346 92.1039 175.313 92.1039 174.039C92.1039 172.766 91.0712 171.733 89.7973 171.733C88.5235 171.733 87.4908 172.766 87.4908 174.039C87.4908 175.313 88.5235 176.346 89.7973 176.346Z" fill="#FF2995"/>
<path opacity="0.3" d="M77.2762 183.41H74.7514C74.1749 183.41 73.7076 183.877 73.7076 184.454V246.568C73.7076 247.144 74.1749 247.611 74.7514 247.611H77.2762C77.8527 247.611 78.32 247.144 78.32 246.568V184.454C78.32 183.877 77.8527 183.41 77.2762 183.41Z" fill="#C1B7FF"/>
<path d="M76.3557 185.407H75.3468C75.1167 185.407 74.9301 185.594 74.9301 185.824V201.837C74.9301 202.067 75.1167 202.254 75.3468 202.254H76.3557C76.5859 202.254 76.7724 202.067 76.7724 201.837V185.824C76.7724 185.594 76.5859 185.407 76.3557 185.407Z" fill="#C1B7FF"/>
<path d="M85.841 189.248H117.366" stroke="white" stroke-linecap="round" stroke-linejoin="round"/>
<path d="M120.365 189.248H125.491" stroke="white" stroke-linecap="round" stroke-linejoin="round"/>
<path d="M131.144 189.248H153.517" stroke="white" stroke-linecap="round" stroke-linejoin="round"/>
<path d="M85.841 192.481H123.96" stroke="white" stroke-linecap="round" stroke-linejoin="round"/>
<path d="M127.729 191.892H143.225" stroke="white" stroke-linecap="round" stroke-linejoin="round"/>
<path d="M146.099 191.892H153.988" stroke="white" stroke-linecap="round" stroke-linejoin="round"/>
<path d="M87.4908 196.485H132.557" stroke="white" stroke-linecap="round" stroke-linejoin="round"/>
<path d="M137.856 196.485H150.043" stroke="white" stroke-linecap="round" stroke-linejoin="round"/>
<path d="M153.988 200.082H119.132" stroke="white" stroke-linecap="round" stroke-linejoin="round"/>
<path d="M134.088 204.963H85.841" stroke="white" stroke-linecap="round" stroke-linejoin="round"/>
<path d="M119.132 208.025H154.812" stroke="white" stroke-linecap="round" stroke-linejoin="round"/>
<path d="M122.928 209.556H93.5796" stroke="white" stroke-linecap="round" stroke-linejoin="round"/>
<path d="M85.841 200.082H98.643" stroke="white" stroke-linecap="round" stroke-linejoin="round"/>
<path d="M106.415 219.212H97.5834" stroke="white" stroke-linecap="round" stroke-linejoin="round"/>
<path d="M105.59 223.098H85.2185" stroke="white" stroke-linecap="round" stroke-linejoin="round"/>
<path d="M115.482 219.212H119.132" stroke="white" stroke-linecap="round" stroke-linejoin="round"/>
<path d="M122.135 219.212H125.785" stroke="white" stroke-linecap="round" stroke-linejoin="round"/>
<path d="M128.788 219.212H132.439" stroke="white" stroke-linecap="round" stroke-linejoin="round"/>
<path d="M135.442 219.212H139.092" stroke="white" stroke-linecap="round" stroke-linejoin="round"/>
<path d="M142.095 219.212H145.745" stroke="white" stroke-linecap="round" stroke-linejoin="round"/>
<path d="M148.748 219.212H152.398" stroke="white" stroke-linecap="round" stroke-linejoin="round"/>
<path d="M115.482 222.05H117.837" stroke="white" stroke-linecap="round" stroke-linejoin="round"/>
<path d="M120.958 222.05H123.313" stroke="white" stroke-linecap="round" stroke-linejoin="round"/>
<path d="M126.434 222.05H128.789" stroke="white" stroke-linecap="round" stroke-linejoin="round"/>
<path d="M131.909 222.05H134.265" stroke="white" stroke-linecap="round" stroke-linejoin="round"/>
<path d="M137.385 222.05H139.74" stroke="white" stroke-linecap="round" stroke-linejoin="round"/>
<path d="M142.86 222.05H145.216" stroke="white" stroke-linecap="round" stroke-linejoin="round"/>
<path d="M148.336 222.05H150.691" stroke="white" stroke-linecap="round" stroke-linejoin="round"/>
<path d="M88.102 233.608L85.5093 236.201L88.0005 238.692" stroke="white" stroke-linecap="round" stroke-linejoin="round"/>
<path d="M90.6921 233.608L88.0994 236.201L90.5912 238.692" stroke="white" stroke-linecap="round" stroke-linejoin="round"/>
<path d="M97.1126 233.607H152.398" stroke="white" stroke-linecap="round" stroke-linejoin="round"/>
<path d="M97.1126 236.149H130.613" stroke="white" stroke-linecap="round" stroke-linejoin="round"/>
<path d="M97.1126 239.728H130.613" stroke="white" stroke-linecap="round" stroke-linejoin="round"/>
<path opacity="0.3" d="M327.487 214.668H400.32V246.703C400.32 248.018 399.798 249.279 398.868 250.208C397.939 251.138 396.678 251.66 395.363 251.66H332.444C331.129 251.66 329.868 251.138 328.939 250.208C328.009 249.279 327.487 248.018 327.487 246.703V214.668Z" fill="#C1B7FF"/>
<path opacity="0.3" d="M297.867 0.127686H427.732V183.649C427.732 184.963 427.21 186.224 426.28 187.154C425.351 188.083 424.09 188.605 422.775 188.605H302.823C301.509 188.605 300.248 188.083 299.318 187.154C298.389 186.224 297.867 184.963 297.867 183.649V0.127686Z" fill="#C1B7FF"/>
<path opacity="0.3" d="M418.002 24.8983H315.133V114.905H418.002V24.8983Z" fill="#C1B7FF"/>
<path opacity="0.3" d="M351.305 139.323H315.133V150.779H351.305V139.323Z" fill="#C1B7FF"/>
<path opacity="0.3" d="M418.002 139.323H356.734V150.779H418.002V139.323Z" fill="#C1B7FF"/>
<path opacity="0.3" d="M418.002 157.662H315.133V173.647H418.002V157.662Z" fill="#C1B7FF"/>
<path opacity="0.3" d="M427.732 0.127686H297.867V19.399H427.732V0.127686Z" fill="#C1B7FF"/>
<path opacity="0.3" d="M305.627 13.2746C307.834 13.2746 309.624 11.4853 309.624 9.27802C309.624 7.07078 307.834 5.28146 305.627 5.28146C303.42 5.28146 301.63 7.07078 301.63 9.27802C301.63 11.4853 303.42 13.2746 305.627 13.2746Z" fill="#C1B7FF"/>
<path d="M305.626 13.2752C304.574 13.2744 303.565 12.8585 302.817 12.1177C302.07 11.3769 301.645 10.3712 301.634 9.31891C301.634 9.33342 301.63 9.34594 301.63 9.36045C301.621 9.89139 301.717 10.4189 301.914 10.9123C302.11 11.4056 302.403 11.8548 302.775 12.2337C303.147 12.6126 303.591 12.9136 304.081 13.119C304.57 13.3245 305.096 13.4303 305.627 13.4303C306.158 13.4303 306.684 13.3245 307.173 13.119C307.663 12.9136 308.107 12.6126 308.479 12.2337C308.851 11.8548 309.144 11.4056 309.34 10.9123C309.537 10.4189 309.633 9.89139 309.624 9.36045C309.624 9.34594 309.62 9.33342 309.62 9.31891C309.609 10.3714 309.184 11.3774 308.436 12.1182C307.689 12.859 306.679 13.2748 305.626 13.2752Z" fill="#C1B7FF"/>
<path opacity="0.3" d="M315.133 13.2746C317.341 13.2746 319.13 11.4853 319.13 9.27802C319.13 7.07078 317.341 5.28146 315.133 5.28146C312.926 5.28146 311.137 7.07078 311.137 9.27802C311.137 11.4853 312.926 13.2746 315.133 13.2746Z" fill="#C1B7FF"/>
<path d="M315.134 13.2752C314.082 13.2748 313.072 12.859 312.324 12.1182C311.576 11.3774 311.151 10.3714 311.141 9.31891C311.141 9.33342 311.137 9.34594 311.137 9.36045C311.127 9.89139 311.223 10.4189 311.42 10.9123C311.617 11.4056 311.909 11.8548 312.281 12.2337C312.654 12.6126 313.097 12.9136 313.587 13.119C314.077 13.3245 314.602 13.4303 315.133 13.4303C315.664 13.4303 316.19 13.3245 316.68 13.119C317.17 12.9136 317.613 12.6126 317.985 12.2337C318.358 11.8548 318.65 11.4056 318.847 10.9123C319.043 10.4189 319.14 9.89139 319.13 9.36045C319.13 9.34594 319.126 9.33342 319.126 9.31891C319.116 10.3712 318.691 11.3769 317.943 12.1177C317.196 12.8585 316.186 13.2744 315.134 13.2752Z" fill="#C1B7FF"/>
<path opacity="0.3" d="M324.566 13.2746C326.773 13.2746 328.563 11.4853 328.563 9.27802C328.563 7.07078 326.773 5.28146 324.566 5.28146C322.359 5.28146 320.569 7.07078 320.569 9.27802C320.569 11.4853 322.359 13.2746 324.566 13.2746Z" fill="#C1B7FF"/>
<path d="M324.567 13.2752C323.514 13.2748 322.504 12.859 321.757 12.1182C321.009 11.3774 320.584 10.3714 320.573 9.31891C320.573 9.33342 320.569 9.34594 320.569 9.36045C320.56 9.89148 320.656 10.4191 320.853 10.9125C321.049 11.4059 321.342 11.8552 321.714 12.2342C322.086 12.6131 322.53 12.9141 323.02 13.1196C323.51 13.3251 324.036 13.4309 324.567 13.4309C325.098 13.4309 325.624 13.3251 326.113 13.1196C326.603 12.9141 327.047 12.6131 327.419 12.2342C327.791 11.8552 328.084 11.4059 328.281 10.9125C328.477 10.4191 328.574 9.89148 328.564 9.36045C328.564 9.34594 328.56 9.33342 328.559 9.31891C328.549 10.3712 328.124 11.3771 327.376 12.1179C326.629 12.8587 325.619 13.2746 324.567 13.2752Z" fill="#C1B7FF"/>
<path opacity="0.66" d="M427.732 19.0277H297.867V19.399H427.732V19.0277Z" fill="#C1B7FF"/>
<path d="M305.627 12.447C307.377 12.447 308.796 11.0282 308.796 9.27801C308.796 7.52781 307.377 6.10899 305.627 6.10899C303.877 6.10899 302.458 7.52781 302.458 9.27801C302.458 11.0282 303.877 12.447 305.627 12.447Z" fill="#C1B7FF"/>
<path d="M315.133 12.447C316.884 12.447 318.302 11.0282 318.302 9.27801C318.302 7.52781 316.884 6.10899 315.133 6.10899C313.383 6.10899 311.964 7.52781 311.964 9.27801C311.964 11.0282 313.383 12.447 315.133 12.447Z" fill="#DBFF0E"/>
<path d="M324.567 12.447C326.317 12.447 327.736 11.0282 327.736 9.27801C327.736 7.52781 326.317 6.10899 324.567 6.10899C322.816 6.10899 321.398 7.52781 321.398 9.27801C321.398 11.0282 322.816 12.447 324.567 12.447Z" fill="#FF2995"/>
<path opacity="0.3" d="M307.181 22.1539H304.072C303.181 22.1539 302.458 22.8766 302.458 23.7681V179.371C302.458 180.263 303.181 180.985 304.072 180.985H307.181C308.073 180.985 308.795 180.263 308.795 179.371V23.7681C308.795 22.8766 308.073 22.1539 307.181 22.1539Z" fill="#C1B7FF"/>
<path d="M306.025 24.8983H304.782C304.426 24.8983 304.138 25.187 304.138 25.5432V47.4012C304.138 47.7574 304.426 48.0461 304.782 48.0461H306.025C306.381 48.0461 306.67 47.7574 306.67 47.4012V25.5432C306.67 25.187 306.381 24.8983 306.025 24.8983Z" fill="#C1B7FF"/>
<path d="M319.13 30.176H362.447" stroke="white" stroke-linecap="round" stroke-linejoin="round"/>
<path d="M366.568 30.176H373.611" stroke="white" stroke-linecap="round" stroke-linejoin="round"/>
<path d="M381.378 30.176H412.121" stroke="white" stroke-linecap="round" stroke-linejoin="round"/>
<path d="M319.13 34.6183H371.508" stroke="white" stroke-linecap="round" stroke-linejoin="round"/>
<path d="M376.686 33.8093H397.978" stroke="white" stroke-linecap="round" stroke-linejoin="round"/>
<path d="M401.927 33.8093H412.768" stroke="white" stroke-linecap="round" stroke-linejoin="round"/>
<path d="M321.398 40.1196H383.32" stroke="white" stroke-linecap="round" stroke-linejoin="round"/>
<path d="M390.601 40.1196H407.348" stroke="white" stroke-linecap="round" stroke-linejoin="round"/>
<path d="M412.768 45.0617H364.874" stroke="white" stroke-linecap="round" stroke-linejoin="round"/>
<path d="M385.423 51.7697H319.13" stroke="white" stroke-linecap="round" stroke-linejoin="round"/>
<path d="M364.874 55.9766H413.901" stroke="white" stroke-linecap="round" stroke-linejoin="round"/>
<path d="M360.952 68.4087H320.626" stroke="white" stroke-linecap="round" stroke-linejoin="round"/>
<path d="M319.13 45.0617H336.721" stroke="white" stroke-linecap="round" stroke-linejoin="round"/>
<path d="M347.4 141.964H335.265" stroke="white" stroke-linecap="round" stroke-linejoin="round"/>
<path d="M346.267 147.303H318.275" stroke="white" stroke-linecap="round" stroke-linejoin="round"/>
<path d="M359.858 141.964H364.874" stroke="white" stroke-linecap="round" stroke-linejoin="round"/>
<path d="M369 141.964H374.016" stroke="white" stroke-linecap="round" stroke-linejoin="round"/>
<path d="M378.142 141.964H383.158" stroke="white" stroke-linecap="round" stroke-linejoin="round"/>
<path d="M387.284 141.964H392.3" stroke="white" stroke-linecap="round" stroke-linejoin="round"/>
<path d="M396.426 141.964H401.442" stroke="white" stroke-linecap="round" stroke-linejoin="round"/>
<path d="M405.567 141.964H410.583" stroke="white" stroke-linecap="round" stroke-linejoin="round"/>
<path d="M359.858 145.862H363.095" stroke="white" stroke-linecap="round" stroke-linejoin="round"/>
<path d="M367.382 145.862H370.618" stroke="white" stroke-linecap="round" stroke-linejoin="round"/>
<path d="M374.906 145.862H378.142" stroke="white" stroke-linecap="round" stroke-linejoin="round"/>
<path d="M382.43 145.862H385.666" stroke="white" stroke-linecap="round" stroke-linejoin="round"/>
<path d="M389.954 145.862H393.19" stroke="white" stroke-linecap="round" stroke-linejoin="round"/>
<path d="M397.477 145.862H400.714" stroke="white" stroke-linecap="round" stroke-linejoin="round"/>
<path d="M405.002 145.862H408.238" stroke="white" stroke-linecap="round" stroke-linejoin="round"/>
<path d="M322.235 161.744L318.674 165.305L322.098 168.728" stroke="white" stroke-linecap="round" stroke-linejoin="round"/>
<path d="M325.794 161.744L322.234 165.305L325.657 168.728" stroke="white" stroke-linecap="round" stroke-linejoin="round"/>
<path d="M355.41 76.568L347.4 84.5782L355.098 92.2766" stroke="white" stroke-linecap="round" stroke-linejoin="round"/>
<path d="M363.421 76.568L355.411 84.5782L363.109 92.2766" stroke="white" stroke-linecap="round" stroke-linejoin="round"/>
<path d="M334.618 161.744H410.584" stroke="white" stroke-linecap="round" stroke-linejoin="round"/>
<path d="M334.618 165.237H380.65" stroke="white" stroke-linecap="round" stroke-linejoin="round"/>
<path d="M334.618 170.154H380.65" stroke="white" stroke-linecap="round" stroke-linejoin="round"/>
<path d="M384.857 96.2718C393.615 96.2718 400.714 89.1724 400.714 80.4148C400.714 71.6573 393.615 64.5579 384.857 64.5579C376.1 64.5579 369 71.6573 369 80.4148C369 89.1724 376.1 96.2718 384.857 96.2718Z" stroke="white" stroke-linecap="round" stroke-linejoin="round"/>
<path d="M378.506 84.4219C378.506 86.1062 379.175 87.7215 380.366 88.9125C381.557 90.1034 383.172 90.7725 384.857 90.7725C386.541 90.7725 388.156 90.1034 389.347 88.9125C390.538 87.7215 391.207 86.1062 391.207 84.4219H378.506Z" stroke="white" stroke-linecap="round" stroke-linejoin="round"/>
<path d="M375.427 77.8136C375.427 76.9967 375.751 76.2133 376.329 75.6357C376.906 75.0581 377.69 74.7336 378.507 74.7336C379.323 74.7336 380.107 75.0581 380.685 75.6357C381.262 76.2133 381.587 76.9967 381.587 77.8136" stroke="white" stroke-linecap="round" stroke-linejoin="round"/>
<path d="M388.128 77.8135C388.128 76.9968 388.452 76.2136 389.03 75.6361C389.607 75.0586 390.39 74.7342 391.207 74.7342C392.024 74.7342 392.807 75.0586 393.385 75.6361C393.962 76.2136 394.286 76.9968 394.286 77.8135" stroke="white" stroke-linecap="round" stroke-linejoin="round"/>
<path d="M398.23 95.7469H411.302" stroke="white" stroke-linecap="round" stroke-linejoin="round"/>
<path opacity="0.3" d="M377.323 225.449H335.002V241.521H377.323V225.449Z" fill="#C1B7FF"/>
<path opacity="0.3" d="M400.32 214.668H327.487V223.056H400.32V214.668Z" fill="#C1B7FF"/>
<path opacity="0.3" d="M330.865 220.39C331.825 220.39 332.604 219.612 332.604 218.651C332.604 217.69 331.825 216.912 330.865 216.912C329.904 216.912 329.125 217.69 329.125 218.651C329.125 219.612 329.904 220.39 330.865 220.39Z" fill="#C1B7FF"/>
<path d="M330.864 220.391C330.406 220.391 329.966 220.209 329.641 219.887C329.316 219.564 329.131 219.126 329.127 218.668V218.686C329.123 218.917 329.164 219.147 329.25 219.362C329.335 219.577 329.462 219.773 329.624 219.938C329.786 220.103 329.98 220.235 330.193 220.324C330.406 220.414 330.636 220.46 330.867 220.46C331.098 220.46 331.327 220.414 331.541 220.324C331.754 220.235 331.947 220.103 332.109 219.938C332.271 219.773 332.399 219.577 332.484 219.362C332.569 219.147 332.611 218.917 332.607 218.686V218.668C332.602 219.127 332.417 219.566 332.09 219.889C331.764 220.211 331.323 220.392 330.864 220.391Z" fill="#C1B7FF"/>
<path opacity="0.3" d="M335.002 220.39C335.963 220.39 336.742 219.612 336.742 218.651C336.742 217.69 335.963 216.912 335.002 216.912C334.042 216.912 333.263 217.69 333.263 218.651C333.263 219.612 334.042 220.39 335.002 220.39Z" fill="#C1B7FF"/>
<path d="M335.002 220.391C334.544 220.391 334.104 220.21 333.779 219.887C333.453 219.564 333.268 219.126 333.264 218.668V218.686C333.26 218.917 333.301 219.147 333.387 219.362C333.472 219.577 333.599 219.773 333.761 219.938C333.923 220.103 334.117 220.235 334.33 220.324C334.543 220.414 334.772 220.46 335.004 220.46C335.235 220.46 335.464 220.414 335.678 220.324C335.891 220.235 336.084 220.103 336.246 219.938C336.408 219.773 336.536 219.577 336.621 219.362C336.706 219.147 336.748 218.917 336.744 218.686V218.668C336.739 219.127 336.554 219.566 336.228 219.888C335.902 220.211 335.461 220.392 335.002 220.391Z" fill="#C1B7FF"/>
<path opacity="0.3" d="M339.108 220.39C340.068 220.39 340.847 219.612 340.847 218.651C340.847 217.69 340.068 216.912 339.108 216.912C338.147 216.912 337.368 217.69 337.368 218.651C337.368 219.612 338.147 220.39 339.108 220.39Z" fill="#C1B7FF"/>
<path d="M339.107 220.391C338.649 220.391 338.209 220.209 337.884 219.887C337.559 219.564 337.374 219.126 337.37 218.668V218.686C337.366 218.917 337.407 219.147 337.493 219.362C337.578 219.577 337.705 219.773 337.867 219.938C338.029 220.103 338.222 220.234 338.436 220.324C338.649 220.413 338.878 220.459 339.109 220.459C339.341 220.459 339.569 220.413 339.783 220.324C339.996 220.234 340.189 220.103 340.351 219.938C340.513 219.773 340.64 219.577 340.726 219.362C340.811 219.147 340.853 218.917 340.848 218.686V218.668C340.844 219.127 340.659 219.566 340.333 219.888C340.006 220.211 339.566 220.392 339.107 220.391Z" fill="#C1B7FF"/>
<path opacity="0.66" d="M400.32 222.894H327.487V223.056H400.32V222.894Z" fill="#C1B7FF"/>
<path d="M330.865 220.03C331.627 220.03 332.245 219.413 332.245 218.651C332.245 217.889 331.627 217.272 330.865 217.272C330.103 217.272 329.486 217.889 329.486 218.651C329.486 219.413 330.103 220.03 330.865 220.03Z" fill="#C1B7FF"/>
<path d="M335.002 220.03C335.764 220.03 336.382 219.413 336.382 218.651C336.382 217.889 335.764 217.272 335.002 217.272C334.24 217.272 333.623 217.889 333.623 218.651C333.623 219.413 334.24 220.03 335.002 220.03Z" fill="#DBFF0E"/>
<path d="M339.108 220.03C339.87 220.03 340.488 219.413 340.488 218.651C340.488 217.889 339.87 217.272 339.108 217.272C338.346 217.272 337.729 217.889 337.729 218.651C337.729 219.413 338.346 220.03 339.108 220.03Z" fill="#FF2995"/>
<path opacity="0.3" d="M331.542 224.255H330.188C329.8 224.255 329.486 224.57 329.486 224.957V247.642C329.486 248.03 329.8 248.344 330.188 248.344H331.542C331.93 248.344 332.244 248.03 332.244 247.642V224.957C332.244 224.57 331.93 224.255 331.542 224.255Z" fill="#C1B7FF"/>
<path d="M331.037 225.449H330.497C330.342 225.449 330.216 225.575 330.216 225.73V235.243C330.216 235.398 330.342 235.524 330.497 235.524H331.037C331.192 235.524 331.318 235.398 331.318 235.243V225.73C331.318 225.575 331.192 225.449 331.037 225.449Z" fill="#C1B7FF"/>
<path d="M349.905 227.172H336.582C336.552 227.174 336.521 227.169 336.492 227.159C336.463 227.148 336.437 227.132 336.415 227.111C336.392 227.09 336.375 227.064 336.362 227.036C336.35 227.008 336.344 226.977 336.344 226.946C336.344 226.916 336.35 226.885 336.362 226.857C336.375 226.829 336.392 226.803 336.415 226.782C336.437 226.761 336.463 226.745 336.492 226.734C336.521 226.724 336.552 226.719 336.582 226.721H349.906C349.937 226.719 349.967 226.724 349.996 226.734C350.025 226.745 350.051 226.761 350.074 226.782C350.096 226.803 350.114 226.829 350.126 226.857C350.138 226.885 350.144 226.916 350.144 226.946C350.144 226.977 350.138 227.008 350.126 227.036C350.114 227.064 350.096 227.09 350.074 227.111C350.051 227.132 350.025 227.148 349.996 227.159C349.967 227.169 349.937 227.174 349.906 227.172H349.905Z" fill="white"/>
<path d="M352.745 227.172H350.952C350.921 227.174 350.891 227.169 350.862 227.159C350.833 227.148 350.807 227.132 350.784 227.111C350.762 227.09 350.744 227.064 350.732 227.036C350.72 227.008 350.714 226.977 350.714 226.946C350.714 226.916 350.72 226.885 350.732 226.857C350.744 226.829 350.762 226.803 350.784 226.782C350.807 226.761 350.833 226.745 350.862 226.734C350.891 226.724 350.921 226.719 350.952 226.721H352.744C352.774 226.719 352.805 226.724 352.834 226.734C352.863 226.745 352.889 226.761 352.911 226.782C352.934 226.803 352.952 226.829 352.964 226.857C352.976 226.885 352.982 226.916 352.982 226.946C352.982 226.977 352.976 227.008 352.964 227.036C352.952 227.064 352.934 227.09 352.911 227.111C352.889 227.132 352.863 227.148 352.834 227.159C352.805 227.169 352.774 227.174 352.744 227.172H352.745Z" fill="white"/>
<path d="M370.878 227.172H354.723C354.693 227.174 354.662 227.169 354.633 227.159C354.604 227.148 354.578 227.132 354.555 227.111C354.533 227.09 354.515 227.064 354.503 227.036C354.491 227.008 354.485 226.977 354.485 226.946C354.485 226.916 354.491 226.885 354.503 226.857C354.515 226.829 354.533 226.803 354.555 226.782C354.578 226.761 354.604 226.745 354.633 226.734C354.662 226.724 354.693 226.719 354.723 226.721H370.878C370.909 226.719 370.94 226.724 370.968 226.734C370.997 226.745 371.024 226.761 371.046 226.782C371.068 226.803 371.086 226.829 371.098 226.857C371.11 226.885 371.117 226.916 371.117 226.946C371.117 226.977 371.11 227.008 371.098 227.036C371.086 227.064 371.068 227.09 371.046 227.111C371.024 227.132 370.997 227.148 370.968 227.159C370.94 227.169 370.909 227.174 370.878 227.172Z" fill="white"/>
<path d="M352.21 228.303H336.582C336.551 228.304 336.521 228.3 336.492 228.289C336.463 228.278 336.437 228.262 336.414 228.241C336.392 228.22 336.374 228.194 336.362 228.166C336.35 228.138 336.344 228.107 336.344 228.077C336.344 228.046 336.35 228.016 336.362 227.987C336.374 227.959 336.392 227.934 336.414 227.912C336.437 227.891 336.463 227.875 336.492 227.864C336.521 227.854 336.551 227.849 336.582 227.851H352.21C352.267 227.854 352.322 227.879 352.362 227.921C352.401 227.963 352.424 228.019 352.424 228.077C352.424 228.135 352.401 228.19 352.362 228.232C352.322 228.274 352.267 228.299 352.21 228.303Z" fill="white"/>
<path d="M367.281 228.097H353.527C353.496 228.098 353.466 228.094 353.437 228.083C353.408 228.073 353.382 228.056 353.359 228.035C353.337 228.014 353.319 227.989 353.307 227.96C353.295 227.932 353.289 227.902 353.289 227.871C353.289 227.84 353.295 227.81 353.307 227.782C353.319 227.753 353.337 227.728 353.359 227.707C353.382 227.686 353.408 227.669 353.437 227.659C353.466 227.648 353.496 227.643 353.527 227.645H367.281C367.339 227.648 367.393 227.673 367.433 227.715C367.473 227.757 367.495 227.813 367.495 227.871C367.495 227.929 367.473 227.984 367.433 228.026C367.393 228.069 367.339 228.094 367.281 228.097Z" fill="white"/>
<path d="M371.043 228.097H368.286C368.255 228.098 368.225 228.094 368.196 228.083C368.167 228.073 368.141 228.056 368.118 228.035C368.096 228.014 368.078 227.989 368.066 227.96C368.054 227.932 368.048 227.902 368.048 227.871C368.048 227.84 368.054 227.81 368.066 227.782C368.078 227.753 368.096 227.728 368.118 227.707C368.141 227.686 368.167 227.669 368.196 227.659C368.225 227.648 368.255 227.643 368.286 227.645H371.043C371.074 227.643 371.104 227.648 371.133 227.659C371.162 227.669 371.189 227.686 371.211 227.707C371.233 227.728 371.251 227.753 371.263 227.782C371.275 227.81 371.281 227.84 371.281 227.871C371.281 227.902 371.275 227.932 371.263 227.96C371.251 227.989 371.233 228.014 371.211 228.035C371.189 228.056 371.162 228.073 371.133 228.083C371.104 228.094 371.074 228.098 371.043 228.097Z" fill="white"/>
<path d="M355.215 229.703H337.158C337.128 229.705 337.097 229.7 337.068 229.689C337.039 229.679 337.013 229.662 336.99 229.641C336.968 229.62 336.95 229.594 336.938 229.566C336.926 229.538 336.919 229.507 336.919 229.477C336.919 229.446 336.926 229.415 336.938 229.387C336.95 229.359 336.968 229.333 336.99 229.312C337.013 229.291 337.039 229.274 337.068 229.264C337.097 229.253 337.128 229.248 337.158 229.25H355.216C355.247 229.248 355.277 229.253 355.306 229.264C355.335 229.274 355.362 229.291 355.384 229.312C355.406 229.333 355.424 229.359 355.436 229.387C355.449 229.415 355.455 229.446 355.455 229.477C355.455 229.507 355.449 229.538 355.436 229.566C355.424 229.594 355.406 229.62 355.384 229.641C355.362 229.662 355.335 229.679 355.306 229.689C355.277 229.7 355.247 229.705 355.216 229.703H355.215Z" fill="white"/>
<path d="M369.664 229.703H365.405C365.374 229.705 365.343 229.7 365.314 229.689C365.285 229.679 365.259 229.662 365.236 229.641C365.214 229.62 365.196 229.594 365.184 229.566C365.172 229.538 365.166 229.507 365.166 229.477C365.166 229.446 365.172 229.415 365.184 229.387C365.196 229.359 365.214 229.333 365.236 229.312C365.259 229.291 365.285 229.274 365.314 229.264C365.343 229.253 365.374 229.248 365.405 229.25H369.664C369.695 229.248 369.726 229.253 369.755 229.264C369.784 229.274 369.81 229.291 369.833 229.312C369.855 229.333 369.873 229.359 369.885 229.387C369.897 229.415 369.903 229.446 369.903 229.477C369.903 229.507 369.897 229.538 369.885 229.566C369.873 229.594 369.855 229.62 369.833 229.641C369.81 229.662 369.784 229.679 369.755 229.689C369.726 229.7 369.695 229.705 369.664 229.703Z" fill="white"/>
<path d="M371.043 230.96H350.523C350.465 230.957 350.41 230.932 350.37 230.889C350.331 230.847 350.308 230.791 350.308 230.733C350.308 230.675 350.331 230.619 350.37 230.577C350.41 230.535 350.465 230.51 350.523 230.507H371.043C371.074 230.505 371.105 230.51 371.134 230.52C371.162 230.531 371.189 230.548 371.211 230.569C371.234 230.59 371.251 230.615 371.264 230.644C371.276 230.672 371.282 230.703 371.282 230.733C371.282 230.764 371.276 230.795 371.264 230.823C371.251 230.851 371.234 230.877 371.211 230.898C371.189 230.919 371.162 230.936 371.134 230.946C371.105 230.957 371.074 230.962 371.043 230.96Z" fill="white"/>
<path d="M355.751 232.666H336.582C336.551 232.667 336.521 232.663 336.492 232.652C336.463 232.641 336.436 232.625 336.414 232.604C336.391 232.583 336.374 232.557 336.362 232.529C336.349 232.5 336.343 232.47 336.343 232.439C336.343 232.408 336.349 232.378 336.362 232.35C336.374 232.321 336.391 232.296 336.414 232.275C336.436 232.253 336.463 232.237 336.492 232.226C336.521 232.216 336.551 232.211 336.582 232.213H355.751C355.809 232.216 355.864 232.241 355.904 232.283C355.944 232.325 355.966 232.381 355.966 232.439C355.966 232.497 355.944 232.553 355.904 232.595C355.864 232.637 355.809 232.663 355.751 232.666Z" fill="white"/>
<path d="M371.332 233.737H350.522C350.464 233.733 350.41 233.708 350.37 233.666C350.33 233.624 350.308 233.568 350.308 233.51C350.308 233.452 350.33 233.396 350.37 233.354C350.41 233.312 350.464 233.287 350.522 233.284H371.331C371.362 233.282 371.393 233.286 371.422 233.297C371.451 233.308 371.477 233.324 371.499 233.345C371.522 233.367 371.54 233.392 371.552 233.42C371.564 233.449 371.57 233.479 371.57 233.51C371.57 233.541 371.564 233.571 371.552 233.6C371.54 233.628 371.522 233.653 371.499 233.675C371.477 233.696 371.451 233.712 371.422 233.723C371.393 233.734 371.362 233.738 371.331 233.737H371.332Z" fill="white"/>
<path d="M345.012 234.271H339.286C339.255 234.272 339.224 234.268 339.195 234.257C339.167 234.246 339.14 234.23 339.118 234.209C339.096 234.188 339.078 234.162 339.066 234.134C339.053 234.106 339.047 234.076 339.047 234.045C339.047 234.014 339.053 233.984 339.066 233.955C339.078 233.927 339.096 233.902 339.118 233.881C339.14 233.859 339.167 233.843 339.195 233.833C339.224 233.822 339.255 233.817 339.286 233.819H345.012C345.043 233.817 345.074 233.822 345.103 233.833C345.131 233.843 345.158 233.859 345.18 233.881C345.202 233.902 345.22 233.927 345.232 233.955C345.245 233.984 345.251 234.014 345.251 234.045C345.251 234.076 345.245 234.106 345.232 234.134C345.22 234.162 345.202 234.188 345.18 234.209C345.158 234.23 345.131 234.246 345.103 234.257C345.074 234.268 345.043 234.272 345.012 234.271Z" fill="white"/>
<path d="M341.055 230.96H336.582C336.551 230.962 336.521 230.957 336.492 230.946C336.463 230.936 336.436 230.919 336.414 230.898C336.391 230.877 336.374 230.851 336.362 230.823C336.349 230.795 336.343 230.764 336.343 230.733C336.343 230.703 336.349 230.672 336.362 230.644C336.374 230.615 336.391 230.59 336.414 230.569C336.436 230.548 336.463 230.531 336.492 230.52C336.521 230.51 336.551 230.505 336.582 230.507H341.055C341.113 230.51 341.168 230.535 341.208 230.577C341.248 230.619 341.27 230.675 341.27 230.733C341.27 230.791 341.248 230.847 341.208 230.889C341.168 230.932 341.113 230.957 341.055 230.96Z" fill="white"/>
<path opacity="0.3" d="M120.138 55.7669H17.2699V92.6927H120.138V55.7669Z" fill="#C1B7FF"/>
<path opacity="0.3" d="M53.4413 99.5754H17.2699V111.031H53.4413V99.5754Z" fill="#C1B7FF"/>
<path opacity="0.3" d="M120.138 99.5754H58.8707V111.031H120.138V99.5754Z" fill="#C1B7FF"/>
<path opacity="0.3" d="M182.96 55.7669H126.962V71.7525H182.96V55.7669Z" fill="#C1B7FF"/>
<path opacity="0.3" d="M182.959 117.914H17.2699V133.9H182.959V117.914Z" fill="#C1B7FF"/>
<path opacity="0.3" d="M182.96 75.9303H126.962V112.307H182.96V75.9303Z" fill="#C1B7FF"/>
<path opacity="0.3" d="M193.184 30.9963H0.00311279V50.2676H193.184V30.9963Z" fill="#C1B7FF"/>
<path opacity="0.3" d="M7.76346 44.1432C9.9707 44.1432 11.76 42.3539 11.76 40.1467C11.76 37.9394 9.9707 36.1501 7.76346 36.1501C5.55622 36.1501 3.76691 37.9394 3.76691 40.1467C3.76691 42.3539 5.55622 44.1432 7.76346 44.1432Z" fill="#C1B7FF"/>
<path d="M7.76412 44.1432C6.71152 44.1429 5.70157 43.7271 4.95381 42.9863C4.20606 42.2455 3.78094 41.2394 3.77087 40.1869C3.77087 40.2014 3.76691 40.2139 3.76691 40.2284C3.75726 40.7594 3.85351 41.2869 4.05002 41.7802C4.24654 42.2736 4.53938 42.7228 4.91145 43.1017C5.28352 43.4806 5.72736 43.7815 6.21704 43.987C6.70672 44.1924 7.23243 44.2982 7.76346 44.2982C8.29449 44.2982 8.8202 44.1924 9.30988 43.987C9.79956 43.7815 10.2434 43.4806 10.6155 43.1017C10.9875 42.7228 11.2804 42.2736 11.4769 41.7802C11.6734 41.2869 11.7697 40.7594 11.76 40.2284C11.76 40.2139 11.7561 40.2014 11.7561 40.1869C11.746 41.2392 11.321 42.245 10.5736 42.9858C9.82611 43.7266 8.8165 44.1426 7.76412 44.1432Z" fill="#C1B7FF"/>
<path opacity="0.3" d="M17.2699 44.1432C19.4771 44.1432 21.2664 42.3539 21.2664 40.1467C21.2664 37.9394 19.4771 36.1501 17.2699 36.1501C15.0626 36.1501 13.2733 37.9394 13.2733 40.1467C13.2733 42.3539 15.0626 44.1432 17.2699 44.1432Z" fill="#C1B7FF"/>
<path d="M17.2699 44.1432C16.2173 44.1429 15.2073 43.7271 14.4596 42.9863C13.7118 42.2455 13.2867 41.2394 13.2766 40.1869C13.2766 40.2014 13.2726 40.2139 13.2726 40.2284C13.263 40.7594 13.3593 41.2871 13.5558 41.7805C13.7524 42.2739 14.0452 42.7232 14.4174 43.1022C14.7895 43.4811 15.2334 43.7821 15.7232 43.9876C16.2129 44.1931 16.7387 44.2989 17.2699 44.2989C17.801 44.2989 18.3268 44.1931 18.8165 43.9876C19.3063 43.7821 19.7502 43.4811 20.1223 43.1022C20.4945 42.7232 20.7874 42.2739 20.9839 41.7805C21.1805 41.2871 21.2767 40.7594 21.2671 40.2284C21.2671 40.2139 21.2631 40.2014 21.2631 40.1869C21.2529 41.2394 20.8277 42.2453 20.08 42.9861C19.3323 43.7269 18.3224 44.1427 17.2699 44.1432Z" fill="#C1B7FF"/>
<path opacity="0.3" d="M26.7024 44.1432C28.9097 44.1432 30.699 42.3539 30.699 40.1467C30.699 37.9394 28.9097 36.1501 26.7024 36.1501C24.4952 36.1501 22.7059 37.9394 22.7059 40.1467C22.7059 42.3539 24.4952 44.1432 26.7024 44.1432Z" fill="#C1B7FF"/>
<path d="M26.7024 44.1432C25.65 44.1426 24.6404 43.7266 23.893 42.9858C23.1455 42.245 22.7206 41.2392 22.7105 40.1869C22.7105 40.2014 22.7065 40.2139 22.7065 40.2284C22.6969 40.7594 22.7931 41.2869 22.9896 41.7802C23.1862 42.2736 23.479 42.7228 23.8511 43.1017C24.2231 43.4806 24.667 43.7815 25.1567 43.987C25.6463 44.1924 26.172 44.2982 26.7031 44.2982C27.2341 44.2982 27.7598 44.1924 28.2495 43.987C28.7392 43.7815 29.183 43.4806 29.5551 43.1017C29.9272 42.7228 30.22 42.2736 30.4165 41.7802C30.613 41.2869 30.7093 40.7594 30.6996 40.2284C30.6996 40.2139 30.6957 40.2014 30.6957 40.1869C30.6856 41.2394 30.2605 42.2455 29.5127 42.9863C28.765 43.7271 27.755 44.1429 26.7024 44.1432Z" fill="#C1B7FF"/>
<path opacity="0.66" d="M193.184 49.8964H0.00311279V50.2676H193.184V49.8964Z" fill="#C1B7FF"/>
<path d="M7.76346 43.3157C9.51366 43.3157 10.9325 41.8969 10.9325 40.1467C10.9325 38.3965 9.51366 36.9776 7.76346 36.9776C6.01326 36.9776 4.59444 38.3965 4.59444 40.1467C4.59444 41.8969 6.01326 43.3157 7.76346 43.3157Z" fill="#C1B7FF"/>
<path d="M17.2699 43.3157C19.0201 43.3157 20.4389 41.8969 20.4389 40.1467C20.4389 38.3965 19.0201 36.9776 17.2699 36.9776C15.5197 36.9776 14.1008 38.3965 14.1008 40.1467C14.1008 41.8969 15.5197 43.3157 17.2699 43.3157Z" fill="#DBFF0E"/>
<path d="M26.7031 43.3157C28.4533 43.3157 29.8721 41.8969 29.8721 40.1467C29.8721 38.3965 28.4533 36.9776 26.7031 36.9776C24.9529 36.9776 23.5341 38.3965 23.5341 40.1467C23.5341 41.8969 24.9529 43.3157 26.7031 43.3157Z" fill="#FF2995"/>
<path opacity="0.3" d="M9.31764 53.0225H6.20862C5.31713 53.0225 4.59444 53.7452 4.59444 54.6367V139.624C4.59444 140.515 5.31713 141.238 6.20862 141.238H9.31764C10.2091 141.238 10.9318 140.515 10.9318 139.624V54.6367C10.9318 53.7452 10.2091 53.0225 9.31764 53.0225Z" fill="#C1B7FF"/>
<path d="M8.16107 55.7669H6.91878C6.56263 55.7669 6.2739 56.0556 6.2739 56.4118V78.2699C6.2739 78.626 6.56263 78.9147 6.91878 78.9147H8.16107C8.51723 78.9147 8.80595 78.626 8.80595 78.2699V56.4118C8.80595 56.0556 8.51723 55.7669 8.16107 55.7669Z" fill="#C1B7FF"/>
<path d="M21.2664 61.0447H64.5836" stroke="white" stroke-linecap="round" stroke-linejoin="round"/>
<path d="M68.7041 61.0447H75.7477" stroke="white" stroke-linecap="round" stroke-linejoin="round"/>
<path d="M83.5147 61.0447H114.257" stroke="white" stroke-linecap="round" stroke-linejoin="round"/>
<path d="M21.2664 65.487H73.6443" stroke="white" stroke-linecap="round" stroke-linejoin="round"/>
<path d="M78.8225 64.6779H100.115" stroke="white" stroke-linecap="round" stroke-linejoin="round"/>
<path d="M104.063 64.6779H114.904" stroke="white" stroke-linecap="round" stroke-linejoin="round"/>
<path d="M23.5341 70.9882H85.4566" stroke="white" stroke-linecap="round" stroke-linejoin="round"/>
<path d="M92.7375 70.9882H109.484" stroke="white" stroke-linecap="round" stroke-linejoin="round"/>
<path d="M114.904 75.9303H67.0108" stroke="white" stroke-linecap="round" stroke-linejoin="round"/>
<path d="M87.5594 82.6383H21.2664" stroke="white" stroke-linecap="round" stroke-linejoin="round"/>
<path d="M67.0108 86.8452H116.037" stroke="white" stroke-linecap="round" stroke-linejoin="round"/>
<path d="M72.2259 88.9487H31.8997" stroke="white" stroke-linecap="round" stroke-linejoin="round"/>
<path d="M21.2664 75.9303H38.8569" stroke="white" stroke-linecap="round" stroke-linejoin="round"/>
<path d="M49.5364 102.216H37.401" stroke="white" stroke-linecap="round" stroke-linejoin="round"/>
<path d="M48.4036 107.556H20.4118" stroke="white" stroke-linecap="round" stroke-linejoin="round"/>
<path d="M61.9949 102.216H67.0108" stroke="white" stroke-linecap="round" stroke-linejoin="round"/>
<path d="M71.1366 102.216H76.1526" stroke="white" stroke-linecap="round" stroke-linejoin="round"/>
<path d="M80.2784 102.216H85.2944" stroke="white" stroke-linecap="round" stroke-linejoin="round"/>
<path d="M89.4202 102.216H94.4361" stroke="white" stroke-linecap="round" stroke-linejoin="round"/>
<path d="M98.5619 102.216H103.578" stroke="white" stroke-linecap="round" stroke-linejoin="round"/>
<path d="M107.704 102.216H112.72" stroke="white" stroke-linecap="round" stroke-linejoin="round"/>
<path d="M61.9949 106.115H65.2312" stroke="white" stroke-linecap="round" stroke-linejoin="round"/>
<path d="M69.5185 106.115H72.7548" stroke="white" stroke-linecap="round" stroke-linejoin="round"/>
<path d="M77.0421 106.115H80.2784" stroke="white" stroke-linecap="round" stroke-linejoin="round"/>
<path d="M84.5664 106.115H87.8027" stroke="white" stroke-linecap="round" stroke-linejoin="round"/>
<path d="M92.09 106.115H95.3263" stroke="white" stroke-linecap="round" stroke-linejoin="round"/>
<path d="M99.6136 106.115H102.85" stroke="white" stroke-linecap="round" stroke-linejoin="round"/>
<path d="M107.138 106.115H110.374" stroke="white" stroke-linecap="round" stroke-linejoin="round"/>
<path d="M24.3695 121.997L20.8088 125.557L24.2304 128.982" stroke="white" stroke-linecap="round" stroke-linejoin="round"/>
<path d="M27.9315 121.997L24.3708 125.557L27.7924 128.982" stroke="white" stroke-linecap="round" stroke-linejoin="round"/>
<path d="M136.319 60.2672L132.758 63.8279L136.181 67.2515" stroke="white" stroke-linecap="round" stroke-linejoin="round"/>
<path d="M130.971 80.0792H159.164" stroke="white" stroke-linecap="round" stroke-linejoin="round"/>
<path d="M130.971 83.5305H142.049" stroke="white" stroke-linecap="round" stroke-linejoin="round"/>
<path d="M130.971 88.9487H142.049" stroke="white" stroke-linecap="round" stroke-linejoin="round"/>
<path d="M130.971 94.3662H142.049" stroke="white" stroke-linecap="round" stroke-linejoin="round"/>
<path d="M130.971 99.7844H142.049" stroke="white" stroke-linecap="round" stroke-linejoin="round"/>
<path d="M174.933 86.8452H167.423" stroke="white" stroke-linecap="round" stroke-linejoin="round"/>
<path d="M174.933 89.9272H167.423" stroke="white" stroke-linecap="round" stroke-linejoin="round"/>
<path d="M174.933 93.0092H167.423" stroke="white" stroke-linecap="round" stroke-linejoin="round"/>
<path d="M174.933 96.0912H167.423" stroke="white" stroke-linecap="round" stroke-linejoin="round"/>
<path d="M174.933 99.1731H167.423" stroke="white" stroke-linecap="round" stroke-linejoin="round"/>
<path d="M174.933 102.254H167.423" stroke="white" stroke-linecap="round" stroke-linejoin="round"/>
<path d="M174.933 105.336H167.423" stroke="white" stroke-linecap="round" stroke-linejoin="round"/>
<path d="M174.933 108.418H167.423" stroke="white" stroke-linecap="round" stroke-linejoin="round"/>
<path d="M36.7548 121.997H112.72" stroke="white" stroke-linecap="round" stroke-linejoin="round"/>
<path d="M36.7548 125.489H82.7867" stroke="white" stroke-linecap="round" stroke-linejoin="round"/>
<path d="M36.7548 130.406H82.7867" stroke="white" stroke-linecap="round" stroke-linejoin="round"/>
<path opacity="0.3" d="M193.184 30.9963H0.00311279V31.9346H193.184V30.9963Z" fill="#C1B7FF"/>
</svg>
