<svg width="345" height="205" viewBox="0 0 345 205" fill="none" xmlns="http://www.w3.org/2000/svg">
<path opacity="0.3" d="M0.0194397 25.6391H155.807V116.689C155.807 117.75 155.386 118.766 154.636 119.516C153.887 120.266 152.87 120.687 151.81 120.687H4.01662C2.9565 120.687 1.9398 120.266 1.19019 119.516C0.44057 118.766 0.0194397 117.75 0.0194397 116.689L0.0194397 25.6391Z" fill="#C1B7FF"/>
<path opacity="0.3" d="M56.7622 135.623H130.423V200.799C130.423 201.86 130.002 202.876 129.252 203.626C128.503 204.375 127.486 204.797 126.426 204.797H60.7594C59.6993 204.797 58.6826 204.375 57.933 203.626C57.1833 202.876 56.7622 201.86 56.7622 200.799V135.623Z" fill="#C1B7FF"/>
<path opacity="0.3" d="M127.27 150.161H66.8963V171.833H127.27V150.161Z" fill="#C1B7FF"/>
<path opacity="0.3" d="M88.1255 175.872H66.8963V182.596H88.1255V175.872Z" fill="#C1B7FF"/>
<path opacity="0.3" d="M127.27 175.872H91.3117V182.596H127.27V175.872Z" fill="#C1B7FF"/>
<path opacity="0.3" d="M130.423 135.623H56.7622V146.933H130.423V135.623Z" fill="#C1B7FF"/>
<path opacity="0.3" d="M61.3167 143.339C62.6121 143.339 63.6622 142.289 63.6622 140.993C63.6622 139.698 62.6121 138.648 61.3167 138.648C60.0213 138.648 58.9711 139.698 58.9711 140.993C58.9711 142.289 60.0213 143.339 61.3167 143.339Z" fill="#C1B7FF"/>
<path d="M61.3167 143.34C60.6989 143.339 60.1063 143.095 59.6675 142.66C59.2287 142.225 58.9792 141.635 58.9732 141.017V141.041C58.9666 141.353 59.0223 141.664 59.1372 141.954C59.2521 142.245 59.4238 142.509 59.6423 142.732C59.8607 142.955 60.1216 143.133 60.4094 143.254C60.6973 143.375 61.0065 143.437 61.3188 143.437C61.6311 143.437 61.9402 143.375 62.2281 143.254C62.516 143.133 62.7768 142.955 62.9953 142.732C63.2137 142.509 63.3855 142.245 63.5003 141.954C63.6152 141.664 63.671 141.353 63.6643 141.041V141.017C63.6586 141.636 63.4086 142.227 62.9689 142.662C62.5291 143.097 61.9352 143.341 61.3167 143.34V143.34Z" fill="#C1B7FF"/>
<path opacity="0.3" d="M66.8963 143.339C68.1918 143.339 69.2419 142.289 69.2419 140.993C69.2419 139.698 68.1918 138.648 66.8963 138.648C65.6009 138.648 64.5508 139.698 64.5508 140.993C64.5508 142.289 65.6009 143.339 66.8963 143.339Z" fill="#C1B7FF"/>
<path d="M66.8958 143.34C66.278 143.339 65.6854 143.095 65.2466 142.66C64.8079 142.225 64.5584 141.635 64.5524 141.017V141.041C64.5457 141.353 64.6015 141.664 64.7164 141.954C64.8312 142.245 65.003 142.509 65.2214 142.732C65.4399 142.955 65.7007 143.133 65.9886 143.254C66.2765 143.375 66.5856 143.437 66.8979 143.437C67.2102 143.437 67.5194 143.375 67.8073 143.254C68.0951 143.133 68.356 142.955 68.5744 142.732C68.7929 142.509 68.9646 142.245 69.0795 141.954C69.1944 141.664 69.2501 141.353 69.2435 141.041V141.017C69.2377 141.636 68.9877 142.227 68.548 142.662C68.1083 143.097 67.5144 143.341 66.8958 143.34V143.34Z" fill="#C1B7FF"/>
<path opacity="0.3" d="M72.4324 143.339C73.7278 143.339 74.778 142.289 74.778 140.993C74.778 139.698 73.7278 138.648 72.4324 138.648C71.137 138.648 70.0869 139.698 70.0869 140.993C70.0869 142.289 71.137 143.339 72.4324 143.339Z" fill="#C1B7FF"/>
<path d="M72.4324 143.34C71.8146 143.34 71.2218 143.095 70.783 142.661C70.3441 142.226 70.0947 141.635 70.089 141.017V141.041C70.0823 141.353 70.1381 141.664 70.253 141.954C70.3679 142.245 70.5396 142.509 70.7581 142.732C70.9765 142.955 71.2373 143.133 71.5252 143.254C71.8131 143.375 72.1223 143.437 72.4346 143.437C72.7468 143.437 73.056 143.375 73.3439 143.254C73.6318 143.133 73.8926 142.955 74.1111 142.732C74.3295 142.509 74.5012 142.245 74.6161 141.954C74.731 141.664 74.7868 141.353 74.7801 141.041V141.017C74.7741 141.636 74.524 142.227 74.0843 142.662C73.6446 143.097 73.0509 143.34 72.4324 143.34Z" fill="#C1B7FF"/>
<path opacity="0.66" d="M130.423 146.715H56.7622V146.933H130.423V146.715Z" fill="#C1B7FF"/>
<path d="M61.3172 142.854C62.3445 142.854 63.1773 142.021 63.1773 140.994C63.1773 139.966 62.3445 139.134 61.3172 139.134C60.2899 139.134 59.4571 139.966 59.4571 140.994C59.4571 142.021 60.2899 142.854 61.3172 142.854Z" fill="#C1B7FF"/>
<path d="M66.8963 142.854C67.9236 142.854 68.7564 142.021 68.7564 140.994C68.7564 139.966 67.9236 139.134 66.8963 139.134C65.8691 139.134 65.0363 139.966 65.0363 140.994C65.0363 142.021 65.8691 142.854 66.8963 142.854Z" fill="#DBFF0E"/>
<path d="M72.4324 142.854C73.4597 142.854 74.2925 142.021 74.2925 140.994C74.2925 139.966 73.4597 139.134 72.4324 139.134C71.4051 139.134 70.5723 139.966 70.5723 140.994C70.5723 142.021 71.4051 142.854 72.4324 142.854Z" fill="#FF2995"/>
<path opacity="0.3" d="M62.335 148.551H60.2989C59.834 148.551 59.4571 148.927 59.4571 149.392V199.483C59.4571 199.948 59.834 200.325 60.2989 200.325H62.335C62.7999 200.325 63.1767 199.948 63.1767 199.483V149.392C63.1767 148.927 62.7999 148.551 62.335 148.551Z" fill="#C1B7FF"/>
<path d="M61.5926 150.161H60.7791C60.5935 150.161 60.443 150.312 60.443 150.497V163.411C60.443 163.596 60.5935 163.747 60.7791 163.747H61.5926C61.7782 163.747 61.9287 163.596 61.9287 163.411V150.497C61.9287 150.312 61.7782 150.161 61.5926 150.161Z" fill="#C1B7FF"/>
<path d="M69.2419 153.259H94.665" stroke="white" stroke-linecap="round" stroke-linejoin="round"/>
<path d="M97.0834 153.259H101.217" stroke="white" stroke-linecap="round" stroke-linejoin="round"/>
<path d="M105.775 153.259H123.818" stroke="white" stroke-linecap="round" stroke-linejoin="round"/>
<path d="M69.2419 155.866H99.9825" stroke="white" stroke-linecap="round" stroke-linejoin="round"/>
<path d="M103.021 155.391H115.518" stroke="white" stroke-linecap="round" stroke-linejoin="round"/>
<path d="M117.836 155.391H124.198" stroke="white" stroke-linecap="round" stroke-linejoin="round"/>
<path d="M70.5723 159.095H106.915" stroke="white" stroke-linecap="round" stroke-linejoin="round"/>
<path d="M111.188 159.095H121.017" stroke="white" stroke-linecap="round" stroke-linejoin="round"/>
<path d="M124.198 161.995H96.089" stroke="white" stroke-linecap="round" stroke-linejoin="round"/>
<path d="M108.15 165.932H69.2419" stroke="white" stroke-linecap="round" stroke-linejoin="round"/>
<path d="M96.089 168.401H124.863" stroke="white" stroke-linecap="round" stroke-linejoin="round"/>
<path d="M99.1503 169.636H75.4825" stroke="white" stroke-linecap="round" stroke-linejoin="round"/>
<path d="M69.2419 161.995H79.5659" stroke="white" stroke-linecap="round" stroke-linejoin="round"/>
<path d="M85.8336 177.423H78.7113" stroke="white" stroke-linecap="round" stroke-linejoin="round"/>
<path d="M85.1684 180.556H68.7399" stroke="white" stroke-linecap="round" stroke-linejoin="round"/>
<path d="M93.1452 177.423H96.089" stroke="white" stroke-linecap="round" stroke-linejoin="round"/>
<path d="M98.5106 177.423H101.454" stroke="white" stroke-linecap="round" stroke-linejoin="round"/>
<path d="M103.876 177.423H106.82" stroke="white" stroke-linecap="round" stroke-linejoin="round"/>
<path d="M109.241 177.423H112.185" stroke="white" stroke-linecap="round" stroke-linejoin="round"/>
<path d="M114.607 177.423H117.551" stroke="white" stroke-linecap="round" stroke-linejoin="round"/>
<path d="M119.972 177.423H122.916" stroke="white" stroke-linecap="round" stroke-linejoin="round"/>
<path d="M93.1452 179.711H95.0447" stroke="white" stroke-linecap="round" stroke-linejoin="round"/>
<path d="M97.5614 179.711H99.4609" stroke="white" stroke-linecap="round" stroke-linejoin="round"/>
<path d="M101.977 179.711H103.877" stroke="white" stroke-linecap="round" stroke-linejoin="round"/>
<path d="M106.393 179.711H108.292" stroke="white" stroke-linecap="round" stroke-linejoin="round"/>
<path d="M110.808 179.711H112.708" stroke="white" stroke-linecap="round" stroke-linejoin="round"/>
<path d="M115.224 179.711H117.124" stroke="white" stroke-linecap="round" stroke-linejoin="round"/>
<path d="M119.64 179.711H121.539" stroke="white" stroke-linecap="round" stroke-linejoin="round"/>
<path d="M71.0653 189.032L68.9744 191.123L70.9834 193.132" stroke="white" stroke-linecap="round" stroke-linejoin="round"/>
<path d="M73.154 189.032L71.0631 191.123L73.0726 193.132" stroke="white" stroke-linecap="round" stroke-linejoin="round"/>
<path d="M78.3317 189.031H122.916" stroke="white" stroke-linecap="round" stroke-linejoin="round"/>
<path d="M78.3317 191.081H105.348" stroke="white" stroke-linecap="round" stroke-linejoin="round"/>
<path d="M78.3317 193.967H105.348" stroke="white" stroke-linecap="round" stroke-linejoin="round"/>
<path opacity="0.3" d="M264.113 173.758H322.848V199.592C322.848 200.652 322.427 201.669 321.677 202.419C320.928 203.168 319.911 203.59 318.851 203.59H268.11C267.05 203.59 266.034 203.168 265.284 202.419C264.534 201.669 264.113 200.652 264.113 199.592V173.758Z" fill="#C1B7FF"/>
<path opacity="0.3" d="M240.226 0.745636H344.954V148.743C344.954 149.803 344.533 150.82 343.783 151.569C343.034 152.319 342.017 152.74 340.957 152.74H244.224C243.163 152.74 242.147 152.319 241.397 151.569C240.648 150.82 240.226 149.803 240.226 148.743V0.745636Z" fill="#C1B7FF"/>
<path opacity="0.3" d="M337.107 20.7215H254.151V93.3062H337.107V20.7215Z" fill="#C1B7FF"/>
<path opacity="0.3" d="M283.321 112.998H254.151V122.236H283.321V112.998Z" fill="#C1B7FF"/>
<path opacity="0.3" d="M337.107 112.998H287.699V122.236H337.107V112.998Z" fill="#C1B7FF"/>
<path opacity="0.3" d="M337.107 127.786H254.151V140.677H337.107V127.786Z" fill="#C1B7FF"/>
<path opacity="0.3" d="M344.954 0.745636H240.226V16.2866H344.954V0.745636Z" fill="#C1B7FF"/>
<path opacity="0.3" d="M246.485 11.3477C248.265 11.3477 249.707 9.90475 249.707 8.12476C249.707 6.34477 248.265 4.90181 246.485 4.90181C244.705 4.90181 243.262 6.34477 243.262 8.12476C243.262 9.90475 244.705 11.3477 246.485 11.3477Z" fill="#C1B7FF"/>
<path d="M246.484 11.3482C245.635 11.3476 244.821 11.0121 244.219 10.4148C243.616 9.81738 243.273 9.00632 243.265 8.15773C243.265 8.16943 243.262 8.17953 243.262 8.19123C243.254 8.6194 243.331 9.04483 243.49 9.44267C243.648 9.84051 243.885 10.2028 244.185 10.5083C244.485 10.8139 244.843 11.0566 245.237 11.2223C245.632 11.3879 246.056 11.4733 246.485 11.4733C246.913 11.4733 247.337 11.3879 247.732 11.2223C248.127 11.0566 248.484 10.8139 248.784 10.5083C249.085 10.2028 249.321 9.84051 249.479 9.44267C249.638 9.04483 249.715 8.6194 249.707 8.19123C249.707 8.17953 249.704 8.16943 249.704 8.15773C249.696 9.0065 249.353 9.81773 248.75 10.4151C248.147 11.0125 247.333 11.3479 246.484 11.3482Z" fill="#C1B7FF"/>
<path opacity="0.3" d="M254.151 11.3477C255.931 11.3477 257.374 9.90475 257.374 8.12476C257.374 6.34477 255.931 4.90181 254.151 4.90181C252.371 4.90181 250.928 6.34477 250.928 8.12476C250.928 9.90475 252.371 11.3477 254.151 11.3477Z" fill="#C1B7FF"/>
<path d="M254.151 11.3482C253.303 11.3479 252.488 11.0125 251.885 10.4151C251.282 9.81773 250.939 9.0065 250.931 8.15773C250.931 8.16943 250.928 8.17953 250.928 8.19123C250.92 8.6194 250.998 9.04483 251.156 9.44267C251.315 9.84051 251.551 10.2028 251.851 10.5083C252.151 10.8139 252.509 11.0566 252.904 11.2223C253.299 11.3879 253.723 11.4733 254.151 11.4733C254.579 11.4733 255.003 11.3879 255.398 11.2223C255.793 11.0566 256.151 10.8139 256.451 10.5083C256.751 10.2028 256.987 9.84051 257.145 9.44267C257.304 9.04483 257.382 8.6194 257.374 8.19123C257.374 8.17953 257.371 8.16943 257.371 8.15773C257.362 9.00632 257.02 9.81738 256.417 10.4148C255.814 11.0121 255 11.3476 254.151 11.3482Z" fill="#C1B7FF"/>
<path opacity="0.3" d="M261.758 11.3477C263.538 11.3477 264.98 9.90475 264.98 8.12476C264.98 6.34477 263.538 4.90181 261.758 4.90181C259.978 4.90181 258.535 6.34477 258.535 8.12476C258.535 9.90475 259.978 11.3477 261.758 11.3477Z" fill="#C1B7FF"/>
<path d="M261.758 11.3482C260.909 11.3479 260.095 11.0125 259.492 10.4151C258.889 9.81773 258.546 9.0065 258.538 8.15773C258.538 8.16943 258.535 8.17953 258.535 8.19123C258.527 8.61947 258.604 9.04497 258.763 9.44287C258.921 9.84078 259.158 10.2031 259.458 10.5087C259.758 10.8143 260.116 11.057 260.511 11.2228C260.906 11.3885 261.33 11.4738 261.758 11.4738C262.186 11.4738 262.61 11.3885 263.005 11.2228C263.4 11.057 263.758 10.8143 264.058 10.5087C264.358 10.2031 264.595 9.84078 264.753 9.44287C264.912 9.04497 264.989 8.61947 264.982 8.19123C264.982 8.17953 264.978 8.16943 264.977 8.15773C264.969 9.00636 264.626 9.8175 264.024 10.4149C263.421 11.0123 262.607 11.3477 261.758 11.3482V11.3482Z" fill="#C1B7FF"/>
<path opacity="0.66" d="M344.954 15.9873H240.226V16.2866H344.954V15.9873Z" fill="#C1B7FF"/>
<path d="M246.485 10.6804C247.896 10.6804 249.04 9.53619 249.04 8.12477C249.04 6.71335 247.896 5.56917 246.485 5.56917C245.073 5.56917 243.929 6.71335 243.929 8.12477C243.929 9.53619 245.073 10.6804 246.485 10.6804Z" fill="#C1B7FF"/>
<path d="M254.151 10.6804C255.562 10.6804 256.706 9.53619 256.706 8.12477C256.706 6.71335 255.562 5.56917 254.151 5.56917C252.739 5.56917 251.595 6.71335 251.595 8.12477C251.595 9.53619 252.739 10.6804 254.151 10.6804Z" fill="#DBFF0E"/>
<path d="M261.758 10.6804C263.17 10.6804 264.314 9.53619 264.314 8.12477C264.314 6.71335 263.17 5.56917 261.758 5.56917C260.347 5.56917 259.202 6.71335 259.202 8.12477C259.202 9.53619 260.347 10.6804 261.758 10.6804Z" fill="#FF2995"/>
<path opacity="0.3" d="M247.738 18.5083H245.231C244.512 18.5083 243.929 19.0911 243.929 19.81V145.294C243.929 146.012 244.512 146.595 245.231 146.595H247.738C248.457 146.595 249.04 146.012 249.04 145.294V19.81C249.04 19.0911 248.457 18.5083 247.738 18.5083Z" fill="#C1B7FF"/>
<path d="M246.805 20.7215H245.803C245.516 20.7215 245.283 20.9543 245.283 21.2415V38.8686C245.283 39.1558 245.516 39.3886 245.803 39.3886H246.805C247.092 39.3886 247.325 39.1558 247.325 38.8686V21.2415C247.325 20.9543 247.092 20.7215 246.805 20.7215Z" fill="#C1B7FF"/>
<path d="M257.374 24.9776H292.306" stroke="white" stroke-linecap="round" stroke-linejoin="round"/>
<path d="M295.629 24.9776H301.309" stroke="white" stroke-linecap="round" stroke-linejoin="round"/>
<path d="M307.573 24.9776H332.365" stroke="white" stroke-linecap="round" stroke-linejoin="round"/>
<path d="M257.374 28.56H299.613" stroke="white" stroke-linecap="round" stroke-linejoin="round"/>
<path d="M303.789 27.9076H320.96" stroke="white" stroke-linecap="round" stroke-linejoin="round"/>
<path d="M324.144 27.9076H332.886" stroke="white" stroke-linecap="round" stroke-linejoin="round"/>
<path d="M259.202 32.9964H309.139" stroke="white" stroke-linecap="round" stroke-linejoin="round"/>
<path d="M315.01 32.9964H328.515" stroke="white" stroke-linecap="round" stroke-linejoin="round"/>
<path d="M332.886 36.9819H294.264" stroke="white" stroke-linecap="round" stroke-linejoin="round"/>
<path d="M310.835 42.3914H257.374" stroke="white" stroke-linecap="round" stroke-linejoin="round"/>
<path d="M294.264 45.784H333.8" stroke="white" stroke-linecap="round" stroke-linejoin="round"/>
<path d="M291.1 55.8097H258.58" stroke="white" stroke-linecap="round" stroke-linejoin="round"/>
<path d="M257.374 36.9819H271.559" stroke="white" stroke-linecap="round" stroke-linejoin="round"/>
<path d="M280.172 115.127H270.385" stroke="white" stroke-linecap="round" stroke-linejoin="round"/>
<path d="M279.258 119.433H256.685" stroke="white" stroke-linecap="round" stroke-linejoin="round"/>
<path d="M290.219 115.127H294.264" stroke="white" stroke-linecap="round" stroke-linejoin="round"/>
<path d="M297.591 115.127H301.636" stroke="white" stroke-linecap="round" stroke-linejoin="round"/>
<path d="M304.963 115.127H309.008" stroke="white" stroke-linecap="round" stroke-linejoin="round"/>
<path d="M312.335 115.127H316.38" stroke="white" stroke-linecap="round" stroke-linejoin="round"/>
<path d="M319.707 115.127H323.752" stroke="white" stroke-linecap="round" stroke-linejoin="round"/>
<path d="M327.08 115.127H331.125" stroke="white" stroke-linecap="round" stroke-linejoin="round"/>
<path d="M290.219 118.271H292.828" stroke="white" stroke-linecap="round" stroke-linejoin="round"/>
<path d="M296.286 118.271H298.896" stroke="white" stroke-linecap="round" stroke-linejoin="round"/>
<path d="M302.353 118.271H304.963" stroke="white" stroke-linecap="round" stroke-linejoin="round"/>
<path d="M308.421 118.271H311.031" stroke="white" stroke-linecap="round" stroke-linejoin="round"/>
<path d="M314.488 118.271H317.098" stroke="white" stroke-linecap="round" stroke-linejoin="round"/>
<path d="M320.556 118.271H323.165" stroke="white" stroke-linecap="round" stroke-linejoin="round"/>
<path d="M326.623 118.271H329.233" stroke="white" stroke-linecap="round" stroke-linejoin="round"/>
<path d="M259.878 131.078L257.006 133.95L259.767 136.711" stroke="white" stroke-linecap="round" stroke-linejoin="round"/>
<path d="M262.748 131.078L259.877 133.95L262.638 136.711" stroke="white" stroke-linecap="round" stroke-linejoin="round"/>
<path d="M286.631 62.3896L280.172 68.8493L286.38 75.0575" stroke="white" stroke-linecap="round" stroke-linejoin="round"/>
<path d="M293.092 62.3896L286.632 68.8493L292.84 75.0575" stroke="white" stroke-linecap="round" stroke-linejoin="round"/>
<path d="M269.864 131.078H331.125" stroke="white" stroke-linecap="round" stroke-linejoin="round"/>
<path d="M269.864 133.895H306.986" stroke="white" stroke-linecap="round" stroke-linejoin="round"/>
<path d="M269.864 137.86H306.986" stroke="white" stroke-linecap="round" stroke-linejoin="round"/>
<path d="M310.378 78.2794C317.441 78.2794 323.166 72.5542 323.166 65.4918C323.166 58.4294 317.441 52.7042 310.378 52.7042C303.316 52.7042 297.591 58.4294 297.591 65.4918C297.591 72.5542 303.316 78.2794 310.378 78.2794Z" stroke="white" stroke-linecap="round" stroke-linejoin="round"/>
<path d="M305.257 68.7233C305.257 70.0815 305.796 71.3841 306.757 72.3446C307.717 73.305 309.02 73.8446 310.378 73.8446C311.736 73.8446 313.039 73.305 313.999 72.3446C314.96 71.3841 315.499 70.0815 315.499 68.7233H305.257Z" stroke="white" stroke-linecap="round" stroke-linejoin="round"/>
<path d="M302.773 63.3941C302.773 62.7353 303.035 62.1035 303.501 61.6377C303.966 61.1719 304.598 60.9102 305.257 60.9102C305.916 60.9102 306.548 61.1719 307.013 61.6377C307.479 62.1035 307.741 62.7353 307.741 63.3941" stroke="white" stroke-linecap="round" stroke-linejoin="round"/>
<path d="M313.016 63.394C313.016 62.7354 313.277 62.1038 313.743 61.6381C314.209 61.1724 314.84 60.9108 315.499 60.9108C316.158 60.9108 316.789 61.1724 317.255 61.6381C317.721 62.1038 317.982 62.7354 317.982 63.394" stroke="white" stroke-linecap="round" stroke-linejoin="round"/>
<path d="M321.162 77.8561H331.704" stroke="white" stroke-linecap="round" stroke-linejoin="round"/>
<path opacity="0.3" d="M304.303 182.452H270.174V195.413H304.303V182.452Z" fill="#C1B7FF"/>
<path opacity="0.3" d="M322.848 173.758H264.113V180.522H322.848V173.758Z" fill="#C1B7FF"/>
<path opacity="0.3" d="M266.837 178.373C267.612 178.373 268.24 177.745 268.24 176.97C268.24 176.195 267.612 175.567 266.837 175.567C266.062 175.567 265.434 176.195 265.434 176.97C265.434 177.745 266.062 178.373 266.837 178.373Z" fill="#C1B7FF"/>
<path d="M266.836 178.373C266.467 178.373 266.113 178.227 265.85 177.967C265.588 177.706 265.439 177.353 265.436 176.984V176.998C265.432 177.185 265.466 177.37 265.535 177.544C265.603 177.717 265.706 177.875 265.837 178.008C265.967 178.141 266.123 178.247 266.295 178.319C266.467 178.392 266.652 178.429 266.839 178.429C267.025 178.429 267.21 178.392 267.382 178.319C267.554 178.247 267.71 178.141 267.841 178.008C267.971 177.875 268.074 177.717 268.143 177.544C268.212 177.37 268.245 177.185 268.242 176.998V176.984C268.238 177.354 268.089 177.708 267.825 177.968C267.562 178.228 267.207 178.374 266.836 178.373V178.373Z" fill="#C1B7FF"/>
<path opacity="0.3" d="M270.174 178.373C270.948 178.373 271.576 177.745 271.576 176.97C271.576 176.195 270.948 175.567 270.174 175.567C269.399 175.567 268.771 176.195 268.771 176.97C268.771 177.745 269.399 178.373 270.174 178.373Z" fill="#C1B7FF"/>
<path d="M270.174 178.373C269.804 178.373 269.45 178.227 269.187 177.967C268.925 177.707 268.775 177.353 268.772 176.984V176.998C268.768 177.185 268.802 177.37 268.871 177.544C268.94 177.717 269.042 177.875 269.173 178.008C269.304 178.141 269.46 178.247 269.632 178.319C269.804 178.392 269.988 178.429 270.175 178.429C270.362 178.429 270.546 178.392 270.718 178.319C270.89 178.247 271.046 178.141 271.177 178.008C271.307 177.875 271.41 177.717 271.479 177.544C271.548 177.37 271.582 177.185 271.578 176.998V176.984C271.575 177.354 271.425 177.708 271.162 177.968C270.899 178.228 270.544 178.374 270.174 178.373V178.373Z" fill="#C1B7FF"/>
<path opacity="0.3" d="M273.484 178.373C274.259 178.373 274.887 177.745 274.887 176.97C274.887 176.195 274.259 175.567 273.484 175.567C272.71 175.567 272.082 176.195 272.082 176.97C272.082 177.745 272.71 178.373 273.484 178.373Z" fill="#C1B7FF"/>
<path d="M273.484 178.373C273.114 178.373 272.76 178.227 272.498 177.967C272.236 177.706 272.087 177.353 272.083 176.984V176.998C272.08 177.185 272.113 177.37 272.182 177.543C272.251 177.717 272.354 177.875 272.484 178.008C272.615 178.141 272.771 178.247 272.943 178.319C273.114 178.391 273.299 178.428 273.486 178.428C273.672 178.428 273.857 178.391 274.029 178.319C274.201 178.247 274.357 178.141 274.487 178.008C274.618 177.875 274.72 177.717 274.789 177.543C274.858 177.37 274.892 177.185 274.888 176.998V176.984C274.885 177.354 274.735 177.708 274.472 177.968C274.209 178.228 273.854 178.374 273.484 178.373V178.373Z" fill="#C1B7FF"/>
<path opacity="0.66" d="M322.848 180.392H264.113V180.522H322.848V180.392Z" fill="#C1B7FF"/>
<path d="M266.837 178.082C267.452 178.082 267.95 177.584 267.95 176.97C267.95 176.356 267.452 175.858 266.837 175.858C266.223 175.858 265.725 176.356 265.725 176.97C265.725 177.584 266.223 178.082 266.837 178.082Z" fill="#C1B7FF"/>
<path d="M270.174 178.082C270.788 178.082 271.286 177.584 271.286 176.97C271.286 176.356 270.788 175.858 270.174 175.858C269.559 175.858 269.061 176.356 269.061 176.97C269.061 177.584 269.559 178.082 270.174 178.082Z" fill="#DBFF0E"/>
<path d="M273.485 178.082C274.099 178.082 274.597 177.584 274.597 176.97C274.597 176.356 274.099 175.858 273.485 175.858C272.87 175.858 272.372 176.356 272.372 176.97C272.372 177.584 272.87 178.082 273.485 178.082Z" fill="#FF2995"/>
<path opacity="0.3" d="M267.383 181.489H266.291C265.979 181.489 265.725 181.743 265.725 182.056V200.349C265.725 200.662 265.979 200.915 266.291 200.915H267.383C267.696 200.915 267.949 200.662 267.949 200.349V182.056C267.949 181.743 267.696 181.489 267.383 181.489Z" fill="#C1B7FF"/>
<path d="M266.976 182.452H266.541C266.416 182.452 266.314 182.554 266.314 182.679V190.35C266.314 190.476 266.416 190.577 266.541 190.577H266.976C267.101 190.577 267.203 190.476 267.203 190.35V182.679C267.203 182.554 267.101 182.452 266.976 182.452Z" fill="#C1B7FF"/>
<path d="M282.192 183.842H271.448C271.423 183.843 271.399 183.839 271.375 183.831C271.352 183.822 271.331 183.809 271.313 183.792C271.295 183.775 271.281 183.755 271.271 183.732C271.261 183.709 271.256 183.684 271.256 183.66C271.256 183.635 271.261 183.61 271.271 183.588C271.281 183.565 271.295 183.544 271.313 183.527C271.331 183.51 271.352 183.497 271.375 183.489C271.399 183.48 271.423 183.476 271.448 183.478H282.193C282.218 183.476 282.242 183.48 282.266 183.489C282.289 183.497 282.31 183.51 282.328 183.527C282.346 183.544 282.36 183.565 282.37 183.588C282.38 183.61 282.385 183.635 282.385 183.66C282.385 183.684 282.38 183.709 282.37 183.732C282.36 183.755 282.346 183.775 282.328 183.792C282.31 183.809 282.289 183.822 282.266 183.831C282.242 183.839 282.218 183.843 282.193 183.842H282.192Z" fill="white"/>
<path d="M284.482 183.842H283.036C283.011 183.843 282.987 183.839 282.963 183.831C282.94 183.822 282.919 183.809 282.901 183.792C282.883 183.775 282.869 183.755 282.859 183.732C282.849 183.709 282.844 183.684 282.844 183.66C282.844 183.635 282.849 183.61 282.859 183.588C282.869 183.565 282.883 183.544 282.901 183.527C282.919 183.51 282.94 183.497 282.963 183.489C282.987 183.48 283.011 183.476 283.036 183.478H284.481C284.506 183.476 284.53 183.48 284.554 183.489C284.577 183.497 284.598 183.51 284.616 183.527C284.634 183.544 284.649 183.565 284.658 183.588C284.668 183.61 284.673 183.635 284.673 183.66C284.673 183.684 284.668 183.709 284.658 183.732C284.649 183.755 284.634 183.775 284.616 183.792C284.598 183.809 284.577 183.822 284.554 183.831C284.53 183.839 284.506 183.843 284.481 183.842H284.482Z" fill="white"/>
<path d="M299.105 183.842H286.077C286.053 183.843 286.028 183.839 286.005 183.831C285.981 183.822 285.96 183.809 285.942 183.792C285.924 183.775 285.91 183.755 285.9 183.732C285.89 183.709 285.885 183.684 285.885 183.66C285.885 183.635 285.89 183.61 285.9 183.588C285.91 183.565 285.924 183.544 285.942 183.527C285.96 183.51 285.981 183.497 286.005 183.489C286.028 183.48 286.053 183.476 286.077 183.478H299.105C299.13 183.476 299.155 183.48 299.178 183.489C299.201 183.497 299.222 183.51 299.24 183.527C299.258 183.544 299.273 183.565 299.283 183.588C299.292 183.61 299.297 183.635 299.297 183.66C299.297 183.684 299.292 183.709 299.283 183.732C299.273 183.755 299.258 183.775 299.24 183.792C299.222 183.809 299.201 183.822 299.178 183.831C299.155 183.839 299.13 183.843 299.105 183.842V183.842Z" fill="white"/>
<path d="M284.05 184.753H271.448C271.423 184.755 271.398 184.751 271.375 184.742C271.352 184.734 271.33 184.721 271.312 184.704C271.294 184.686 271.28 184.666 271.27 184.643C271.261 184.62 271.255 184.596 271.255 184.571C271.255 184.546 271.261 184.522 271.27 184.499C271.28 184.476 271.294 184.456 271.312 184.439C271.33 184.422 271.352 184.408 271.375 184.4C271.398 184.391 271.423 184.388 271.448 184.389H284.05C284.097 184.392 284.141 184.412 284.173 184.446C284.205 184.48 284.223 184.524 284.223 184.571C284.223 184.618 284.205 184.663 284.173 184.697C284.141 184.73 284.097 184.751 284.05 184.753Z" fill="white"/>
<path d="M296.205 184.587H285.113C285.088 184.589 285.063 184.585 285.04 184.576C285.017 184.568 284.995 184.555 284.977 184.538C284.959 184.521 284.945 184.5 284.935 184.477C284.925 184.455 284.92 184.43 284.92 184.405C284.92 184.38 284.925 184.356 284.935 184.333C284.945 184.31 284.959 184.29 284.977 184.273C284.995 184.256 285.017 184.243 285.04 184.234C285.063 184.225 285.088 184.222 285.113 184.223H296.205C296.251 184.226 296.295 184.246 296.327 184.28C296.359 184.314 296.377 184.359 296.377 184.405C296.377 184.452 296.359 184.497 296.327 184.531C296.295 184.565 296.251 184.585 296.205 184.587Z" fill="white"/>
<path d="M299.238 184.587H297.015C296.99 184.589 296.965 184.585 296.942 184.576C296.919 184.568 296.898 184.555 296.88 184.538C296.862 184.521 296.847 184.5 296.838 184.477C296.828 184.455 296.823 184.43 296.823 184.405C296.823 184.38 296.828 184.356 296.838 184.333C296.847 184.31 296.862 184.29 296.88 184.273C296.898 184.256 296.919 184.243 296.942 184.234C296.965 184.225 296.99 184.222 297.015 184.223H299.238C299.263 184.222 299.288 184.225 299.311 184.234C299.334 184.243 299.355 184.256 299.373 184.273C299.391 184.29 299.406 184.31 299.416 184.333C299.425 184.356 299.43 184.38 299.43 184.405C299.43 184.43 299.425 184.455 299.416 184.477C299.406 184.5 299.391 184.521 299.373 184.538C299.355 184.555 299.334 184.568 299.311 184.576C299.288 184.585 299.263 184.589 299.238 184.587Z" fill="white"/>
<path d="M286.474 185.883H271.912C271.888 185.884 271.863 185.88 271.84 185.872C271.816 185.863 271.795 185.85 271.777 185.833C271.759 185.816 271.744 185.795 271.735 185.772C271.725 185.749 271.72 185.725 271.72 185.7C271.72 185.675 271.725 185.651 271.735 185.628C271.744 185.605 271.759 185.584 271.777 185.567C271.795 185.55 271.816 185.537 271.84 185.528C271.863 185.52 271.888 185.516 271.912 185.517H286.475C286.499 185.516 286.524 185.52 286.547 185.528C286.571 185.537 286.592 185.55 286.61 185.567C286.628 185.584 286.643 185.605 286.652 185.628C286.662 185.651 286.667 185.675 286.667 185.7C286.667 185.725 286.662 185.749 286.652 185.772C286.643 185.795 286.628 185.816 286.61 185.833C286.592 185.85 286.571 185.863 286.547 185.872C286.524 185.88 286.499 185.884 286.475 185.883H286.474Z" fill="white"/>
<path d="M298.126 185.883H294.691C294.666 185.884 294.641 185.88 294.618 185.872C294.595 185.863 294.573 185.85 294.555 185.833C294.537 185.816 294.523 185.795 294.513 185.772C294.503 185.749 294.498 185.725 294.498 185.7C294.498 185.675 294.503 185.651 294.513 185.628C294.523 185.605 294.537 185.584 294.555 185.567C294.573 185.55 294.595 185.537 294.618 185.528C294.641 185.52 294.666 185.516 294.691 185.517H298.126C298.151 185.516 298.176 185.52 298.199 185.528C298.223 185.537 298.244 185.55 298.262 185.567C298.28 185.584 298.294 185.605 298.304 185.628C298.314 185.651 298.319 185.675 298.319 185.7C298.319 185.725 298.314 185.749 298.304 185.772C298.294 185.795 298.28 185.816 298.262 185.833C298.244 185.85 298.223 185.863 298.199 185.872C298.176 185.88 298.151 185.884 298.126 185.883V185.883Z" fill="white"/>
<path d="M299.238 186.896H282.69C282.643 186.894 282.599 186.873 282.567 186.839C282.535 186.805 282.517 186.76 282.517 186.714C282.517 186.667 282.535 186.622 282.567 186.588C282.599 186.554 282.643 186.533 282.69 186.531H299.238C299.263 186.53 299.288 186.533 299.311 186.542C299.334 186.55 299.356 186.564 299.374 186.581C299.392 186.598 299.406 186.618 299.416 186.641C299.426 186.664 299.431 186.689 299.431 186.714C299.431 186.738 299.426 186.763 299.416 186.786C299.406 186.809 299.392 186.829 299.374 186.846C299.356 186.863 299.334 186.877 299.311 186.885C299.288 186.894 299.263 186.898 299.238 186.896V186.896Z" fill="white"/>
<path d="M286.906 188.272H271.448C271.423 188.273 271.398 188.269 271.375 188.261C271.351 188.252 271.33 188.239 271.312 188.222C271.294 188.205 271.28 188.184 271.27 188.161C271.26 188.139 271.255 188.114 271.255 188.089C271.255 188.064 271.26 188.04 271.27 188.017C271.28 187.994 271.294 187.973 271.312 187.956C271.33 187.939 271.351 187.926 271.375 187.917C271.398 187.909 271.423 187.905 271.448 187.907H286.906C286.953 187.909 286.997 187.929 287.029 187.963C287.061 187.997 287.079 188.042 287.079 188.089C287.079 188.136 287.061 188.181 287.029 188.215C286.997 188.249 286.953 188.269 286.906 188.272V188.272Z" fill="white"/>
<path d="M299.471 189.135H282.689C282.643 189.133 282.599 189.113 282.567 189.079C282.534 189.045 282.516 189 282.516 188.953C282.516 188.906 282.534 188.861 282.567 188.827C282.599 188.793 282.643 188.773 282.689 188.77H299.471C299.495 188.769 299.52 188.773 299.543 188.781C299.567 188.79 299.588 188.803 299.606 188.82C299.624 188.837 299.639 188.858 299.648 188.881C299.658 188.903 299.663 188.928 299.663 188.953C299.663 188.978 299.658 189.002 299.648 189.025C299.639 189.048 299.624 189.068 299.606 189.086C299.588 189.103 299.567 189.116 299.543 189.124C299.52 189.133 299.495 189.137 299.471 189.135H299.471Z" fill="white"/>
<path d="M278.246 189.566H273.628C273.603 189.567 273.578 189.564 273.555 189.555C273.532 189.547 273.511 189.533 273.493 189.516C273.475 189.499 273.46 189.479 273.451 189.456C273.441 189.433 273.436 189.409 273.436 189.384C273.436 189.359 273.441 189.335 273.451 189.312C273.46 189.289 273.475 189.269 273.493 189.252C273.511 189.235 273.532 189.221 273.555 189.213C273.578 189.204 273.603 189.201 273.628 189.202H278.246C278.271 189.201 278.296 189.204 278.319 189.213C278.342 189.221 278.363 189.235 278.381 189.252C278.399 189.269 278.414 189.289 278.424 189.312C278.433 189.335 278.438 189.359 278.438 189.384C278.438 189.409 278.433 189.433 278.424 189.456C278.414 189.479 278.399 189.499 278.381 189.516C278.363 189.533 278.342 189.547 278.319 189.555C278.296 189.564 278.271 189.567 278.246 189.566V189.566Z" fill="white"/>
<path d="M275.055 186.896H271.448C271.423 186.898 271.398 186.894 271.375 186.885C271.351 186.877 271.33 186.863 271.312 186.846C271.294 186.829 271.28 186.809 271.27 186.786C271.26 186.763 271.255 186.738 271.255 186.714C271.255 186.689 271.26 186.664 271.27 186.641C271.28 186.618 271.294 186.598 271.312 186.581C271.33 186.564 271.351 186.55 271.375 186.542C271.398 186.533 271.423 186.53 271.448 186.531H275.055C275.102 186.533 275.146 186.554 275.178 186.588C275.21 186.622 275.228 186.667 275.228 186.714C275.228 186.76 275.21 186.805 275.178 186.839C275.146 186.873 275.102 186.894 275.055 186.896Z" fill="white"/>
<path opacity="0.3" d="M96.9005 45.6149H13.9439V75.3931H96.9005V45.6149Z" fill="#C1B7FF"/>
<path opacity="0.3" d="M43.1137 80.9435H13.9439V90.1816H43.1137V80.9435Z" fill="#C1B7FF"/>
<path opacity="0.3" d="M96.9005 80.9435H47.4922V90.1816H96.9005V80.9435Z" fill="#C1B7FF"/>
<path opacity="0.3" d="M147.562 45.6149H102.403V58.5062H147.562V45.6149Z" fill="#C1B7FF"/>
<path opacity="0.3" d="M147.561 95.7326H13.9439V108.624H147.561V95.7326Z" fill="#C1B7FF"/>
<path opacity="0.3" d="M147.562 61.8754H102.403V91.2106H147.562V61.8754Z" fill="#C1B7FF"/>
<path opacity="0.3" d="M155.807 25.6391H0.0194397V41.1801H155.807V25.6391Z" fill="#C1B7FF"/>
<path opacity="0.3" d="M6.27764 36.2412C8.05763 36.2412 9.50059 34.7982 9.50059 33.0182C9.50059 31.2383 8.05763 29.7953 6.27764 29.7953C4.49765 29.7953 3.05469 31.2383 3.05469 33.0182C3.05469 34.7982 4.49765 36.2412 6.27764 36.2412Z" fill="#C1B7FF"/>
<path d="M6.27817 36.2412C5.42931 36.2409 4.61486 35.9057 4.01185 35.3082C3.40883 34.7108 3.06601 33.8995 3.05788 33.0507C3.05788 33.0624 3.05469 33.0725 3.05469 33.0842C3.04691 33.5123 3.12452 33.9378 3.283 34.3356C3.44147 34.7335 3.67763 35.0957 3.97768 35.4013C4.27773 35.7068 4.63566 35.9495 5.03055 36.1152C5.42545 36.2809 5.8494 36.3662 6.27764 36.3662C6.70588 36.3662 7.12983 36.2809 7.52472 36.1152C7.91962 35.9495 8.27754 35.7068 8.57759 35.4013C8.87764 35.0957 9.1138 34.7335 9.27228 34.3356C9.43075 33.9378 9.50837 33.5123 9.50059 33.0842C9.50059 33.0725 9.4974 33.0624 9.4974 33.0507C9.48928 33.8993 9.14659 34.7104 8.54381 35.3079C7.94102 35.9053 7.12684 36.2407 6.27817 36.2412V36.2412Z" fill="#C1B7FF"/>
<path opacity="0.3" d="M13.9439 36.2412C15.7239 36.2412 17.1668 34.7982 17.1668 33.0182C17.1668 31.2383 15.7239 29.7953 13.9439 29.7953C12.1639 29.7953 10.7209 31.2383 10.7209 33.0182C10.7209 34.7982 12.1639 36.2412 13.9439 36.2412Z" fill="#C1B7FF"/>
<path d="M13.9439 36.2412C13.0951 36.2409 12.2806 35.9057 11.6776 35.3082C11.0746 34.7108 10.7317 33.8995 10.7236 33.0507C10.7236 33.0624 10.7204 33.0725 10.7204 33.0842C10.7126 33.5124 10.7903 33.9379 10.9488 34.3358C11.1073 34.7337 11.3435 35.0961 11.6436 35.4017C11.9437 35.7073 12.3017 35.95 12.6966 36.1157C13.0916 36.2814 13.5156 36.3667 13.9439 36.3667C14.3722 36.3667 14.7962 36.2814 15.1912 36.1157C15.5862 35.95 15.9441 35.7073 16.2442 35.4017C16.5443 35.0961 16.7805 34.7337 16.939 34.3358C17.0975 33.9379 17.1752 33.5124 17.1674 33.0842C17.1674 33.0725 17.1642 33.0624 17.1642 33.0507C17.1559 33.8994 16.8131 34.7107 16.2101 35.3081C15.6071 35.9055 14.7927 36.2408 13.9439 36.2412V36.2412Z" fill="#C1B7FF"/>
<path opacity="0.3" d="M21.5506 36.2412C23.3306 36.2412 24.7736 34.7982 24.7736 33.0182C24.7736 31.2383 23.3306 29.7953 21.5506 29.7953C19.7706 29.7953 18.3277 31.2383 18.3277 33.0182C18.3277 34.7982 19.7706 36.2412 21.5506 36.2412Z" fill="#C1B7FF"/>
<path d="M21.5506 36.2412C20.7019 36.2407 19.8878 35.9053 19.285 35.3079C18.6822 34.7104 18.3395 33.8993 18.3314 33.0507C18.3314 33.0624 18.3282 33.0725 18.3282 33.0842C18.3204 33.5123 18.398 33.9378 18.5565 34.3356C18.715 34.7335 18.9511 35.0957 19.2512 35.4013C19.5512 35.7068 19.9092 35.9495 20.3041 36.1152C20.699 36.2809 21.1229 36.3662 21.5511 36.3662C21.9794 36.3662 22.4033 36.2809 22.7982 36.1152C23.1931 35.9495 23.5511 35.7068 23.8511 35.4013C24.1512 35.0957 24.3873 34.7335 24.5458 34.3356C24.7043 33.9378 24.7819 33.5123 24.7741 33.0842C24.7741 33.0725 24.7709 33.0624 24.7709 33.0507C24.7628 33.8995 24.42 34.7108 23.8169 35.3082C23.2139 35.9057 22.3995 36.2409 21.5506 36.2412V36.2412Z" fill="#C1B7FF"/>
<path opacity="0.66" d="M155.807 40.8807H0.0194397V41.1801H155.807V40.8807Z" fill="#C1B7FF"/>
<path d="M6.27763 35.5738C7.68905 35.5738 8.83324 34.4297 8.83324 33.0182C8.83324 31.6068 7.68905 30.4626 6.27763 30.4626C4.86621 30.4626 3.72203 31.6068 3.72203 33.0182C3.72203 34.4297 4.86621 35.5738 6.27763 35.5738Z" fill="#C1B7FF"/>
<path d="M13.9439 35.5738C15.3553 35.5738 16.4995 34.4297 16.4995 33.0182C16.4995 31.6068 15.3553 30.4626 13.9439 30.4626C12.5325 30.4626 11.3883 31.6068 11.3883 33.0182C11.3883 34.4297 12.5325 35.5738 13.9439 35.5738Z" fill="#DBFF0E"/>
<path d="M21.5512 35.5738C22.9626 35.5738 24.1068 34.4297 24.1068 33.0182C24.1068 31.6068 22.9626 30.4626 21.5512 30.4626C20.1397 30.4626 18.9956 31.6068 18.9956 33.0182C18.9956 34.4297 20.1397 35.5738 21.5512 35.5738Z" fill="#FF2995"/>
<path opacity="0.3" d="M7.53097 43.4018H5.02376C4.30484 43.4018 3.72203 43.9846 3.72203 44.7035V113.24C3.72203 113.959 4.30484 114.542 5.02376 114.542H7.53097C8.2499 114.542 8.8327 113.959 8.8327 113.24V44.7035C8.8327 43.9846 8.2499 43.4018 7.53097 43.4018Z" fill="#C1B7FF"/>
<path d="M6.59828 45.6149H5.59645C5.30924 45.6149 5.0764 45.8478 5.0764 46.135V63.762C5.0764 64.0493 5.30924 64.2821 5.59645 64.2821H6.59828C6.88549 64.2821 7.11833 64.0493 7.11833 63.762V46.135C7.11833 45.8478 6.88549 45.6149 6.59828 45.6149Z" fill="#C1B7FF"/>
<path d="M17.1669 49.8711H52.0993" stroke="white" stroke-linecap="round" stroke-linejoin="round"/>
<path d="M55.4222 49.8711H61.1024" stroke="white" stroke-linecap="round" stroke-linejoin="round"/>
<path d="M67.3659 49.8711H92.1578" stroke="white" stroke-linecap="round" stroke-linejoin="round"/>
<path d="M17.1669 53.4535H59.4061" stroke="white" stroke-linecap="round" stroke-linejoin="round"/>
<path d="M63.5819 52.801H80.7527" stroke="white" stroke-linecap="round" stroke-linejoin="round"/>
<path d="M83.9369 52.801H92.6794" stroke="white" stroke-linecap="round" stroke-linejoin="round"/>
<path d="M18.9956 57.8899H68.9319" stroke="white" stroke-linecap="round" stroke-linejoin="round"/>
<path d="M74.8035 57.8899H88.3084" stroke="white" stroke-linecap="round" stroke-linejoin="round"/>
<path d="M92.6794 61.8754H54.0567" stroke="white" stroke-linecap="round" stroke-linejoin="round"/>
<path d="M70.6276 67.2849H17.1669" stroke="white" stroke-linecap="round" stroke-linejoin="round"/>
<path d="M54.0567 70.6775H93.593" stroke="white" stroke-linecap="round" stroke-linejoin="round"/>
<path d="M58.2623 72.3737H25.7419" stroke="white" stroke-linecap="round" stroke-linejoin="round"/>
<path d="M17.1669 61.8754H31.3524" stroke="white" stroke-linecap="round" stroke-linejoin="round"/>
<path d="M39.9647 83.0732H30.1783" stroke="white" stroke-linecap="round" stroke-linejoin="round"/>
<path d="M39.0511 87.3793H16.4777" stroke="white" stroke-linecap="round" stroke-linejoin="round"/>
<path d="M50.0116 83.0732H54.0566" stroke="white" stroke-linecap="round" stroke-linejoin="round"/>
<path d="M57.3838 83.0732H61.4289" stroke="white" stroke-linecap="round" stroke-linejoin="round"/>
<path d="M64.756 83.0732H68.8011" stroke="white" stroke-linecap="round" stroke-linejoin="round"/>
<path d="M72.1283 83.0732H76.1733" stroke="white" stroke-linecap="round" stroke-linejoin="round"/>
<path d="M79.5005 83.0732H83.5455" stroke="white" stroke-linecap="round" stroke-linejoin="round"/>
<path d="M86.8727 83.0732H90.9177" stroke="white" stroke-linecap="round" stroke-linejoin="round"/>
<path d="M50.0116 86.2174H52.6214" stroke="white" stroke-linecap="round" stroke-linejoin="round"/>
<path d="M56.0789 86.2174H58.6887" stroke="white" stroke-linecap="round" stroke-linejoin="round"/>
<path d="M62.1462 86.2174H64.756" stroke="white" stroke-linecap="round" stroke-linejoin="round"/>
<path d="M68.214 86.2174H70.8239" stroke="white" stroke-linecap="round" stroke-linejoin="round"/>
<path d="M74.2813 86.2174H76.8912" stroke="white" stroke-linecap="round" stroke-linejoin="round"/>
<path d="M80.3486 86.2174H82.9585" stroke="white" stroke-linecap="round" stroke-linejoin="round"/>
<path d="M86.4164 86.2174H89.0263" stroke="white" stroke-linecap="round" stroke-linejoin="round"/>
<path d="M19.6693 99.0247L16.7978 101.896L19.5571 104.658" stroke="white" stroke-linecap="round" stroke-linejoin="round"/>
<path d="M22.5418 99.0247L19.6703 101.896L22.4296 104.658" stroke="white" stroke-linecap="round" stroke-linejoin="round"/>
<path d="M109.949 49.2441L107.077 52.1156L109.838 54.8765" stroke="white" stroke-linecap="round" stroke-linejoin="round"/>
<path d="M105.636 65.2212H128.372" stroke="white" stroke-linecap="round" stroke-linejoin="round"/>
<path d="M105.636 68.0044H114.57" stroke="white" stroke-linecap="round" stroke-linejoin="round"/>
<path d="M105.636 72.3737H114.57" stroke="white" stroke-linecap="round" stroke-linejoin="round"/>
<path d="M105.636 76.7426H114.57" stroke="white" stroke-linecap="round" stroke-linejoin="round"/>
<path d="M105.636 81.1121H114.57" stroke="white" stroke-linecap="round" stroke-linejoin="round"/>
<path d="M141.089 70.6775H135.032" stroke="white" stroke-linecap="round" stroke-linejoin="round"/>
<path d="M141.089 73.1629H135.032" stroke="white" stroke-linecap="round" stroke-linejoin="round"/>
<path d="M141.089 75.6483H135.032" stroke="white" stroke-linecap="round" stroke-linejoin="round"/>
<path d="M141.089 78.1337H135.032" stroke="white" stroke-linecap="round" stroke-linejoin="round"/>
<path d="M141.089 80.6191H135.032" stroke="white" stroke-linecap="round" stroke-linejoin="round"/>
<path d="M141.089 83.104H135.032" stroke="white" stroke-linecap="round" stroke-linejoin="round"/>
<path d="M141.089 85.5894H135.032" stroke="white" stroke-linecap="round" stroke-linejoin="round"/>
<path d="M141.089 88.0748H135.032" stroke="white" stroke-linecap="round" stroke-linejoin="round"/>
<path d="M29.6572 99.0247H90.9183" stroke="white" stroke-linecap="round" stroke-linejoin="round"/>
<path d="M29.6572 101.841H66.7788" stroke="white" stroke-linecap="round" stroke-linejoin="round"/>
<path d="M29.6572 105.807H66.7788" stroke="white" stroke-linecap="round" stroke-linejoin="round"/>
<path opacity="0.3" d="M155.807 25.6391H0.0194397V26.3958H155.807V25.6391Z" fill="#C1B7FF"/>
</svg>
