<svg width="190" height="190" viewBox="0 0 190 190" fill="none" xmlns="http://www.w3.org/2000/svg">
<path d="M127 55H63C58.5817 55 55 58.5817 55 63V79C55 83.4183 58.5817 87 63 87H127C131.418 87 135 83.4183 135 79V63C135 58.5817 131.418 55 127 55Z" stroke="url(#paint0_linear)" stroke-width="8" stroke-linecap="round" stroke-linejoin="round"/>
<path d="M127 103H63C58.5817 103 55 106.582 55 111V127C55 131.418 58.5817 135 63 135H127C131.418 135 135 131.418 135 127V111C135 106.582 131.418 103 127 103Z" stroke="url(#paint1_linear)" stroke-width="8" stroke-linecap="round" stroke-linejoin="round"/>
<path d="M71 71C71.0153 71 71.0392 71 71.0392 71" stroke="url(#paint2_radial)" stroke-width="8" stroke-linecap="round" stroke-linejoin="round"/>
<path d="M71 119H71.0392" stroke="url(#paint3_radial)" stroke-width="8" stroke-linecap="round" stroke-linejoin="round"/>
<path d="M166.25 126.667V63.3335C166.247 60.5569 165.514 57.8299 164.125 55.426C162.735 53.0222 160.738 51.026 158.333 49.6377L102.917 17.971C100.51 16.5813 97.7793 15.8497 95 15.8497C92.2207 15.8497 89.4903 16.5813 87.0833 17.971L31.6667 49.6377C29.2621 51.026 27.2648 53.0222 25.8753 55.426C24.4858 57.8299 23.7528 60.5569 23.75 63.3335V126.667C23.7528 129.443 24.4858 132.17 25.8753 134.574C27.2648 136.978 29.2621 138.974 31.6667 140.363L87.0833 172.029C89.4903 173.419 92.2207 174.151 95 174.151C97.7793 174.151 100.51 173.419 102.917 172.029L158.333 140.363C160.738 138.974 162.735 136.978 164.125 134.574C165.514 132.17 166.247 129.443 166.25 126.667Z" stroke="url(#paint4_linear)" stroke-width="9" stroke-linecap="round" stroke-linejoin="round"/>
<defs>
<linearGradient id="paint0_linear" x1="134.86" y1="55.0842" x2="105.71" y2="112.562" gradientUnits="userSpaceOnUse">
<stop offset="0.169817" stop-color="#980E8A"/>
<stop offset="1" stop-color="#22A4FD"/>
</linearGradient>
<linearGradient id="paint1_linear" x1="134.86" y1="103.084" x2="105.71" y2="160.562" gradientUnits="userSpaceOnUse">
<stop offset="0.169817" stop-color="#980E8A"/>
<stop offset="1" stop-color="#22A4FD"/>
</linearGradient>
<radialGradient id="paint2_radial" cx="0" cy="0" r="1" gradientUnits="userSpaceOnUse" gradientTransform="translate(68.5 73) rotate(46.8476) scale(87.7269 6.20191)">
<stop offset="0.324057" stop-color="#22A4FD"/>
<stop offset="1" stop-color="#980E8A"/>
</radialGradient>
<radialGradient id="paint3_radial" cx="0" cy="0" r="1" gradientUnits="userSpaceOnUse" gradientTransform="translate(68.5 121) rotate(46.8476) scale(87.7269 6.20191)">
<stop offset="0.324057" stop-color="#22A4FD"/>
<stop offset="1" stop-color="#980E8A"/>
</radialGradient>
<linearGradient id="paint4_linear" x1="166" y1="16.2664" x2="-2.73991" y2="136.072" gradientUnits="userSpaceOnUse">
<stop offset="0.169817" stop-color="#980E8A"/>
<stop offset="1" stop-color="#22A4FD"/>
</linearGradient>
</defs>
</svg>
